<svg width="64" height="42" viewBox="0 0 64 42" fill="none" xmlns="http://www.w3.org/2000/svg">
<rect width="64" height="42" rx="3" fill="#3D3B3F"/>
<rect x="45" y="8" width="12" height="12" rx="1" transform="rotate(90 45 8)" fill="white"/>
<path d="M30 22C30.5523 22 31 22.4477 31 23L31 33C31 33.5523 30.5523 34 30 34L20 34C19.4477 34 19 33.5523 19 33L19 23C19 22.4477 19.4477 22 20 22L30 22Z" fill="white"/>
<path d="M44 22C44.5523 22 45 22.4477 45 23L45 33C45 33.5523 44.5523 34 44 34L34 34C33.4477 34 33 33.5523 33 33L33 23C33 22.4477 33.4477 22 34 22L44 22Z" fill="white"/>
<rect x="31" y="8" width="12" height="12" rx="1" transform="rotate(90 31 8)" fill="white"/>
</svg>
