<svg width="64" height="42" viewBox="0 0 64 42" fill="none" xmlns="http://www.w3.org/2000/svg">
<rect width="64" height="42" rx="3" fill="#3D3B3F"/>
<rect width="12" height="12" rx="1" transform="matrix(4.37114e-08 1 1 -4.37114e-08 12 8)" fill="white"/>
<path d="M27 22C26.4477 22 26 22.4477 26 23L26 33C26 33.5523 26.4477 34 27 34L37 34C37.5523 34 38 33.5523 38 33L38 23C38 22.4477 37.5523 22 37 22L27 22Z" fill="white"/>
<path d="M41 22C40.4477 22 40 22.4477 40 23L40 33C40 33.5523 40.4477 34 41 34L51 34C51.5523 34 52 33.5523 52 33L52 23C52 22.4477 51.5523 22 51 22L41 22Z" fill="white"/>
<rect width="12" height="12" rx="1" transform="matrix(4.37114e-08 1 1 -4.37114e-08 26 8)" fill="white"/>
</svg>
