<svg width="27" height="30" viewBox="0 0 27 30" fill="none" xmlns="http://www.w3.org/2000/svg">
<path d="M3.73943 22.4043H23.2595C23.8602 22.4043 24.4521 22.2598 24.9851 21.9832C25.5182 21.7065 25.9766 21.3057 26.3216 20.8148C26.6666 20.3238 26.8881 19.7571 26.9673 19.1626C27.0466 18.5681 26.9812 17.9633 26.7767 17.3994L23.2208 7.58509C22.6135 5.40404 21.3073 3.48161 19.502 2.11181C17.6966 0.742016 15.4915 0.00026397 13.2239 1.26623e-09C10.8634 -3.6833e-05 8.57337 0.803551 6.73203 2.27809C4.8907 3.75262 3.60813 5.80993 3.09608 8.11034L0.166075 17.5699C-0.00643383 18.1284 -0.0452154 18.7195 0.0528505 19.2957C0.150916 19.8719 0.383091 20.417 0.730694 20.8873C1.0783 21.3576 1.53162 21.7398 2.05419 22.0033C2.57677 22.2668 3.15399 22.4041 3.73943 22.4043Z" fill="white"/>
<path d="M7.46875 25.2764C7.75128 26.5734 8.50615 27.7394 9.60545 28.577C10.7048 29.4146 12.0809 29.8721 13.5007 29.8721C14.9204 29.8721 16.2966 29.4146 17.3959 28.577C18.4952 27.7394 19.25 26.5734 19.5326 25.2764H7.46875Z" fill="white"/>
</svg>
