<svg width="27" height="27" viewBox="0 0 27 27" fill="none" xmlns="http://www.w3.org/2000/svg">
<path d="M24.753 1.35711e-05H23.1397C22.6969 -0.00124752 22.2583 0.085393 21.8493 0.254913C21.4402 0.424433 21.0689 0.673459 20.7568 0.987558L11.1768 10.5608C9.37119 9.94395 7.40989 9.95668 5.61241 10.5969C3.81493 11.2371 2.28719 12.4671 1.27802 14.0865C0.268854 15.7058 -0.162264 17.6192 0.0548901 19.5149C0.272044 21.4106 1.12467 23.1769 2.4739 24.5261C3.82312 25.8753 5.58943 26.728 7.48512 26.9451C9.38082 27.1623 11.2942 26.7312 12.9136 25.722C14.5329 24.7128 15.7629 23.1851 16.4031 21.3876C17.0433 19.5901 17.0561 17.6288 16.4392 15.8232L19.1356 13.1268V8.9879H22.5061V5.61744H26.4956C26.8236 5.08992 26.9982 4.48149 27 3.86031V2.24699C27 1.65105 26.7633 1.07953 26.3419 0.658136C25.9205 0.236747 25.349 1.35711e-05 24.753 1.35711e-05ZM6.21551 22.4697C5.88221 22.4697 5.55639 22.3709 5.27925 22.1857C5.00212 22.0005 4.78612 21.7373 4.65857 21.4294C4.53101 21.1215 4.49764 20.7826 4.56267 20.4557C4.62769 20.1288 4.78819 19.8285 5.02388 19.5929C5.25956 19.3572 5.55984 19.1967 5.88674 19.1317C6.21364 19.0666 6.55249 19.1 6.86042 19.2276C7.16836 19.3551 7.43155 19.5711 7.61673 19.8482C7.80191 20.1254 7.90074 20.4512 7.90074 20.7845C7.90074 21.2314 7.72319 21.6601 7.40715 21.9761C7.09111 22.2922 6.66246 22.4697 6.21551 22.4697Z" fill="#D79358"/>
</svg>
