<svg width="28" height="28" viewBox="0 0 28 28" fill="none" xmlns="http://www.w3.org/2000/svg">
<g clip-path="url(#clip0_911_415)">
<path d="M8.75 15.1667C7.71165 15.1667 6.69661 14.8588 5.83326 14.2819C4.9699 13.705 4.29699 12.8851 3.89963 11.9258C3.50227 10.9664 3.3983 9.91085 3.60088 8.89245C3.80345 7.87405 4.30346 6.93858 5.03769 6.20436C5.77191 5.47013 6.70738 4.97012 7.72578 4.76755C8.74418 4.56497 9.79978 4.66894 10.7591 5.0663C11.7184 5.46366 12.5383 6.13657 13.1152 6.99993C13.6921 7.86328 14 8.87832 14 9.91667C13.9985 11.3086 13.4448 12.643 12.4606 13.6273C11.4764 14.6115 10.1419 15.1651 8.75 15.1667ZM17.5 23.3333C17.4981 21.7868 16.883 20.3042 15.7894 19.2106C14.6958 18.117 13.2132 17.5019 11.6667 17.5H5.83333C4.28681 17.5019 2.80415 18.117 1.71059 19.2106C0.617029 20.3042 0.0018525 21.7868 0 23.3333L0 28H17.5V23.3333ZM20.4167 10.5C19.3783 10.5 18.3633 10.1921 17.4999 9.61522C16.6366 9.03834 15.9637 8.2184 15.5663 7.25909C15.1689 6.29978 15.065 5.24418 15.2675 4.22578C15.4701 3.20738 15.9701 2.27192 16.7044 1.53769C17.4386 0.803466 18.374 0.303452 19.3924 0.10088C20.4108 -0.101693 21.4664 0.00227475 22.4258 0.399635C23.3851 0.796995 24.205 1.4699 24.7819 2.33326C25.3588 3.19662 25.6667 4.21165 25.6667 5.25C25.6651 6.64192 25.1115 7.97638 24.1273 8.96061C23.143 9.94484 21.8086 10.4985 20.4167 10.5ZM22.1667 12.8333H16.3333C16.1286 12.8427 15.9245 12.8634 15.722 12.8952C15.2978 13.8767 14.6713 14.7577 13.8833 15.4805C15.594 15.9645 17.1003 16.993 18.174 18.41C19.2477 19.8271 19.8302 21.5555 19.8333 23.3333H28V18.6667C27.9981 17.1201 27.383 15.6375 26.2894 14.5439C25.1958 13.4504 23.7132 12.8352 22.1667 12.8333Z" fill="white"/>
</g>
<defs>
<clipPath id="clip0_911_415">
<rect width="28" height="28" fill="white"/>
</clipPath>
</defs>
</svg>
