<svg width="27" height="27" viewBox="0 0 27 27" fill="none" xmlns="http://www.w3.org/2000/svg">
<g clip-path="url(#clip0_911_438)">
<path d="M11.0576 8.73225C10.899 8.73225 10.7404 8.68163 10.6076 8.58263C10.3522 8.39138 10.2465 8.06062 10.3421 7.75687L11.0475 5.4945L9.26437 4.04325C9.02475 3.83963 8.937 3.50775 9.04613 3.213C9.15413 2.91825 9.43537 2.72137 9.75037 2.72137H12.0015L12.798 0.486C12.906 0.194625 13.1873 0 13.5 0C13.8127 0 14.094 0.194625 14.2031 0.48825L14.9996 2.72363H17.2507C17.5657 2.72363 17.847 2.9205 17.955 3.21637C18.063 3.51225 17.9741 3.84413 17.7334 4.04775L15.9592 5.49337L16.6928 7.72875C16.7929 8.03137 16.6916 8.36437 16.4385 8.559C16.1854 8.75362 15.8377 8.76712 15.5711 8.59387L13.5056 7.24837L11.475 8.60738C11.349 8.69175 11.2028 8.7345 11.0576 8.7345V8.73225ZM14.625 10.125H12.375C10.8214 10.125 9.5625 11.3839 9.5625 12.9375V24.1875C9.5625 25.7411 10.8214 27 12.375 27H14.625C16.1786 27 17.4375 25.7411 17.4375 24.1875V12.9375C17.4375 11.3839 16.1786 10.125 14.625 10.125ZM24.1875 18H22.5C20.9464 18 19.6875 19.2589 19.6875 20.8125V24.1875C19.6875 25.7411 20.9464 27 22.5 27H24.1875C25.7411 27 27 25.7411 27 24.1875V20.8125C27 19.2589 25.7411 18 24.1875 18ZM4.5 14.625H2.8125C1.25887 14.625 0 15.8839 0 17.4375V24.1875C0 25.7411 1.25887 27 2.8125 27H4.5C6.05363 27 7.3125 25.7411 7.3125 24.1875V17.4375C7.3125 15.8839 6.05363 14.625 4.5 14.625Z" fill="white"/>
</g>
<defs>
<clipPath id="clip0_911_438">
<rect width="27" height="27" fill="white"/>
</clipPath>
</defs>
</svg>
