<svg width="33" height="31" viewBox="0 0 33 31" fill="none" xmlns="http://www.w3.org/2000/svg">
<path d="M33 10.56V26.7756C33 27.1489 32.8551 27.507 32.5973 27.7709C32.3394 28.0349 31.9897 28.1832 31.625 28.1832C31.2603 28.1832 30.9106 28.0349 30.6527 27.7709C30.3949 27.507 30.25 27.1489 30.25 26.7756V15.1657L20.075 20.143C19.0021 20.7913 17.7773 21.1289 16.5316 21.1199C15.2251 21.1219 13.9424 20.7625 12.8191 20.0796L2.67151 15.1347C1.87385 14.6956 1.2055 14.046 0.73581 13.2533C0.266123 12.4606 0.0122146 11.5536 0.000429779 10.6265C-0.011355 9.69945 0.219413 8.78604 0.66879 7.98106C1.11817 7.17609 1.76978 6.50888 2.55601 6.04868C2.59314 6.02616 2.63301 6.00504 2.67151 5.98533L12.9249 0.97709C14.0319 0.326302 15.2882 -0.0108657 16.5647 0.00026702C17.8412 0.0113998 19.0917 0.370431 20.1877 1.04043L30.3284 5.98533C31.1285 6.43856 31.7972 7.10057 32.2665 7.90408C32.7357 8.70759 32.9888 9.62395 33 10.56ZM16.5302 23.9322C14.771 23.9362 13.042 23.4642 11.5183 22.5641L5.4999 19.6236V23.4241C5.50072 24.9267 5.97065 26.3898 6.84112 27.5997C7.71158 28.8096 8.93701 29.7031 10.3385 30.1496C12.341 30.7382 14.4167 31.0241 16.4999 30.9984C18.5834 31.0223 20.6591 30.7345 22.6613 30.144C24.0629 29.6974 25.2883 28.804 26.1588 27.5941C27.0292 26.3842 27.4992 24.9211 27.5 23.4185V19.6306L21.3688 22.6288C19.8971 23.4944 18.2275 23.9451 16.5302 23.9351V23.9322Z" fill="white"/>
</svg>
