<svg width="27" height="27" viewBox="0 0 27 27" fill="none" xmlns="http://www.w3.org/2000/svg">
<g clip-path="url(#clip0_911_441)">
<path d="M24.207 16.3867C25.7603 16.3867 27.0195 15.1275 27.0195 13.5742C27.0195 12.0209 25.7603 10.7617 24.207 10.7617C22.6537 10.7617 21.3945 12.0209 21.3945 13.5742C21.3945 15.1275 22.6537 16.3867 24.207 16.3867Z" fill="white"/>
<path d="M13.5 16.3125C15.0533 16.3125 16.3125 15.0533 16.3125 13.5C16.3125 11.9467 15.0533 10.6875 13.5 10.6875C11.9467 10.6875 10.6875 11.9467 10.6875 13.5C10.6875 15.0533 11.9467 16.3125 13.5 16.3125Z" fill="white"/>
<path d="M2.8125 16.3125C4.3658 16.3125 5.625 15.0533 5.625 13.5C5.625 11.9467 4.3658 10.6875 2.8125 10.6875C1.2592 10.6875 0 11.9467 0 13.5C0 15.0533 1.2592 16.3125 2.8125 16.3125Z" fill="white"/>
</g>
<defs>
<clipPath id="clip0_911_441">
<rect width="27" height="27" fill="white"/>
</clipPath>
</defs>
</svg>
