<svg width="28" height="34" viewBox="0 0 28 34" fill="none" xmlns="http://www.w3.org/2000/svg">
<g clip-path="url(#clip0_861_14)">
<path d="M17.7621 18.3877H10.4503C5.2828 18.3877 1.09961 22.5863 1.09961 27.8168V32.4779C1.09961 33.2607 1.73237 33.9012 2.50573 33.9012H25.7067C26.48 33.9012 27.1128 33.2607 27.1128 32.4779V27.8168C27.1128 22.5863 22.9296 18.3877 17.7621 18.3877Z" fill="white"/>
<path d="M14.1057 16.1103C18.474 16.1103 22.0151 12.5259 22.0151 8.10445C22.0151 3.68296 18.474 0.0986328 14.1057 0.0986328C9.73744 0.0986328 6.19629 3.68296 6.19629 8.10445C6.19629 12.5259 9.73744 16.1103 14.1057 16.1103Z" fill="white"/>
</g>
<defs>
<clipPath id="clip0_861_14">
<rect width="27.3412" height="34" fill="white" transform="translate(0.435547)"/>
</clipPath>
</defs>
</svg>
