<svg width="27" height="27" viewBox="0 0 27 27" fill="none" xmlns="http://www.w3.org/2000/svg">
<g clip-path="url(#clip0_911_435)">
<path d="M22.5 11.8125C21.7416 11.8385 20.9878 11.941 20.25 12.1185V10.125C20.25 9.22989 19.8944 8.37145 19.2615 7.73851C18.6286 7.10558 17.7701 6.75 16.875 6.75H14.319C14.4972 6.01234 14.5997 5.25845 14.625 4.5C14.625 3.30653 14.1509 2.16193 13.307 1.31802C12.4631 0.474106 11.3185 0 10.125 0C8.93153 0 7.78693 0.474106 6.94302 1.31802C6.09911 2.16193 5.625 3.30653 5.625 4.5C5.65031 5.25845 5.75284 6.01234 5.931 6.75H3.375C2.47989 6.75 1.62145 7.10558 0.988515 7.73851C0.355579 8.37145 0 9.22989 0 10.125L0 27H7.353L7.0875 25.875C6.89771 25.1386 6.78461 24.3846 6.75 23.625C6.75 22.7299 7.10558 21.8714 7.73851 21.2385C8.37145 20.6056 9.22989 20.25 10.125 20.25C11.0201 20.25 11.8786 20.6056 12.5115 21.2385C13.1444 21.8714 13.5 22.7299 13.5 23.625C13.4654 24.3846 13.3523 25.1386 13.1625 25.875L12.8959 27H20.25V20.5065C20.9878 20.684 21.7416 20.7865 22.5 20.8125C23.6935 20.8125 24.8381 20.3384 25.682 19.4945C26.5259 18.6506 27 17.506 27 16.3125C27 15.119 26.5259 13.9744 25.682 13.1305C24.8381 12.2866 23.6935 11.8125 22.5 11.8125Z" fill="white"/>
</g>
<defs>
<clipPath id="clip0_911_435">
<rect width="27" height="27" fill="white"/>
</clipPath>
</defs>
</svg>
