<svg width="27" height="27" viewBox="0 0 27 27" fill="none" xmlns="http://www.w3.org/2000/svg">
<g clip-path="url(#clip0_911_429)">
<path d="M6.1875 23.625C5.44158 23.625 4.72621 23.3287 4.19876 22.8012C3.67132 22.2738 3.375 21.5584 3.375 20.8125V1.6875C3.375 1.23995 3.19721 0.810725 2.88074 0.494257C2.56428 0.17779 2.13505 0 1.6875 0C1.23995 0 0.810725 0.17779 0.494257 0.494257C0.17779 0.810725 0 1.23995 0 1.6875L0 20.8125C0 22.4535 0.651895 24.0273 1.81228 25.1877C2.97266 26.3481 4.54647 27 6.1875 27H25.3125C25.7601 27 26.1893 26.8222 26.5057 26.5057C26.8222 26.1893 27 25.7601 27 25.3125C27 24.8649 26.8222 24.4357 26.5057 24.1193C26.1893 23.8028 25.7601 23.625 25.3125 23.625H6.1875Z" fill="white"/>
<path d="M21.9375 20.25C22.3851 20.25 22.8143 20.0722 23.1307 19.7557C23.4472 19.4393 23.625 19.0101 23.625 18.5625V11.8125C23.625 11.3649 23.4472 10.9357 23.1307 10.6193C22.8143 10.3028 22.3851 10.125 21.9375 10.125C21.4899 10.125 21.0607 10.3028 20.7443 10.6193C20.4278 10.9357 20.25 11.3649 20.25 11.8125V18.5625C20.25 19.0101 20.4278 19.4393 20.7443 19.7557C21.0607 20.0722 21.4899 20.25 21.9375 20.25Z" fill="white"/>
<path d="M8.4375 20.25C8.88505 20.25 9.31428 20.0722 9.63074 19.7557C9.94721 19.4393 10.125 19.0101 10.125 18.5625V11.8125C10.125 11.3649 9.94721 10.9357 9.63074 10.6193C9.31428 10.3028 8.88505 10.125 8.4375 10.125C7.98995 10.125 7.56072 10.3028 7.24426 10.6193C6.92779 10.9357 6.75 11.3649 6.75 11.8125V18.5625C6.75 19.0101 6.92779 19.4393 7.24426 19.7557C7.56072 20.0722 7.98995 20.25 8.4375 20.25Z" fill="white"/>
<path d="M15.1875 20.25C15.6351 20.25 16.0643 20.0722 16.3807 19.7557C16.6972 19.4393 16.875 19.0101 16.875 18.5625V6.1875C16.875 5.73995 16.6972 5.31072 16.3807 4.99426C16.0643 4.67779 15.6351 4.5 15.1875 4.5C14.7399 4.5 14.3107 4.67779 13.9943 4.99426C13.6778 5.31072 13.5 5.73995 13.5 6.1875V18.5625C13.5 19.0101 13.6778 19.4393 13.9943 19.7557C14.3107 20.0722 14.7399 20.25 15.1875 20.25Z" fill="white"/>
</g>
<defs>
<clipPath id="clip0_911_429">
<rect width="27" height="27" fill="white"/>
</clipPath>
</defs>
</svg>
