<svg width="27" height="27" viewBox="0 0 27 27" fill="none" xmlns="http://www.w3.org/2000/svg">
<g clip-path="url(#clip0_883_90)">
<path d="M12.9375 18C12.4899 18 12.0607 18.1778 11.7443 18.4943C11.4278 18.8107 11.25 19.2399 11.25 19.6875V20.5875C11.25 21.3931 10.93 22.1657 10.3603 22.7353C9.7907 23.305 9.0181 23.625 8.2125 23.625H6.4125C5.60691 23.625 4.83431 23.305 4.26466 22.7353C3.69502 22.1657 3.375 21.3931 3.375 20.5875V6.4125C3.375 5.6069 3.69502 4.8343 4.26466 4.26466C4.83431 3.69502 5.60691 3.375 6.4125 3.375H8.2125C9.0181 3.375 9.7907 3.69502 10.3603 4.26466C10.93 4.8343 11.25 5.6069 11.25 6.4125V7.3125C11.25 7.76005 11.4278 8.18928 11.7443 8.50574C12.0607 8.82221 12.4899 9 12.9375 9C13.3851 9 13.8143 8.82221 14.1307 8.50574C14.4472 8.18928 14.625 7.76005 14.625 7.3125V6.4125C14.6232 4.71235 13.947 3.08234 12.7449 1.88015C11.5427 0.677961 9.91265 0.00178681 8.2125 0L6.4125 0C4.71235 0.00178681 3.08234 0.677961 1.88015 1.88015C0.677961 3.08234 0.00178681 4.71235 0 6.4125L0 20.5875C0.00178681 22.2877 0.677961 23.9177 1.88015 25.1198C3.08234 26.322 4.71235 26.9982 6.4125 27H8.2125C9.91265 26.9982 11.5427 26.322 12.7449 25.1198C13.947 23.9177 14.6232 22.2877 14.625 20.5875V19.6875C14.625 19.2399 14.4472 18.8107 14.1307 18.4943C13.8143 18.1778 13.3851 18 12.9375 18Z" fill="#F15757"/>
<path d="M25.3811 10.7158L20.2219 5.55652C20.0651 5.39984 19.8791 5.27558 19.6743 5.19081C19.4695 5.10605 19.25 5.06245 19.0284 5.0625C18.8068 5.06255 18.5873 5.10626 18.3826 5.19112C18.1779 5.27598 17.9919 5.40033 17.8352 5.55708C17.5188 5.87365 17.3411 6.30295 17.3412 6.75054C17.3412 6.97216 17.3849 7.19161 17.4698 7.39634C17.5546 7.60108 17.679 7.78709 17.8358 7.94377L21.6731 11.7811L7.875 11.8126C7.42745 11.8126 6.99822 11.9904 6.68176 12.3069C6.36529 12.6234 6.1875 13.0526 6.1875 13.5001C6.1875 13.9477 6.36529 14.3769 6.68176 14.6934C6.99822 15.0099 7.42745 15.1876 7.875 15.1876L21.7328 15.1561L17.8324 19.0565C17.5158 19.3729 17.3379 19.8022 17.3378 20.2497C17.3377 20.6973 17.5154 21.1266 17.8318 21.4432C18.1482 21.7598 18.5774 21.9377 19.025 21.9378C19.4726 21.9379 19.9019 21.7602 20.2185 21.4438L25.3778 16.2845C26.1153 15.5458 26.5299 14.5447 26.5305 13.5008C26.5312 12.4569 26.1178 11.4554 25.3811 10.7158Z" fill="#F15757"/>
</g>
<defs>
<clipPath id="clip0_883_90">
<rect width="27" height="27" fill="white"/>
</clipPath>
</defs>
</svg>
