<svg width="26" height="26" viewBox="0 0 26 26" fill="none" xmlns="http://www.w3.org/2000/svg">
<g clip-path="url(#clip0_885_182)">
<path d="M24.9163 11.917H22.7496V9.75031C22.7496 9.152 22.2646 8.66699 21.6663 8.66699C21.068 8.66699 20.583 9.152 20.583 9.75031V11.917H18.4163C17.818 11.917 17.333 12.402 17.333 13.0003C17.333 13.5986 17.818 14.0836 18.4163 14.0836H20.583V16.2503C20.583 16.8486 21.068 17.3336 21.6663 17.3336C22.2646 17.3336 22.7496 16.8486 22.7496 16.2503V14.0836H24.9163C25.5146 14.0836 25.9996 13.5986 25.9996 13.0003C25.9996 12.402 25.5146 11.917 24.9163 11.917Z" fill="white"/>
<path d="M9.75 13C13.3399 13 16.25 10.0899 16.25 6.5C16.25 2.91015 13.3399 0 9.75 0C6.16015 0 3.25 2.91015 3.25 6.5C3.25 10.0899 6.16015 13 9.75 13Z" fill="white"/>
<path d="M9.75 15.167C4.3677 15.173 0.00599219 19.5347 0 24.917C0 25.5153 0.485012 26.0003 1.08332 26.0003H18.4166C19.0149 26.0003 19.4999 25.5153 19.4999 24.917C19.494 19.5347 15.1323 15.1729 9.75 15.167Z" fill="white"/>
</g>
<defs>
<clipPath id="clip0_885_182">
<rect width="26" height="26" fill="white"/>
</clipPath>
</defs>
</svg>
