<svg width="17" height="16" viewBox="0 0 17 16" fill="none" xmlns="http://www.w3.org/2000/svg">
<path d="M17 5.45034V13.8197C17 14.0123 16.9254 14.1971 16.7925 14.3334C16.6597 14.4696 16.4795 14.5462 16.2917 14.5462C16.1038 14.5462 15.9236 14.4696 15.7908 14.3334C15.658 14.1971 15.5833 14.0123 15.5833 13.8197V7.82746L10.3416 10.3964C9.78896 10.731 9.15802 10.9052 8.51626 10.9006C7.84324 10.9016 7.18244 10.7161 6.60375 10.3637L1.37623 7.81148C0.965315 7.58484 0.621013 7.24956 0.379053 6.8404C0.137094 6.43125 0.00629235 5.96315 0.000221401 5.48466C-0.00584955 5.00617 0.113031 4.53473 0.344528 4.11926C0.576025 3.70379 0.911704 3.35942 1.31673 3.1219C1.33586 3.11027 1.3564 3.09938 1.37623 3.08921L6.6583 0.504305C7.22855 0.168414 7.87575 -0.00560813 8.53333 0.000137817C9.19091 0.00588376 9.83513 0.19119 10.3997 0.536997L15.6237 3.08921C16.0359 3.32313 16.3804 3.66481 16.6221 4.07952C16.8639 4.49424 16.9942 4.9672 17 5.45034ZM8.51555 12.3521C7.60929 12.3542 6.71859 12.1106 5.93367 11.646L2.83328 10.1283V12.0899C2.8337 12.8654 3.07579 13.6205 3.52421 14.245C3.97263 14.8695 4.60391 15.3306 5.32592 15.5611C6.35749 15.8649 7.4268 16.0125 8.49997 15.9992C9.57328 16.0115 10.6426 15.863 11.674 15.5582C12.396 15.3277 13.0273 14.8666 13.4757 14.2421C13.9241 13.6176 14.1662 12.8625 14.1667 12.087V10.1319L11.0082 11.6794C10.25 12.1261 9.38993 12.3588 8.51555 12.3536V12.3521Z" fill="#B73C3C"/>
</svg>
