<svg width="34" height="34" viewBox="0 0 34 34" fill="none" xmlns="http://www.w3.org/2000/svg">
<path fill-rule="evenodd" clip-rule="evenodd" d="M33.1693 0.0201158L24.6453 2.30412L17.6973 9.75512L23.8862 16.3901L31.5672 9.22612L33.8513 0.702116C33.9043 0.505116 33.8523 0.309116 33.7073 0.164116C33.5633 0.0201158 33.3673 -0.0328842 33.1693 0.0201158ZM0.70225 0.0201158L9.22625 2.30412L27.1992 21.5751L28.6682 20.1071L30.6752 22.1141L27.3393 25.4501L30.7362 28.8471C31.5672 28.6501 32.4773 28.8761 33.1253 29.5241C34.1203 30.5181 34.1203 32.1311 33.1253 33.1251C32.1313 34.1201 30.5182 34.1201 29.5243 33.1251C28.8762 32.4771 28.6502 31.5671 28.8472 30.7361L25.4503 27.3391L22.1143 30.6751L20.1073 28.6681L21.5753 27.1991L2.30425 9.22612L0.02025 0.702116C-0.03275 0.505116 0.02025 0.309116 0.16425 0.164116C0.30925 0.0201158 0.50525 -0.0328842 0.70225 0.0201158ZM10.0413 17.9631L6.67225 21.5751L5.20425 20.1071L3.19625 22.1141L6.53225 25.4501L3.13525 28.8471C2.30425 28.6501 1.39425 28.8761 0.74625 29.5241C-0.24875 30.5181 -0.24875 32.1311 0.74625 33.1251C1.74025 34.1201 3.35325 34.1201 4.34825 33.1251C4.99625 32.4771 5.22125 31.5671 5.02525 30.7361L8.42125 27.3391L11.7572 30.6751L13.7653 28.6681L12.2962 27.1991L16.1203 23.6331L10.0413 17.9631Z" fill="white"/>
</svg>
