<svg width="9" height="9" viewBox="0 0 9 9" fill="none" xmlns="http://www.w3.org/2000/svg">
<path d="M0.441082 7.16226C0.158745 7.44451 8.52619e-05 7.82735 0 8.22658L0 8.99922H0.772646C1.17187 8.99914 1.55471 8.84048 1.83696 8.55814L6.8586 3.53651L5.46272 2.14062L0.441082 7.16226Z" fill="white"/>
<path d="M8.71086 0.289388C8.61921 0.197647 8.51038 0.124868 8.39059 0.0752133C8.2708 0.0255581 8.1424 0 8.01273 0C7.88306 0 7.75465 0.0255581 7.63486 0.0752133C7.51507 0.124868 7.40624 0.197647 7.3146 0.289388L5.99512 1.60925L7.391 3.00513L8.71086 1.68565C8.8026 1.594 8.87538 1.48517 8.92503 1.36538C8.97469 1.24559 9.00025 1.11719 9.00025 0.987517C9.00025 0.857843 8.97469 0.729441 8.92503 0.609651C8.87538 0.489861 8.8026 0.381033 8.71086 0.289388Z" fill="white"/>
</svg>
