<svg width="512" height="512" viewBox="0 0 512 512" fill="none" xmlns="http://www.w3.org/2000/svg">
<path d="M255.999 341.301C303.109 341.301 341.3 303.11 341.3 256C341.3 208.889 303.109 170.698 255.999 170.698C208.888 170.698 170.697 208.889 170.697 256C170.697 303.11 208.888 341.301 255.999 341.301Z" fill="white"/>
<path d="M496.358 200.959C463.283 147.091 388.046 56.7139 256 56.7139C123.953 56.7139 48.7164 147.091 15.6407 200.959C-5.21357 234.69 -5.21357 277.31 15.6407 311.041C48.7164 364.91 123.953 455.287 256 455.287C388.046 455.287 463.283 364.91 496.358 311.041C517.213 277.31 517.213 234.69 496.358 200.959ZM256 383.952C185.334 383.952 128.047 326.666 128.047 256C128.047 185.334 185.334 128.047 256 128.047C326.665 128.047 383.952 185.334 383.952 256C383.881 326.637 326.636 383.881 256 383.952Z" fill="white"/>
</svg>
