<svg width="12" height="12" viewBox="0 0 12 12" fill="none" xmlns="http://www.w3.org/2000/svg">
<path d="M10.9993 9.5C11.5844 9.5 12.0489 10.0015 11.9959 10.584C11.9889 10.662 11.9809 10.7215 11.9724 10.75C11.7574 11.473 11.0873 12 10.2948 12H5.61968C5.85968 11.642 5.99969 11.212 5.99969 10.75C5.99969 10.0595 6.5592 9.5 7.24973 9.5H10.9993ZM0.750023 0C0.33601 0 0 0.336 0 0.75V1.25C0 1.9405 0.559517 2.5 1.25004 2.5H1.50005V0.75C1.50005 0.336 1.16404 0 0.750023 0ZM2.33107 0C2.43958 0.2275 2.50008 0.482 2.50008 0.75V10.6785C2.50008 11.3325 2.97059 11.928 3.62111 11.9935C4.36914 12.0685 5.00016 11.483 5.00016 10.75C5.00016 9.5075 6.00769 8.5 7.25023 8.5H10.0003V2C10.0003 0.8955 9.10478 0 8.00025 0H2.33107Z" fill="white"/>
</svg>
