<svg width="512" height="512" viewBox="0 0 512 512" fill="none" xmlns="http://www.w3.org/2000/svg">
<g clip-path="url(#clip0_1376_6)">
<path d="M478.763 255.745C462.615 255.888 449.045 267.918 446.967 283.933C431.582 389.051 333.894 461.793 228.776 446.408C123.659 431.023 50.9156 333.336 66.3008 228.218C81.6861 123.1 179.374 50.3568 284.491 65.742C320.323 70.9862 353.946 86.2383 381.494 109.745L357.364 133.875C349.025 142.216 349.027 155.737 357.368 164.075C361.387 168.093 366.842 170.343 372.525 170.327H470.456C482.25 170.327 491.81 160.767 491.81 148.973V51.0415C491.807 39.2478 482.245 29.6894 470.451 29.6914C464.791 29.6924 459.361 31.9416 455.358 35.9436L426.914 64.3877C321.091 -29.369 159.298 -19.5873 65.5401 86.2373C-28.2176 192.062 -18.4339 353.855 87.3897 447.612C193.213 541.37 355.007 531.587 448.764 425.763C481.768 388.51 503.199 342.444 510.432 293.201C513.263 275.571 501.266 258.984 483.636 256.153C482.025 255.894 480.396 255.758 478.763 255.745Z" fill="white"/>
</g>
<defs>
<clipPath id="clip0_1376_6">
<rect width="512" height="512" fill="white"/>
</clipPath>
</defs>
</svg>
