<svg width="13" height="13" viewBox="0 0 13 13" fill="none" xmlns="http://www.w3.org/2000/svg">
<path d="M12.523 0.477439C12.3288 0.280878 12.0871 0.137727 11.8214 0.0618165C11.5557 -0.0140939 11.2749 -0.0201978 11.0061 0.0440947L2.33832 1.86956C1.83915 1.93801 1.369 2.14445 0.980832 2.46563C0.592659 2.78681 0.301877 3.20998 0.141231 3.68747C-0.0194151 4.16497 -0.0435439 4.67782 0.0715619 5.16829C0.186668 5.65875 0.436436 6.10735 0.792739 6.46355L1.72345 7.39361C1.77382 7.44396 1.81377 7.50375 1.841 7.56956C1.86824 7.63537 1.88223 7.7059 1.88217 7.77712V9.49316C1.88337 9.73444 1.93892 9.97235 2.0447 10.1892L2.04036 10.193L2.05445 10.2071C2.21318 10.5262 2.47244 10.7843 2.7923 10.9416L2.80638 10.9557L2.81017 10.9514C3.02706 11.0571 3.265 11.1127 3.50631 11.1139H5.22253C5.36612 11.1138 5.50388 11.1706 5.60554 11.272L6.53571 12.2021C6.78519 12.4543 7.08213 12.6547 7.40941 12.7916C7.73669 12.9286 8.08784 12.9994 8.44263 13C8.73828 12.9996 9.03192 12.9513 9.31211 12.857C9.78529 12.7016 10.2056 12.4172 10.5257 12.0357C10.8458 11.6541 11.0529 11.1908 11.1237 10.6979L12.9521 2.01202C13.0197 1.74098 13.0157 1.45702 12.9405 1.18799C12.8653 0.918965 12.7214 0.674107 12.523 0.477439ZM2.49055 6.62876L1.5593 5.69869C1.34245 5.48709 1.19047 5.21803 1.12119 4.92309C1.05191 4.62815 1.0682 4.31957 1.16816 4.03357C1.26508 3.74015 1.44424 3.48074 1.68433 3.28619C1.92442 3.09164 2.21535 2.97014 2.52251 2.93613L11.1042 1.12962L2.96457 9.26945V7.77712C2.96539 7.56388 2.92392 7.35259 2.84255 7.15548C2.76119 6.95837 2.64155 6.77934 2.49055 6.62876ZM10.0592 10.5126C10.0176 10.8118 9.89341 11.0935 9.7006 11.326C9.50779 11.5586 9.25397 11.7328 8.96764 11.8291C8.68131 11.9254 8.3738 11.94 8.07962 11.8713C7.78545 11.8025 7.51626 11.6532 7.30227 11.44L6.37048 10.5083C6.22007 10.3571 6.04118 10.2372 5.84414 10.1555C5.64709 10.0739 5.43582 10.0321 5.22253 10.0327H3.73004L11.8707 1.89556L10.0592 10.5126Z" fill="white"/>
</svg>
