<svg width="18" height="16" viewBox="0 0 18 16" fill="none" xmlns="http://www.w3.org/2000/svg">
<path d="M0.099659 4.27636L17.5234 4.35709V3.63636C17.5223 2.67229 17.1373 1.74804 16.4529 1.06634C15.7685 0.384641 14.8405 0.00115481 13.8726 0H12.0268C11.687 0.000280976 11.3518 0.0789419 11.0477 0.229818L8.74328 1.38182C8.64144 1.43042 8.52982 1.45529 8.4169 1.45455H3.65042C2.82556 1.45618 2.02556 1.736 1.38078 2.24842C0.735992 2.76083 0.284428 3.47564 0.099659 4.27636ZM-0.000371933 5.73091V12.3636C0.000787735 13.3277 0.385796 14.252 1.0702 14.9337C1.75461 15.6154 2.68253 15.9988 3.65042 16H13.8726C14.8405 15.9988 15.7685 15.6154 16.4529 14.9337C17.1373 14.252 17.5223 13.3277 17.5234 12.3636V5.81164L-0.000371933 5.73091ZM5.8409 10.9091C5.8409 10.7162 5.91782 10.5312 6.05476 10.3948C6.19169 10.2584 6.37741 10.1818 6.57106 10.1818H8.03137V8.72727C8.03137 8.53439 8.1083 8.3494 8.24523 8.21301C8.38216 8.07662 8.56788 8 8.76153 8C8.95518 8 9.1409 8.07662 9.27783 8.21301C9.41476 8.3494 9.49169 8.53439 9.49169 8.72727V10.1818H10.952C11.1457 10.1818 11.3314 10.2584 11.4683 10.3948C11.6052 10.5312 11.6822 10.7162 11.6822 10.9091C11.6822 11.102 11.6052 11.287 11.4683 11.4234C11.3314 11.5597 11.1457 11.6364 10.952 11.6364H9.49169V13.0909C9.49169 13.2838 9.41476 13.4688 9.27783 13.6052C9.1409 13.7416 8.95518 13.8182 8.76153 13.8182C8.56788 13.8182 8.38216 13.7416 8.24523 13.6052C8.1083 13.4688 8.03137 13.2838 8.03137 13.0909V11.6364H6.57106C6.37741 11.6364 6.19169 11.5597 6.05476 11.4234C5.91782 11.287 5.8409 11.102 5.8409 10.9091Z" fill="white"/>
</svg>
