<svg width="17" height="17" viewBox="0 0 17 17" fill="none" xmlns="http://www.w3.org/2000/svg">
<g clip-path="url(#clip0_1252_49)">
<path d="M16.2914 3.1875C16.2914 2.6007 15.8157 2.125 15.2289 2.125H12.5542C12.1066 0.855213 10.9085 0.00431641 9.56219 0H7.43719C6.09083 0.00431641 4.89276 0.855213 4.44519 2.125H1.77051C1.18371 2.125 0.708008 2.6007 0.708008 3.1875C0.708008 3.7743 1.18371 4.25 1.77051 4.25H2.12469V13.1042C2.12469 15.2558 3.86891 17 6.02051 17H10.9788C13.1305 17 14.8747 15.2558 14.8747 13.1042V4.25H15.2289C15.8157 4.25 16.2914 3.7743 16.2914 3.1875ZM12.7497 13.1042C12.7497 14.0822 11.9569 14.875 10.9789 14.875H6.02051C5.04251 14.875 4.24969 14.0822 4.24969 13.1042V4.25H12.7497V13.1042Z" fill="#F15757"/>
<path d="M6.72852 12.75C7.31531 12.75 7.79102 12.2743 7.79102 11.6875V7.4375C7.79102 6.8507 7.31531 6.375 6.72852 6.375C6.14172 6.375 5.66602 6.8507 5.66602 7.4375V11.6875C5.66602 12.2743 6.14172 12.75 6.72852 12.75Z" fill="#F15757"/>
<path d="M10.2705 12.75C10.8573 12.75 11.333 12.2743 11.333 11.6875V7.4375C11.333 6.8507 10.8573 6.375 10.2705 6.375C9.68371 6.375 9.20801 6.8507 9.20801 7.4375V11.6875C9.20801 12.2743 9.68371 12.75 10.2705 12.75Z" fill="#F15757"/>
</g>
<defs>
<clipPath id="clip0_1252_49">
<rect width="17" height="17" fill="white"/>
</clipPath>
</defs>
</svg>
