<svg width="17" height="17" viewBox="0 0 17 17" fill="none" xmlns="http://www.w3.org/2000/svg">
<g clip-path="url(#clip0_1252_39)">
<path d="M0.830167 13.5431C0.298777 14.0743 0.000160473 14.7949 0 15.5463L0 17.0005H1.45421C2.20559 17.0003 2.92615 16.7017 3.45738 16.1703L12.9087 6.71901L10.2815 4.0918L0.830167 13.5431Z" fill="white"/>
<path d="M16.3945 0.605208C16.2221 0.432541 16.0172 0.295564 15.7918 0.202107C15.5663 0.10865 15.3246 0.0605469 15.0806 0.0605469C14.8365 0.0605469 14.5949 0.10865 14.3694 0.202107C14.1439 0.295564 13.9391 0.432541 13.7666 0.605208L11.2832 3.08933L13.9104 5.71654L16.3945 3.23312C16.5672 3.06064 16.7042 2.85581 16.7976 2.63035C16.8911 2.40489 16.9392 2.16323 16.9392 1.91917C16.9392 1.67511 16.8911 1.43344 16.7976 1.20798C16.7042 0.982522 16.5672 0.777694 16.3945 0.605208Z" fill="white"/>
</g>
<defs>
<clipPath id="clip0_1252_39">
<rect width="17" height="17" fill="white"/>
</clipPath>
</defs>
</svg>
