<svg width="17" height="17" viewBox="0 0 17 17" fill="none" xmlns="http://www.w3.org/2000/svg">
<g clip-path="url(#clip0_1252_34)">
<path d="M7.37329 13.8728C6.24842 15.0392 4.41653 15.1468 3.16287 14.12C2.41626 13.4736 2.03489 12.5017 2.14268 11.52C2.23604 10.7962 2.57431 10.1262 3.10124 9.6213L5.1388 7.58235C5.55365 7.16737 5.55365 6.49468 5.1388 6.07969C4.72381 5.66484 4.05113 5.66484 3.63614 6.07969L1.64182 8.07474C0.732747 8.95137 0.159454 10.1187 0.0215359 11.374C-0.236069 14.2014 1.84712 16.7023 4.6745 16.9599C6.19286 17.0983 7.69432 16.5554 8.7732 15.4782L10.9043 13.3478C11.3191 12.9328 11.3191 12.2602 10.9043 11.8452C10.4893 11.4303 9.8166 11.4303 9.40162 11.8452L7.37329 13.8728Z" fill="white"/>
<path d="M14.9891 1.03869C12.8734 -0.515707 9.93553 -0.272017 8.1049 1.60972L6.09922 3.6161C5.68437 4.03109 5.68437 4.70377 6.09922 5.11876C6.51421 5.53361 7.1869 5.53361 7.60188 5.11876L9.63944 3.08332C10.7397 1.94534 12.52 1.81715 13.7719 2.78577C15.0605 3.84242 15.2486 5.74362 14.1919 7.03225C14.1301 7.10767 14.0647 7.18003 13.9958 7.2491L11.8647 9.38018C11.4498 9.79517 11.4498 10.4679 11.8647 10.8828C12.2797 11.2977 12.9524 11.2977 13.3674 10.8828L15.4984 8.75176C17.5047 6.73908 17.4995 3.48107 15.4868 1.47479C15.3305 1.31891 15.1642 1.17325 14.9891 1.03869Z" fill="white"/>
<path d="M6.09935 9.38166L9.40119 6.07982C9.81621 5.6648 10.4891 5.6648 10.9041 6.07982C11.3191 6.49483 11.3191 7.16769 10.9041 7.58271L7.60224 10.8845C7.18722 11.2996 6.51437 11.2996 6.09935 10.8845C5.68433 10.4695 5.68433 9.79667 6.09935 9.38166Z" fill="white"/>
</g>
<defs>
<clipPath id="clip0_1252_34">
<rect width="17" height="17" fill="white"/>
</clipPath>
</defs>
</svg>
