<svg width="15" height="15" viewBox="0 0 15 15" fill="none" xmlns="http://www.w3.org/2000/svg">
<g clip-path="url(#clip0_1252_59)">
<path d="M12.8075 4.98081L6.84625 0.609555C6.38065 0.268608 5.82972 0.0632504 5.25454 0.0162445C4.67937 -0.0307614 4.10241 0.0824207 3.58762 0.343245C3.07283 0.60407 2.64032 1.00235 2.33803 1.49393C2.03574 1.98552 1.87548 2.55121 1.875 3.12831V11.8752C1.87411 12.4528 2.03353 13.0194 2.33553 13.5118C2.63754 14.0043 3.07027 14.4032 3.58556 14.6643C4.10086 14.9254 4.67849 15.0383 5.25417 14.9906C5.82986 14.9429 6.381 14.7363 6.84625 14.3939L12.8075 10.0227C13.2031 9.7324 13.5247 9.35306 13.7464 8.91537C13.9681 8.47768 14.0836 7.99394 14.0836 7.50331C14.0836 7.01267 13.9681 6.52893 13.7464 6.09124C13.5247 5.65355 13.2031 5.27421 12.8075 4.98393V4.98081Z" fill="white"/>
</g>
<defs>
<clipPath id="clip0_1252_59">
<rect width="15" height="15" fill="white"/>
</clipPath>
</defs>
</svg>
