<svg width="470" height="512" viewBox="0 0 470 512" fill="none" xmlns="http://www.w3.org/2000/svg">
<path d="M0.333202 425.557L0.333198 86.4427C0.247578 71.7004 3.95436 57.1838 11.0975 44.2873C18.2406 31.3909 28.58 20.5479 41.1225 12.8001C53.3642 5.14804 67.3677 0.771925 81.7882 0.0919951C96.2087 -0.587935 110.562 2.45115 123.469 8.91741L422.477 178.773C436.733 186.083 448.687 197.195 457.015 210.88C465.344 224.566 469.722 240.289 469.664 256.309C469.607 272.329 465.116 288.02 456.69 301.645C448.263 315.27 436.23 326.297 421.923 333.504L124.515 502.507C111.512 509.206 96.995 512.421 82.3798 511.837C67.7645 511.254 53.55 506.893 41.1226 499.179C28.5832 491.433 18.2457 480.593 11.1027 467.701C3.95979 454.808 0.251248 440.296 0.333202 425.557Z" fill="white"/>
</svg>
