<svg width="470" height="512" viewBox="0 0 470 512" fill="none" xmlns="http://www.w3.org/2000/svg">
<path d="M469.667 86.4426L469.667 425.557C469.752 440.3 466.046 454.816 458.903 467.713C451.759 480.609 441.42 491.452 428.877 499.2C416.636 506.852 402.632 511.228 388.212 511.908C373.791 512.588 359.438 509.549 346.531 503.083L47.5228 333.227C33.2673 325.917 21.3133 314.805 12.9847 301.12C4.65612 287.434 0.278081 271.711 0.335508 255.691C0.392934 239.671 4.88358 223.98 13.31 210.355C21.7365 196.73 33.7699 185.703 48.0774 178.496L345.485 9.49322C358.488 2.79413 373.005 -0.420535 387.62 0.162728C402.235 0.745991 416.45 5.10727 428.877 12.8212C441.417 20.5672 451.754 31.4067 458.897 44.2992C466.04 57.1916 469.749 71.7038 469.667 86.4426Z" fill="white"/>
</svg>
