<svg width="658" height="658" viewBox="0 0 658 658" fill="none" xmlns="http://www.w3.org/2000/svg">
<rect width="658" height="658" rx="30" fill="#4F59B4"/>
<rect x="346.189" y="60" width="253.501" height="253.501" rx="20" fill="#FFB938"/>
<rect x="377.877" y="123.375" width="31.6877" height="31.6877" fill="white"/>
<rect x="409.564" y="91.6877" width="31.6877" height="31.6877" fill="white"/>
<rect x="377.877" y="91.6877" width="31.6877" height="31.6877" fill="white"/>
<rect x="92.6877" y="408.564" width="31.6877" height="31.6877" fill="white"/>
<rect x="124.375" y="376.876" width="31.6877" height="31.6877" fill="white"/>
<rect x="92.6877" y="376.876" width="31.6877" height="31.6877" fill="white"/>
<rect x="61" y="345.189" width="253.501" height="253.501" rx="20" fill="#FFB938"/>
<rect x="92.6877" y="408.564" width="31.6877" height="31.6877" fill="white"/>
<rect x="124.375" y="376.877" width="31.6877" height="31.6877" fill="white"/>
<rect x="92.6877" y="376.877" width="31.6877" height="31.6877" fill="white"/>
<rect x="61" y="60" width="253.501" height="253.501" rx="20" fill="#D82800"/>
<rect x="92.6874" y="91.6882" width="31.6877" height="31.6877" fill="white"/>
<rect x="92.6874" y="123.375" width="31.6877" height="31.6877" fill="white"/>
<rect x="124.375" y="91.6882" width="31.6877" height="31.6877" fill="white"/>
<rect x="347" y="345" width="253.501" height="253.501" rx="20" fill="#D82800"/>
<rect x="347" y="345" width="31.6877" height="31.6877" rx="15.8438" fill="white"/>
<rect x="347" y="359" width="32" height="18" fill="white"/>
<rect x="347" y="359" width="32" height="18" fill="white"/>
<rect x="347" y="359" width="32" height="18" fill="white"/>
<rect x="379" y="345" width="32" height="18" transform="rotate(90 379 345)" fill="white"/>
<rect x="379" y="345" width="32" height="18" transform="rotate(90 379 345)" fill="white"/>
<rect x="379" y="345" width="32" height="18" transform="rotate(90 379 345)" fill="white"/>
<rect x="378.687" y="376.688" width="31.6877" height="31.6877" fill="white"/>
<rect x="378.687" y="408.375" width="31.6877" height="31.6877" fill="white"/>
<rect x="410.375" y="376.688" width="31.6877" height="31.6877" fill="white"/>
<rect x="61" y="345" width="31.6877" height="31.6877" rx="15.8438" fill="white"/>
<rect x="61" y="359" width="32" height="18" fill="white"/>
<rect x="61" y="359" width="32" height="18" fill="white"/>
<rect x="61" y="359" width="32" height="18" fill="white"/>
<rect x="93" y="345" width="32" height="18" transform="rotate(90 93 345)" fill="white"/>
<rect x="93" y="345" width="32" height="18" transform="rotate(90 93 345)" fill="white"/>
<rect x="93" y="345" width="32" height="18" transform="rotate(90 93 345)" fill="white"/>
<rect x="61" y="60" width="31.6877" height="31.6877" rx="15.8438" fill="white"/>
<rect x="61" y="74" width="32" height="18" fill="white"/>
<rect x="61" y="74" width="32" height="18" fill="white"/>
<rect x="61" y="74" width="32" height="18" fill="white"/>
<rect x="93" y="60" width="32" height="18" transform="rotate(90 93 60)" fill="white"/>
<rect x="93" y="60" width="32" height="18" transform="rotate(90 93 60)" fill="white"/>
<rect x="93" y="60" width="32" height="18" transform="rotate(90 93 60)" fill="white"/>
<rect x="346" y="60" width="31.6877" height="31.6877" rx="15.8438" fill="white"/>
<rect x="346" y="74" width="32" height="18" fill="white"/>
<rect x="346" y="74" width="32" height="18" fill="white"/>
<rect x="346" y="74" width="32" height="18" fill="white"/>
<rect x="378" y="60" width="32" height="18" transform="rotate(90 378 60)" fill="white"/>
<rect x="378" y="60" width="32" height="18" transform="rotate(90 378 60)" fill="white"/>
<rect x="378" y="60" width="32" height="18" transform="rotate(90 378 60)" fill="white"/>
</svg>
