<svg width="13" height="13" viewBox="0 0 13 13" fill="none" xmlns="http://www.w3.org/2000/svg">
<path fill-rule="evenodd" clip-rule="evenodd" d="M6.5 0C10.0899 0 13 2.9101 13 6.5C13 10.0899 10.0899 13 6.5 13C2.9101 13 0 10.0899 0 6.5C0 2.9101 2.9101 0 6.5 0ZM3.62429 6.67293C3.7115 6.16728 4.28865 5.88575 4.74405 6.1597C4.78535 6.18434 4.82476 6.21359 4.86146 6.24718L4.86498 6.25056C5.06932 6.44638 5.29831 6.65018 5.52527 6.85222L5.72 7.02704L8.03062 4.60335C8.1686 4.45886 8.26949 4.36543 8.47654 4.31884C9.18545 4.16244 9.68392 5.02897 9.18152 5.55858L6.30175 8.58081C6.03051 8.8702 5.54572 8.8966 5.25417 8.62022C5.08706 8.46503 4.90533 8.30714 4.72157 8.14775C4.40334 7.87123 4.07875 7.58916 3.81415 7.30993C3.6553 7.15122 3.58678 6.89135 3.62429 6.67293Z" fill="#4ADE6B"/>
</svg>
