<svg width="13" height="13" viewBox="0 0 13 13" fill="none" xmlns="http://www.w3.org/2000/svg">
<path fill-rule="evenodd" clip-rule="evenodd" d="M6.50005 0C10.09 0 13 2.91011 13 6.49995C13 10.0898 10.09 12.9999 6.50005 12.9999C2.91011 13 0 10.0899 0 6.49995C0 2.91 2.91011 0 6.50005 0ZM7.77076 4.14199C8.06169 3.8465 8.5347 3.84523 8.82723 4.13913C9.11965 4.43282 9.12081 4.91059 8.83008 5.20586L7.55377 6.50058L8.83135 7.79647C9.12007 8.08952 9.11584 8.56422 8.82289 8.85675C8.52952 9.14927 8.05799 9.14853 7.7697 8.85537L6.50069 7.56858L5.22924 8.85801C4.93831 9.1535 4.4654 9.15477 4.17277 8.86087C3.88046 8.56718 3.87908 8.08931 4.16992 7.79403L5.44633 6.49942L4.16865 5.20353C3.88004 4.91059 3.88416 4.43588 4.17732 4.14325C4.47058 3.85073 4.94211 3.85147 5.2303 4.14463L6.49952 5.43163L7.77076 4.14199Z" fill="#DC4E4E"/>
</svg>
