<svg width="32" height="29" viewBox="0 0 32 29" fill="none" xmlns="http://www.w3.org/2000/svg">
<path d="M0.738441 7.51465C0.738441 7.73594 0.738038 7.91179 0.706358 8.09093C0.738038 8.41761 0.811186 8.81881 0.885104 9.22979C0.990701 9.60915 1.14099 9.97058 1.32051 10.3183C1.46835 10.5712 1.64515 10.8225 1.82466 11.0227C2.10978 11.3283 2.40798 11.6113 2.74589 11.8642C3.04156 12.1173 3.37643 12.3409 3.70378 12.5411C4.05225 12.773 4.46665 12.9731 4.86792 13.1312C5.17415 13.2787 5.49886 13.405 5.85789 13.4788C6.25916 13.6052 6.69449 13.6776 7.12744 13.7303C7.43367 13.7619 7.73925 13.7834 8.03492 13.7623C8.14052 13.7623 8.19254 13.708 8.21366 13.6343C8.21367 13.55 8.21605 13.5086 8.16325 13.4559C8.08933 13.3505 8.01439 13.2566 7.96159 13.1723L6.2933 11.1828L12.4486 11.6859C12.9343 11.7386 13.4111 11.7409 13.8969 11.6356C14.2981 11.5829 14.6763 11.4854 15.0564 11.3062C15.4894 11.106 15.996 10.8548 16.4818 10.6019L18.3747 15.6787C18.9554 15.8368 19.5676 16.0072 20.1484 16.1864C20.0216 16.1337 20.6532 16.3662 21.3079 16.598C21.9943 16.8509 22.458 17.0491 22.912 17.2704C23.7991 17.7024 24.6568 18.1892 25.5016 18.7477C25.9239 19.0216 26.3876 19.3481 26.8628 19.6853C27.1479 19.9066 27.4521 20.16 27.7794 20.4445L28.7236 21.3501C29.1987 21.8032 29.6524 22.3389 30.0114 22.8869C29.8319 22.9396 29.6487 22.9943 29.4798 23.0469C29.427 23.068 29.3534 23.099 29.269 23.1201C28.8466 23.2466 28.5412 23.3212 28.2561 23.4266C28.0554 23.5003 27.8563 23.5723 27.6557 23.6461C27.191 23.8569 26.7366 24.0253 26.3036 24.2361C26.1347 24.3099 25.9561 24.3869 25.7765 24.4922C25.7026 24.5344 25.5938 24.5859 25.5199 24.6386C25.5199 24.6702 25.5016 24.6678 25.5016 24.6889C25.5016 24.6889 25.4695 24.7122 25.4695 24.7438C25.4483 24.7649 25.4466 24.7941 25.4466 24.7941C25.4466 24.8679 25.5006 24.924 25.5428 24.945C25.849 25.0188 26.1761 25.0703 26.4824 25.0914C26.9681 25.1757 27.4216 25.2696 27.8757 25.375C28.3403 25.4698 28.7948 25.6299 29.2277 25.7774C29.5234 25.8512 29.8624 25.9739 30.1581 26.0793C30.4432 26.1847 30.7159 26.28 30.9693 26.3537C31.0432 26.3853 31.0977 26.4062 31.0977 26.4589C31.0977 26.5116 31.0454 26.5321 31.0243 26.5321C31.0032 26.5321 31.0014 26.5321 31.0014 26.5321L24.1999 27.0169C24.126 27.0169 24.0538 27.0398 23.9799 27.0398C23.8532 27.0398 23.7262 27.0169 23.5995 27.0169C23.1666 26.9642 22.7559 26.8608 22.3758 26.6922C21.8689 26.4604 21.4342 26.1572 21.0329 25.8095C20.6739 25.4512 20.3496 25.0893 20.075 24.6889C19.8216 24.3095 19.6408 23.8984 19.493 23.4769C19.3346 23.0975 19.2387 22.6667 19.1859 22.2557C19.1331 21.929 19.1125 21.5821 19.1125 21.2449C17.423 21.0974 15.7733 20.8959 14.126 20.664C11.6339 20.232 9.17739 19.38 6.87537 18.1577C6.24178 17.831 5.60413 17.5052 4.99166 17.1469C4.59039 16.9256 4.13673 16.6411 3.70378 16.3145C3.32363 16.0089 2.96783 15.7117 2.64048 15.4272C2.28144 15.1005 1.93341 14.7221 1.5955 14.3112C0.993596 13.5841 0.559256 12.7198 0.284703 11.7819C0.179105 11.3604 0.106544 10.927 0.0326258 10.4738C0.0326258 10.3158 0.000543321 10.1682 0.000543321 9.98902C0.000543321 9.7888 0.0298392 9.55807 0.0509587 9.35785C0.124875 8.94688 0.233114 8.56634 0.38095 8.18698C0.486546 7.96569 0.611724 7.73594 0.738441 7.51465ZM25.9461 20.3256C25.4709 20.3256 25.0799 20.7281 25.0799 21.2129C25.0799 21.7082 25.4709 22.1002 25.9461 22.1002C26.4213 22.1002 26.8124 21.7082 26.8124 21.2129C26.8124 20.7281 26.4213 20.3256 25.9461 20.3256Z" fill="#D82800"/>
<path d="M7.02065 23.9524C9.56554 25.4488 12.3744 26.4393 15.3206 26.8714L17.3692 27.04L19.46 27.1664L21.667 27.1453C21.0862 26.7871 20.5582 26.3655 20.0936 25.8808L19.6395 25.3539C19.2594 24.8692 18.9531 24.3634 18.7525 23.8049C18.6575 23.4466 18.573 23.1199 18.4991 22.7722L18.3724 21.9607L16.1759 21.7289L14.4547 21.5076L13.2931 21.3285C12.6279 21.202 11.9732 21.0229 11.3079 20.8227L9.18539 20.0639L7.53808 19.3263L5.85908 18.4938L4.28568 17.6297L3.05019 16.7972L1.47679 15.3325L0.304663 13.7307L0.378581 14.3419C0.684813 16.3125 1.424 18.2093 2.51165 19.9059C3.25083 21.0756 4.19064 22.0556 5.27829 22.8143L5.85908 23.2253L7.02065 23.9524Z" fill="#FFB938"/>
<path d="M2.8811 4.77363C3.36699 4.42588 3.87372 4.12028 4.43338 3.86738L13.5359 0.0948407L13.6837 0.0210763C13.7154 0.0210763 13.7365 0 13.7682 0C13.7893 0 13.8421 0.0210757 13.8632 0.0526891C13.916 0.0948404 13.916 0.14753 13.916 0.200219C13.916 0.252908 13.916 0.305597 13.8632 0.326672L11.3289 3.61447L10.7692 4.37319C10.6425 4.6261 10.5897 4.87901 10.5686 5.13191C10.5686 5.16353 10.5686 5.1846 10.5686 5.20568C10.5686 5.43751 10.6214 5.69042 10.6953 5.92225L10.9699 6.50183L11.2233 6.88119C10.6742 6.77581 10.1673 6.68097 9.62876 6.59667C8.94238 6.47022 8.21376 6.37538 7.45346 6.34376C6.81988 6.32269 6.22853 6.30161 5.62663 6.30161C5.17256 6.32269 4.66569 6.34376 4.15883 6.39645C3.82092 6.44914 3.52524 6.50183 3.21901 6.57559C2.9867 6.64936 2.75438 6.77581 2.55375 6.90227C2.2264 7.1341 1.97297 7.43969 1.82513 7.78744C1.69841 8.07196 1.61393 8.39864 1.59281 8.70423C1.48722 8.41971 1.44498 8.14573 1.44498 7.84013C1.44498 7.78744 1.44498 7.76637 1.44498 7.71368C1.4661 7.33432 1.5189 6.97603 1.61393 6.59667C1.77233 6.19623 1.97296 5.81687 2.20528 5.4902C2.40591 5.23729 2.62767 5.00546 2.85998 4.80524C2.85998 4.77363 2.8811 4.77363 2.8811 4.77363Z" fill="#FFB938"/>
<path d="M9.55458 26.1232C9.07939 25.923 8.62532 25.7017 8.19237 25.4488C8.13957 25.4699 8.06566 25.4699 8.01286 25.4699C7.70663 25.4699 7.4004 25.4488 7.10472 25.3961C6.21771 25.3224 5.33069 25.1959 4.46479 25.0378C5.40461 25.6701 6.29162 26.3551 7.10472 27.0927C7.81222 27.6934 8.44581 28.3573 9.07939 29.0001C9.25891 29.0001 9.40674 28.9474 9.53346 28.9052C10.0931 28.6523 10.6 28.3783 11.1069 28.0727C11.5926 27.7987 12.015 27.4721 12.374 27.0927C12.0995 26.9873 11.8144 26.8925 11.5398 26.8082C10.8534 26.6396 10.1987 26.4078 9.55458 26.1232Z" fill="#D82800"/>
</svg>
