<svg width="32" height="29" viewBox="0 0 32 29" fill="none" xmlns="http://www.w3.org/2000/svg">
<path d="M0.737464 7.51465C0.737464 7.73594 0.737061 7.91179 0.705382 8.09093C0.737061 8.41761 0.810209 8.81881 0.884127 9.22979C0.989725 9.60915 1.14002 9.97058 1.31953 10.3183C1.46737 10.5712 1.64417 10.8225 1.82369 11.0227C2.1088 11.3283 2.407 11.6113 2.74491 11.8642C3.04058 12.1173 3.37545 12.3409 3.7028 12.5411C4.05128 12.773 4.46567 12.9731 4.86694 13.1312C5.17317 13.2787 5.49788 13.405 5.85692 13.4788C6.25819 13.6052 6.69352 13.6776 7.12647 13.7303C7.4327 13.7619 7.73827 13.7834 8.03394 13.7623C8.13954 13.7623 8.19157 13.708 8.21269 13.6343C8.21269 13.55 8.21507 13.5086 8.16227 13.4559C8.08835 13.3505 8.01341 13.2566 7.96061 13.1723L6.29232 11.1828L12.4476 11.6859C12.9333 11.7386 13.4101 11.7409 13.8959 11.6356C14.2971 11.5829 14.6753 11.4854 15.0554 11.3062C15.4884 11.106 15.9951 10.8548 16.4808 10.6019L18.3737 15.6787C18.9545 15.8368 19.5666 16.0072 20.1474 16.1864C20.0207 16.1337 20.6522 16.3662 21.3069 16.598C21.9933 16.8509 22.457 17.0491 22.9111 17.2704C23.7981 17.7024 24.6558 18.1892 25.5006 18.7477C25.923 19.0216 26.3866 19.3481 26.8618 19.6853C27.1469 19.9066 27.4511 20.16 27.7784 20.4445L28.7226 21.3501C29.1978 21.8032 29.6514 22.3389 30.0105 22.8869C29.8309 22.9396 29.6478 22.9943 29.4788 23.0469C29.426 23.068 29.3525 23.099 29.268 23.1201C28.8456 23.2466 28.5402 23.3212 28.2551 23.4266C28.0545 23.5003 27.8553 23.5723 27.6547 23.6461C27.1901 23.8569 26.7356 24.0253 26.3026 24.2361C26.1337 24.3099 25.9551 24.3869 25.7756 24.4922C25.7017 24.5344 25.5928 24.5859 25.5189 24.6386C25.5189 24.6702 25.5006 24.6678 25.5006 24.6889C25.5006 24.6889 25.4685 24.7122 25.4685 24.7438C25.4474 24.7649 25.4456 24.7941 25.4456 24.7941C25.4456 24.8679 25.4996 24.924 25.5418 24.945C25.8481 25.0188 26.1752 25.0703 26.4814 25.0914C26.9671 25.1757 27.4206 25.2696 27.8747 25.375C28.3393 25.4698 28.7938 25.6299 29.2267 25.7774C29.5224 25.8512 29.8614 25.9739 30.1571 26.0793C30.4422 26.1847 30.7149 26.28 30.9683 26.3537C31.0423 26.3853 31.0967 26.4062 31.0967 26.4589C31.0967 26.5116 31.0445 26.5321 31.0233 26.5321C31.0022 26.5321 31.0004 26.5321 31.0004 26.5321L24.1989 27.0169C24.125 27.0169 24.0529 27.0398 23.9789 27.0398C23.8522 27.0398 23.7253 27.0169 23.5985 27.0169C23.1656 26.9642 22.755 26.8608 22.3748 26.6922C21.868 26.4604 21.4332 26.1572 21.0319 25.8095C20.6729 25.4512 20.3486 25.0893 20.074 24.6889C19.8206 24.3095 19.6398 23.8984 19.492 23.4769C19.3336 23.0975 19.2377 22.6667 19.1849 22.2557C19.1321 21.929 19.1116 21.5821 19.1116 21.2449C17.422 21.0974 15.7724 20.8959 14.125 20.664C11.6329 20.232 9.17641 19.38 6.87439 18.1577C6.2408 17.831 5.60315 17.5052 4.99069 17.1469C4.58942 16.9256 4.13575 16.6411 3.7028 16.3145C3.32265 16.0089 2.96685 15.7117 2.6395 15.4272C2.28047 15.1005 1.93244 14.7221 1.59453 14.3112C0.99262 13.5841 0.558279 12.7198 0.283726 11.7819C0.178129 11.3604 0.105567 10.927 0.0316493 10.4738C0.0316493 10.3158 -0.000433241 10.1682 -0.000433241 9.98902C-0.000433241 9.7888 0.0288627 9.55807 0.0499821 9.35785C0.123899 8.94688 0.232137 8.56634 0.379974 8.18698C0.485569 7.96569 0.610748 7.73594 0.737464 7.51465ZM25.9451 20.3256C25.47 20.3256 25.0789 20.7281 25.0789 21.2129C25.0789 21.7082 25.47 22.1002 25.9451 22.1002C26.4203 22.1002 26.8114 21.7082 26.8114 21.2129C26.8114 20.7281 26.4203 20.3256 25.9451 20.3256Z" fill="#D82800"/>
<path d="M7.01967 23.9524C9.56457 25.4488 12.3735 26.4393 15.3196 26.8714L17.3682 27.04L19.459 27.1664L21.666 27.1453C21.0852 26.7871 20.5572 26.3655 20.0926 25.8808L19.6385 25.3539C19.2584 24.8692 18.9522 24.3634 18.7515 23.8049C18.6565 23.4466 18.572 23.1199 18.4981 22.7722L18.3714 21.9607L16.175 21.7289L14.4537 21.5076L13.2922 21.3285C12.6269 21.202 11.9722 21.0229 11.3069 20.8227L9.18442 20.0639L7.5371 19.3263L5.8581 18.4938L4.28471 17.6297L3.04922 16.7972L1.47582 15.3325L0.303687 13.7307L0.377605 14.3419C0.683837 16.3125 1.42302 18.2093 2.51067 19.9059C3.24985 21.0756 4.18966 22.0556 5.27732 22.8143L5.8581 23.2253L7.01967 23.9524Z" fill="#FFB938"/>
<path d="M2.8811 4.77363C3.36699 4.42588 3.87372 4.12028 4.43338 3.86738L13.5359 0.0948407L13.6837 0.0210763C13.7154 0.0210763 13.7365 0 13.7682 0C13.7893 0 13.8421 0.0210757 13.8632 0.0526891C13.916 0.0948404 13.916 0.14753 13.916 0.200219C13.916 0.252908 13.916 0.305597 13.8632 0.326672L11.3289 3.61447L10.7692 4.37319C10.6425 4.6261 10.5897 4.87901 10.5686 5.13191C10.5686 5.16353 10.5686 5.1846 10.5686 5.20568C10.5686 5.43751 10.6214 5.69042 10.6953 5.92225L10.9699 6.50183L11.2233 6.88119C10.6742 6.77581 10.1673 6.68097 9.62876 6.59667C8.94238 6.47022 8.21376 6.37538 7.45346 6.34376C6.81988 6.32269 6.22853 6.30161 5.62663 6.30161C5.17256 6.32269 4.66569 6.34376 4.15883 6.39645C3.82092 6.44914 3.52524 6.50183 3.21901 6.57559C2.9867 6.64936 2.75438 6.77581 2.55375 6.90227C2.2264 7.1341 1.97297 7.43969 1.82513 7.78744C1.69841 8.07196 1.61393 8.39864 1.59281 8.70423C1.48722 8.41971 1.44498 8.14573 1.44498 7.84013C1.44498 7.78744 1.44498 7.76637 1.44498 7.71368C1.4661 7.33432 1.5189 6.97603 1.61393 6.59667C1.77233 6.19623 1.97296 5.81687 2.20528 5.4902C2.40591 5.23729 2.62767 5.00546 2.85998 4.80524C2.85998 4.77363 2.8811 4.77363 2.8811 4.77363Z" fill="#FFB938"/>
<path d="M9.55458 26.1232C9.07939 25.923 8.62532 25.7017 8.19237 25.4488C8.13957 25.4699 8.06566 25.4699 8.01286 25.4699C7.70663 25.4699 7.4004 25.4488 7.10472 25.3961C6.21771 25.3224 5.33069 25.1959 4.46479 25.0378C5.40461 25.6701 6.29162 26.3551 7.10472 27.0927C7.81222 27.6934 8.44581 28.3573 9.07939 29.0001C9.25891 29.0001 9.40674 28.9474 9.53346 28.9052C10.0931 28.6523 10.6 28.3783 11.1069 28.0727C11.5926 27.7987 12.015 27.4721 12.374 27.0927C12.0995 26.9873 11.8144 26.8925 11.5398 26.8082C10.8534 26.6396 10.1987 26.4078 9.55458 26.1232Z" fill="#D82800"/>
</svg>
