<svg width="31" height="31" viewBox="0 0 31 31" fill="none" xmlns="http://www.w3.org/2000/svg">
<path d="M30.4791 14.9345L26.6634 11.1537C28.4689 10.251 29.5651 8.36029 29.4511 6.34407C29.3359 3.54628 26.9759 1.3717 24.1795 1.48698C22.321 1.56353 20.654 2.65221 19.8365 4.32351L16.1196 0.505527C15.431 -0.168509 14.3302 -0.168509 13.6416 0.505527L9.78834 4.33591C9.54395 4.57546 9.53992 4.9678 9.77936 5.21231C9.85679 5.29133 9.95405 5.34836 10.0609 5.37718C10.9282 5.60465 11.6874 6.13179 12.2044 6.8647C13.1683 8.25833 13.1132 10.1174 12.0681 11.4512C10.7656 13.1089 8.3666 13.3962 6.70976 12.0931C6.05681 11.5792 5.58909 10.8665 5.37754 10.0629C5.28864 9.73253 4.94885 9.53636 4.61835 9.62531C4.51148 9.65413 4.41422 9.71084 4.33679 9.79017L0.5207 13.633C-0.163532 14.3039 -0.174992 15.4025 0.495611 16.0871C0.503974 16.0954 0.512337 16.1038 0.5207 16.1122L4.33679 19.831C1.84952 21.1149 0.873502 24.1727 2.15679 26.6612C3.44007 29.1497 6.49634 30.1262 8.98361 28.8423C9.91905 28.3592 10.681 27.5971 11.1636 26.6612L14.8806 30.4789C15.5512 31.1638 16.6492 31.1749 17.3335 30.5043C17.3418 30.4959 17.3502 30.4873 17.3586 30.4789L21.1867 26.6488C21.4311 26.4093 21.4355 26.0169 21.1957 25.7724C21.1183 25.6931 21.0213 25.6364 20.9145 25.6079C20.0469 25.3804 19.2877 24.8529 18.771 24.12C17.8071 22.7267 17.8622 20.8673 18.907 19.5335C20.2095 17.8758 22.6088 17.5885 24.2656 18.8917C24.9186 19.4055 25.3863 20.1179 25.5975 20.9218C25.6558 21.1332 25.8202 21.2981 26.0312 21.3557C26.2443 21.4115 26.4704 21.3501 26.6259 21.1945L30.4791 17.3518C31.1637 16.6811 31.1748 15.5822 30.5045 14.8977C30.4962 14.8893 30.4875 14.8809 30.4791 14.8726V14.9345Z" fill="white"/>
</svg>
