<svg width="33" height="12" viewBox="0 0 33 12" fill="none" xmlns="http://www.w3.org/2000/svg">
<rect width="33" height="12" rx="3" fill="#DB2929"/>
<path d="M4.498 8V3.8H6.316C6.692 3.8 7.016 3.862 7.288 3.986C7.56 4.106 7.77 4.28 7.918 4.508C8.066 4.736 8.14 5.008 8.14 5.324C8.14 5.636 8.066 5.906 7.918 6.134C7.77 6.358 7.56 6.53 7.288 6.65C7.016 6.77 6.692 6.83 6.316 6.83H5.038L5.47 6.404V8H4.498ZM7.168 8L6.118 6.476H7.156L8.218 8H7.168ZM5.47 6.512L5.038 6.056H6.262C6.562 6.056 6.786 5.992 6.934 5.864C7.082 5.732 7.156 5.552 7.156 5.324C7.156 5.092 7.082 4.912 6.934 4.784C6.786 4.656 6.562 4.592 6.262 4.592H5.038L5.47 4.13V6.512ZM10.4461 8.048C10.0781 8.048 9.75411 7.976 9.47411 7.832C9.19811 7.688 8.98411 7.492 8.83211 7.244C8.68011 6.992 8.60411 6.706 8.60411 6.386C8.60411 6.062 8.67811 5.776 8.82611 5.528C8.97811 5.276 9.18411 5.08 9.44411 4.94C9.70411 4.796 9.99811 4.724 10.3261 4.724C10.6421 4.724 10.9261 4.792 11.1781 4.928C11.4341 5.06 11.6361 5.252 11.7841 5.504C11.9321 5.752 12.0061 6.05 12.0061 6.398C12.0061 6.434 12.0041 6.476 12.0001 6.524C11.9961 6.568 11.9921 6.61 11.9881 6.65H9.36611V6.104H11.4961L11.1361 6.266C11.1361 6.098 11.1021 5.952 11.0341 5.828C10.9661 5.704 10.8721 5.608 10.7521 5.54C10.6321 5.468 10.4921 5.432 10.3321 5.432C10.1721 5.432 10.0301 5.468 9.90611 5.54C9.78611 5.608 9.69211 5.706 9.62411 5.834C9.55611 5.958 9.52211 6.106 9.52211 6.278V6.422C9.52211 6.598 9.56011 6.754 9.63611 6.89C9.71611 7.022 9.82611 7.124 9.96611 7.196C10.1101 7.264 10.2781 7.298 10.4701 7.298C10.6421 7.298 10.7921 7.272 10.9201 7.22C11.0521 7.168 11.1721 7.09 11.2801 6.986L11.7781 7.526C11.6301 7.694 11.4441 7.824 11.2201 7.916C10.9961 8.004 10.7381 8.048 10.4461 8.048ZM16.7633 4.724C17.0193 4.724 17.2453 4.776 17.4413 4.88C17.6413 4.98 17.7973 5.136 17.9093 5.348C18.0253 5.556 18.0833 5.824 18.0833 6.152V8H17.1473V6.296C17.1473 6.036 17.0933 5.844 16.9853 5.72C16.8773 5.596 16.7253 5.534 16.5293 5.534C16.3933 5.534 16.2713 5.566 16.1633 5.63C16.0553 5.69 15.9713 5.782 15.9113 5.906C15.8513 6.03 15.8213 6.188 15.8213 6.38V8H14.8853V6.296C14.8853 6.036 14.8313 5.844 14.7233 5.72C14.6193 5.596 14.4693 5.534 14.2733 5.534C14.1373 5.534 14.0153 5.566 13.9073 5.63C13.7993 5.69 13.7153 5.782 13.6553 5.906C13.5953 6.03 13.5653 6.188 13.5653 6.38V8H12.6293V4.772H13.5233V5.654L13.3553 5.396C13.4673 5.176 13.6253 5.01 13.8293 4.898C14.0373 4.782 14.2733 4.724 14.5373 4.724C14.8333 4.724 15.0913 4.8 15.3113 4.952C15.5353 5.1 15.6833 5.328 15.7553 5.636L15.4253 5.546C15.5333 5.294 15.7053 5.094 15.9413 4.946C16.1813 4.798 16.4553 4.724 16.7633 4.724ZM20.4817 8.048C20.1377 8.048 19.8317 7.976 19.5637 7.832C19.2997 7.688 19.0897 7.492 18.9337 7.244C18.7817 6.992 18.7057 6.706 18.7057 6.386C18.7057 6.062 18.7817 5.776 18.9337 5.528C19.0897 5.276 19.2997 5.08 19.5637 4.94C19.8317 4.796 20.1377 4.724 20.4817 4.724C20.8217 4.724 21.1257 4.796 21.3937 4.94C21.6617 5.08 21.8717 5.274 22.0237 5.522C22.1757 5.77 22.2517 6.058 22.2517 6.386C22.2517 6.706 22.1757 6.992 22.0237 7.244C21.8717 7.492 21.6617 7.688 21.3937 7.832C21.1257 7.976 20.8217 8.048 20.4817 8.048ZM20.4817 7.28C20.6377 7.28 20.7777 7.244 20.9017 7.172C21.0257 7.1 21.1237 6.998 21.1957 6.866C21.2677 6.73 21.3037 6.57 21.3037 6.386C21.3037 6.198 21.2677 6.038 21.1957 5.906C21.1237 5.774 21.0257 5.672 20.9017 5.6C20.7777 5.528 20.6377 5.492 20.4817 5.492C20.3257 5.492 20.1857 5.528 20.0617 5.6C19.9377 5.672 19.8377 5.774 19.7617 5.906C19.6897 6.038 19.6537 6.198 19.6537 6.386C19.6537 6.57 19.6897 6.73 19.7617 6.866C19.8377 6.998 19.9377 7.1 20.0617 7.172C20.1857 7.244 20.3257 7.28 20.4817 7.28ZM23.6654 8L22.3094 4.772H23.2754L24.4034 7.55H23.9234L25.0934 4.772H25.9934L24.6314 8H23.6654ZM27.8895 8.048C27.5215 8.048 27.1975 7.976 26.9175 7.832C26.6415 7.688 26.4275 7.492 26.2755 7.244C26.1235 6.992 26.0475 6.706 26.0475 6.386C26.0475 6.062 26.1215 5.776 26.2695 5.528C26.4215 5.276 26.6275 5.08 26.8875 4.94C27.1475 4.796 27.4415 4.724 27.7695 4.724C28.0855 4.724 28.3695 4.792 28.6215 4.928C28.8775 5.06 29.0795 5.252 29.2275 5.504C29.3755 5.752 29.4495 6.05 29.4495 6.398C29.4495 6.434 29.4475 6.476 29.4435 6.524C29.4395 6.568 29.4355 6.61 29.4315 6.65H26.8095V6.104H28.9395L28.5795 6.266C28.5795 6.098 28.5455 5.952 28.4775 5.828C28.4095 5.704 28.3155 5.608 28.1955 5.54C28.0755 5.468 27.9355 5.432 27.7755 5.432C27.6155 5.432 27.4735 5.468 27.3495 5.54C27.2295 5.608 27.1355 5.706 27.0675 5.834C26.9995 5.958 26.9655 6.106 26.9655 6.278V6.422C26.9655 6.598 27.0035 6.754 27.0795 6.89C27.1595 7.022 27.2695 7.124 27.4095 7.196C27.5535 7.264 27.7215 7.298 27.9135 7.298C28.0855 7.298 28.2355 7.272 28.3635 7.22C28.4955 7.168 28.6155 7.09 28.7235 6.986L29.2215 7.526C29.0735 7.694 28.8875 7.824 28.6635 7.916C28.4395 8.004 28.1815 8.048 27.8895 8.048Z" fill="white"/>
</svg>
