<svg width="25" height="20" viewBox="0 0 25 20" fill="none" xmlns="http://www.w3.org/2000/svg">
<rect opacity="0.7" width="25" height="20" rx="5" fill="#47F56D"/>
<path d="M19.4496 2.55089C19.2255 2.32409 18.9467 2.15892 18.6401 2.07133C18.3335 1.98374 18.0095 1.97669 17.6994 2.05088L7.69806 4.15718C7.12209 4.23616 6.57962 4.47436 6.13173 4.84496C5.68384 5.21555 5.34832 5.70382 5.16296 6.25477C4.9776 6.80573 4.94976 7.39749 5.08257 7.96341C5.21539 8.52933 5.50358 9.04694 5.9147 9.45794L6.98859 10.5311C7.04671 10.5892 7.09281 10.6582 7.12423 10.7341C7.15566 10.81 7.1718 10.8914 7.17174 10.9736V12.9536C7.17312 13.232 7.23721 13.5066 7.35926 13.7568L7.35426 13.7612L7.37052 13.7774C7.55367 14.1456 7.85282 14.4434 8.22188 14.6249L8.23813 14.6412L8.24251 14.6362C8.49277 14.7582 8.76731 14.8223 9.04574 14.8237H11.026C11.1917 14.8236 11.3506 14.8892 11.4679 15.0062L12.5412 16.0794C12.8291 16.3704 13.1717 16.6016 13.5493 16.7596C13.927 16.9176 14.3321 16.9993 14.7415 17C15.0826 16.9996 15.4214 16.9439 15.7447 16.835C16.2907 16.6557 16.7757 16.3275 17.1451 15.8873C17.5144 15.4471 17.7534 14.9125 17.835 14.3437L19.9447 4.32156C20.0227 4.00883 20.0181 3.68118 19.9313 3.37076C19.8445 3.06034 19.6785 2.77782 19.4496 2.55089ZM7.87371 9.64857L6.79919 8.57542C6.54898 8.33126 6.37362 8.02081 6.29368 7.68049C6.21374 7.34018 6.23254 6.98412 6.34788 6.65412C6.45971 6.31556 6.66643 6.01624 6.94346 5.79176C7.22049 5.56728 7.55617 5.42708 7.91059 5.38784L17.8125 3.30341L8.42066 12.6955V10.9736C8.4216 10.7276 8.37375 10.4838 8.27987 10.2563C8.18599 10.0289 8.04794 9.82232 7.87371 9.64857ZM16.6067 14.1299C16.5587 14.4751 16.4155 14.8002 16.193 15.0685C15.9705 15.3368 15.6777 15.5378 15.3473 15.6489C15.0169 15.7601 14.6621 15.7769 14.3226 15.6976C13.9832 15.6183 13.6726 15.446 13.4257 15.2L12.3505 14.1249C12.177 13.9505 11.9706 13.8121 11.7432 13.7179C11.5159 13.6237 11.2721 13.5755 11.026 13.5762H9.3039L18.697 4.18718L16.6067 14.1299Z" fill="white"/>
</svg>
