<svg width="292" height="513" viewBox="0 0 292 513" fill="none" xmlns="http://www.w3.org/2000/svg">
<path d="M282.189 104.756L198.584 21.1504C184.358 7.57438 165.449 -0.000140449 145.784 -0.000140683C126.119 -0.000140918 107.21 7.57438 92.984 21.1504L9.37872 104.756C3.37563 110.756 0.00200597 118.895 5.47723e-06 127.383C-0.00199501 135.87 3.3678 144.011 9.36806 150.014C15.3683 156.017 23.5075 159.391 31.9952 159.393C40.4828 159.395 48.6236 156.025 54.6267 150.025L113.955 90.7184L114.445 480.052C114.445 488.539 117.817 496.678 123.818 502.679C129.819 508.68 137.958 512.052 146.445 512.052C154.932 512.052 163.072 508.68 169.073 502.679C175.074 496.678 178.445 488.539 178.445 480.052L177.955 91.1237L236.941 150.025C242.977 155.854 251.06 159.08 259.45 159.007C267.841 158.934 275.867 155.568 281.8 149.635C287.733 143.702 291.098 135.676 291.171 127.286C291.244 118.896 288.018 110.791 282.189 104.756Z" fill="white"/>
</svg>
