<svg width="292" height="513" viewBox="0 0 292 513" fill="none" xmlns="http://www.w3.org/2000/svg">
<path d="M8.98297 407.296L92.5883 490.901C106.815 504.477 125.724 512.052 145.388 512.052C165.053 512.052 183.962 504.477 198.188 490.901L281.794 407.296C287.797 401.296 291.17 393.157 291.172 384.669C291.174 376.181 287.805 368.04 281.804 362.037C275.804 356.034 267.665 352.661 259.177 352.659C250.69 352.657 242.549 356.026 236.546 362.027L177.218 421.333L176.727 32C176.727 23.5131 173.356 15.3737 167.354 9.37258C161.353 3.37141 153.214 -6.03036e-06 144.727 -6.40133e-06C136.24 -6.77231e-06 128.101 3.37141 122.1 9.37258C116.098 15.3737 112.727 23.5131 112.727 32L113.218 420.928L54.2309 362.027C48.1957 356.198 40.1124 352.972 31.7221 353.045C23.3318 353.118 15.3058 356.483 9.37274 362.416C3.43968 368.35 0.0742678 376.376 0.00135797 384.766C-0.0715518 393.156 3.15391 401.261 8.98297 407.296Z" fill="white"/>
</svg>
