<svg width="112" height="108" viewBox="0 0 112 108" fill="none" xmlns="http://www.w3.org/2000/svg">
<g filter="url(#filter0_d_401_55)">
<rect x="18.6191" y="35.1689" width="23.4053" height="23.4053" transform="rotate(-45 18.6191 35.1689)" fill="#FFB938"/>
<rect x="18.6191" y="35.1689" width="2.92566" height="2.92566" transform="rotate(-45 18.6191 35.1689)" fill="white"/>
<rect x="24.8252" y="37.2378" width="2.92566" height="2.92566" transform="rotate(-45 24.8252 37.2378)" fill="white"/>
<rect x="24.8252" y="33.1001" width="2.92566" height="2.92566" transform="rotate(-45 24.8252 33.1001)" fill="white"/>
<rect x="22.7568" y="35.1689" width="2.92566" height="2.92566" transform="rotate(-45 22.7568 35.1689)" fill="white"/>
<rect x="18.6182" y="72.4062" width="23.4053" height="23.4053" transform="rotate(-45 18.6182 72.4062)" fill="#D82800"/>
<rect x="18.6182" y="72.4062" width="2.92566" height="2.92566" transform="rotate(-45 18.6182 72.4062)" fill="white"/>
<rect x="24.8242" y="74.4751" width="2.92566" height="2.92566" transform="rotate(-45 24.8242 74.4751)" fill="white"/>
<rect x="24.8242" y="70.3374" width="2.92566" height="2.92566" transform="rotate(-45 24.8242 70.3374)" fill="white"/>
<rect x="22.7559" y="72.4062" width="2.92566" height="2.92566" transform="rotate(-45 22.7559 72.4062)" fill="white"/>
<rect x="18.6182" y="72.4062" width="23.4053" height="23.4053" transform="rotate(-45 18.6182 72.4062)" fill="#FFB938"/>
<rect x="18.6182" y="72.4062" width="2.92566" height="2.92566" transform="rotate(-45 18.6182 72.4062)" fill="white"/>
<rect x="24.8242" y="74.4751" width="2.92566" height="2.92566" transform="rotate(-45 24.8242 74.4751)" fill="white"/>
<rect x="24.8242" y="70.3374" width="2.92566" height="2.92566" transform="rotate(-45 24.8242 70.3374)" fill="white"/>
<rect x="22.7559" y="72.4062" width="2.92566" height="2.92566" transform="rotate(-45 22.7559 72.4062)" fill="white"/>
<rect x="37.2363" y="53.7876" width="23.4053" height="23.4053" transform="rotate(-45 37.2363 53.7876)" fill="#D82800"/>
<rect x="37.2363" y="53.7876" width="2.92566" height="2.92566" transform="rotate(-45 37.2363 53.7876)" fill="white"/>
<rect x="43.4434" y="55.8562" width="2.92566" height="2.92566" transform="rotate(-45 43.4434 55.8562)" fill="white"/>
<rect x="43.4434" y="51.7188" width="2.92566" height="2.92566" transform="rotate(-45 43.4434 51.7188)" fill="white"/>
<rect x="41.374" y="53.7876" width="2.92566" height="2.92566" transform="rotate(-45 41.374 53.7876)" fill="white"/>
<rect x="37.2363" y="53.7876" width="23.4053" height="23.4053" transform="rotate(-45 37.2363 53.7876)" fill="#FFB938"/>
<rect x="37.2363" y="53.7876" width="2.92566" height="2.92566" transform="rotate(-45 37.2363 53.7876)" fill="white"/>
<rect x="43.4424" y="55.8564" width="2.92566" height="2.92566" transform="rotate(-45 43.4424 55.8564)" fill="white"/>
<rect x="43.4424" y="51.7188" width="2.92566" height="2.92566" transform="rotate(-45 43.4424 51.7188)" fill="white"/>
<rect x="41.374" y="53.7876" width="2.92566" height="2.92566" transform="rotate(-45 41.374 53.7876)" fill="white"/>
<rect x="74.4756" y="53.7876" width="23.4053" height="23.4053" transform="rotate(-45 74.4756 53.7876)" fill="#D82800"/>
<rect x="74.4756" y="53.7876" width="2.92566" height="2.92566" transform="rotate(-45 74.4756 53.7876)" fill="white"/>
<rect x="78.6133" y="53.7876" width="17.5539" height="17.5539" transform="rotate(-45 78.6133 53.7876)" fill="white"/>
<rect x="55.8564" y="72.4062" width="23.4053" height="23.4053" transform="rotate(-45 55.8564 72.4062)" fill="#D82800"/>
<rect x="55.8564" y="72.4062" width="2.92566" height="2.92566" transform="rotate(-45 55.8564 72.4062)" fill="white"/>
<rect x="59.9941" y="72.4062" width="2.92566" height="2.92566" transform="rotate(-45 59.9941 72.4062)" fill="white"/>
<rect x="62.0625" y="74.4751" width="2.92566" height="2.92566" transform="rotate(-45 62.0625 74.4751)" fill="white"/>
<rect x="62.0625" y="70.3376" width="2.92566" height="2.92566" transform="rotate(-45 62.0625 70.3376)" fill="white"/>
<rect x="55.8564" y="35.1687" width="23.4053" height="23.4053" transform="rotate(-45 55.8564 35.1687)" fill="#D82800"/>
<rect x="55.8564" y="35.1687" width="2.92566" height="2.92566" transform="rotate(-45 55.8564 35.1687)" fill="white"/>
<rect x="59.9941" y="35.1687" width="2.92566" height="2.92566" transform="rotate(-45 59.9941 35.1687)" fill="white"/>
<rect x="62.0625" y="37.2375" width="2.92566" height="2.92566" transform="rotate(-45 62.0625 37.2375)" fill="white"/>
<rect x="62.0625" y="33.0999" width="2.92566" height="2.92566" transform="rotate(-45 62.0625 33.0999)" fill="white"/>
</g>
<defs>
<filter id="filter0_d_401_55" x="14.6182" y="18.6187" width="96.957" height="78.3376" filterUnits="userSpaceOnUse" color-interpolation-filters="sRGB">
<feFlood flood-opacity="0" result="BackgroundImageFix"/>
<feColorMatrix in="SourceAlpha" type="matrix" values="0 0 0 0 0 0 0 0 0 0 0 0 0 0 0 0 0 0 127 0" result="hardAlpha"/>
<feOffset dy="4"/>
<feGaussianBlur stdDeviation="2"/>
<feComposite in2="hardAlpha" operator="out"/>
<feColorMatrix type="matrix" values="0 0 0 0 0 0 0 0 0 0 0 0 0 0 0 0 0 0 0.25 0"/>
<feBlend mode="normal" in2="BackgroundImageFix" result="effect1_dropShadow_401_55"/>
<feBlend mode="normal" in="SourceGraphic" in2="effect1_dropShadow_401_55" result="shape"/>
</filter>
</defs>
</svg>
