<svg viewBox="0 0 1621 1472" fill="none" xmlns="http://www.w3.org/2000/svg">
<rect x="255.167" y="481.442" width="320" height="320" transform="rotate(-45 255.167 481.442)" fill="#FFB938"/>
<rect x="255.167" y="481.442" width="40" height="40" transform="rotate(-45 255.167 481.442)" fill="white"/>
<rect x="340.02" y="509.726" width="40" height="40" transform="rotate(-45 340.02 509.726)" fill="white"/>
<rect x="340.02" y="453.157" width="40" height="40" transform="rotate(-45 340.02 453.157)" fill="white"/>
<rect x="311.736" y="481.441" width="40" height="40" transform="rotate(-45 311.736 481.441)" fill="white"/>
<rect x="255.167" y="990.558" width="320" height="320" transform="rotate(-45 255.167 990.558)" fill="#D82800"/>
<rect x="255.167" y="990.558" width="40" height="40" transform="rotate(-45 255.167 990.558)" fill="white"/>
<rect x="340.02" y="1018.84" width="40" height="40" transform="rotate(-45 340.02 1018.84)" fill="white"/>
<rect x="340.02" y="962.274" width="40" height="40" transform="rotate(-45 340.02 962.274)" fill="white"/>
<rect x="311.736" y="990.558" width="40" height="40" transform="rotate(-45 311.736 990.558)" fill="white"/>
<rect x="255.167" y="990.558" width="320" height="320" transform="rotate(-45 255.167 990.558)" fill="#FFB938"/>
<rect x="255.167" y="990.558" width="40" height="40" transform="rotate(-45 255.167 990.558)" fill="white"/>
<rect x="340.02" y="1018.84" width="40" height="40" transform="rotate(-45 340.02 1018.84)" fill="white"/>
<rect x="340.02" y="962.274" width="40" height="40" transform="rotate(-45 340.02 962.274)" fill="white"/>
<rect x="311.736" y="990.558" width="40" height="40" transform="rotate(-45 311.736 990.558)" fill="white"/>
<rect x="509.726" y="736" width="320" height="320" transform="rotate(-45 509.726 736)" fill="#D82800"/>
<rect x="509.726" y="736" width="40" height="40" transform="rotate(-45 509.726 736)" fill="white"/>
<rect x="594.578" y="764.284" width="40" height="40" transform="rotate(-45 594.578 764.284)" fill="white"/>
<rect x="594.578" y="707.715" width="40" height="40" transform="rotate(-45 594.578 707.715)" fill="white"/>
<rect x="566.294" y="736" width="40" height="40" transform="rotate(-45 566.294 736)" fill="white"/>
<rect x="509.726" y="736" width="320" height="320" transform="rotate(-45 509.726 736)" fill="#FFB938"/>
<rect x="509.726" y="736" width="40" height="40" transform="rotate(-45 509.726 736)" fill="white"/>
<rect x="594.578" y="764.284" width="40" height="40" transform="rotate(-45 594.578 764.284)" fill="white"/>
<rect x="594.578" y="707.716" width="40" height="40" transform="rotate(-45 594.578 707.716)" fill="white"/>
<rect x="566.294" y="736" width="40" height="40" transform="rotate(-45 566.294 736)" fill="white"/>
<rect x="1018.84" y="736" width="320" height="320" transform="rotate(-45 1018.84 736)" fill="#D82800"/>
<rect x="1018.84" y="736" width="40" height="40" transform="rotate(-45 1018.84 736)" fill="white"/>
<rect x="1075.41" y="736" width="240" height="240" transform="rotate(-45 1075.41 736)" fill="white"/>
<rect x="764.284" y="990.558" width="320" height="320" transform="rotate(-45 764.284 990.558)" fill="#D82800"/>
<rect x="764.284" y="990.558" width="40" height="40" transform="rotate(-45 764.284 990.558)" fill="white"/>
<rect x="820.853" y="990.559" width="40" height="40" transform="rotate(-45 820.853 990.559)" fill="white"/>
<rect x="849.136" y="1018.84" width="40" height="40" transform="rotate(-45 849.136 1018.84)" fill="white"/>
<rect x="849.137" y="962.275" width="40" height="40" transform="rotate(-45 849.137 962.275)" fill="white"/>
<rect x="764.284" y="481.441" width="320" height="320" transform="rotate(-45 764.284 481.441)" fill="#D82800"/>
<rect x="764.284" y="481.441" width="40" height="40" transform="rotate(-45 764.284 481.441)" fill="white"/>
<rect x="820.853" y="481.441" width="40" height="40" transform="rotate(-45 820.853 481.441)" fill="white"/>
<rect x="849.137" y="509.726" width="40" height="40" transform="rotate(-45 849.137 509.726)" fill="white"/>
<rect x="849.137" y="453.157" width="40" height="40" transform="rotate(-45 849.137 453.157)" fill="white"/>
</svg>
