<svg width="12" height="12" viewBox="0 0 12 12" fill="none" xmlns="http://www.w3.org/2000/svg">
<g clip-path="url(#clip0_582_20)">
<path d="M6 0C4.81331 0 3.65328 0.351894 2.66658 1.01118C1.67989 1.67047 0.910851 2.60754 0.456726 3.7039C0.00259972 4.80026 -0.11622 6.00666 0.115291 7.17054C0.346802 8.33443 0.918247 9.40353 1.75736 10.2426C2.59648 11.0818 3.66558 11.6532 4.82946 11.8847C5.99335 12.1162 7.19975 11.9974 8.2961 11.5433C9.39246 11.0892 10.3295 10.3201 10.9888 9.33342C11.6481 8.34673 12 7.18669 12 6C11.9983 4.40923 11.3656 2.88411 10.2407 1.75926C9.1159 0.634414 7.59077 0.00172054 6 0ZM6 10.5C5.10999 10.5 4.23996 10.2361 3.49994 9.74161C2.75992 9.24715 2.18314 8.54434 1.84254 7.72208C1.50195 6.89981 1.41284 5.99501 1.58647 5.12209C1.7601 4.24918 2.18869 3.44736 2.81802 2.81802C3.44736 2.18868 4.24918 1.7601 5.1221 1.58647C5.99501 1.41283 6.89981 1.50195 7.72208 1.84254C8.54435 2.18314 9.24715 2.75991 9.74162 3.49993C10.2361 4.23996 10.5 5.10998 10.5 6C10.4985 7.19303 10.024 8.33678 9.18038 9.18037C8.33678 10.024 7.19303 10.4985 6 10.5Z" fill="white" fill-opacity="0.4"/>
<path d="M5.77254 4.77245H5.62254C5.42603 4.76763 5.2348 4.83638 5.08634 4.96522C4.93789 5.09407 4.84291 5.27372 4.82004 5.46895C4.80696 5.66427 4.87075 5.85695 4.99781 6.00587C5.12486 6.15478 5.3051 6.24812 5.50004 6.26595V8.59095C5.50004 8.78987 5.57905 8.98063 5.71971 9.12128C5.86036 9.26194 6.05112 9.34095 6.25004 9.34095C6.44895 9.34095 6.63972 9.26194 6.78037 9.12128C6.92102 8.98063 7.00004 8.78987 7.00004 8.59095V5.99995C7.00004 5.6744 6.87071 5.36218 6.64051 5.13198C6.41031 4.90178 6.09809 4.77245 5.77254 4.77245Z" fill="white" fill-opacity="0.4"/>
<path d="M5.91513 4.23309C6.08483 4.23309 6.25071 4.18277 6.39181 4.08849C6.53291 3.99421 6.64288 3.86021 6.70782 3.70343C6.77276 3.54665 6.78975 3.37414 6.75664 3.2077C6.72354 3.04127 6.64182 2.88839 6.52183 2.76839C6.40183 2.6484 6.24895 2.56668 6.08252 2.53358C5.91608 2.50047 5.74357 2.51746 5.58679 2.5824C5.43001 2.64734 5.29601 2.75731 5.20173 2.89841C5.10745 3.03951 5.05713 3.20539 5.05713 3.37509C5.05706 3.48778 5.07921 3.59938 5.12231 3.70351C5.1654 3.80764 5.2286 3.90225 5.30828 3.98193C5.38797 4.06162 5.48258 4.12482 5.58671 4.16791C5.69084 4.21101 5.80244 4.23316 5.91513 4.23309Z" fill="white" fill-opacity="0.4"/>
</g>
<defs>
<clipPath id="clip0_582_20">
<rect width="12" height="12" fill="white"/>
</clipPath>
</defs>
</svg>
