<svg width="101" height="91" viewBox="0 0 101 91" fill="none" xmlns="http://www.w3.org/2000/svg">
<path d="M0.0800005 90.08C0.64 84.48 1.16 78.92 1.64 73.4C2.12 67.88 2.56 62.44 2.96 57.08C3.84 47.32 4.52 37.72 5 28.28C5.56 18.84 5.92 10 6.08 1.75999C12.32 1.75999 17 1.63999 20.12 1.4C23.24 1.08 24.8 0.919997 24.8 0.919997C24.4 5.55999 24 9.79999 23.6 13.64C23.2 17.4 22.84 20.76 22.52 23.72L21.08 38.24C20.68 42.64 20.32 46.36 20 49.4C19.76 52.44 19.52 55.24 19.28 57.8C19.04 60.36 18.72 63.16 18.32 66.2H20.48L33.92 2.35999L40.52 2C41.56 1.92 42.6 1.88 43.64 1.88C44.68 1.79999 45.76 1.71999 46.88 1.63999C48 1.56 49.04 1.48 50 1.4C51.04 1.32 52 1.24 52.88 1.15999C51.36 5.87999 49.8 11.16 48.2 17C46.68 22.84 45.12 28.88 43.52 35.12C42 41.36 40.44 47.52 38.84 53.6C37.56 58.72 36.28 63.96 35 69.32C33.72 74.6 32.44 79.96 31.16 85.4L0.0800005 90.08ZM58.9888 89.24C55.7888 89.24 52.5888 88.4 49.3888 86.72C46.1888 84.96 43.1088 82.2 40.1488 78.44L49.0288 61.04C49.9088 62.56 51.1888 64 52.8688 65.36C54.6288 66.72 56.4688 67.8 58.3888 68.6C60.3088 69.4 61.9488 69.8 63.3088 69.8C65.3888 69.8 67.3488 69.16 69.1888 67.88C71.1088 66.6 72.0688 64.88 72.0688 62.72C72.0688 59.92 70.7888 57.36 68.2288 55.04C65.6688 52.72 62.7888 50.44 59.5888 48.2C56.4688 45.96 53.5888 43.44 50.9488 40.64C48.3888 37.76 47.1088 34.48 47.1088 30.8C47.1088 26.64 48.3088 22.8 50.7088 19.28C53.1088 15.68 56.2288 12.56 60.0688 9.92C63.9088 7.2 67.9888 5.12 72.3088 3.68C76.7088 2.16 80.8688 1.4 84.7888 1.4C87.5888 1.4 90.1888 1.88 92.5888 2.83999C94.9888 3.72 96.9088 5.2 98.3488 7.27999C99.7888 9.36 100.509 12.16 100.509 15.68C100.509 16.24 100.469 16.8 100.389 17.36C100.389 17.92 100.349 18.48 100.269 19.04C100.189 19.6 100.069 20.2 99.9088 20.84C99.8288 21.4 99.7488 22 99.6688 22.64L82.2688 27.68C82.4288 27.04 82.5488 26.4 82.6288 25.76C82.7888 25.12 82.8688 24.48 82.8688 23.84C82.8688 21.44 82.4288 19.72 81.5488 18.68C80.7488 17.56 79.6688 17 78.3088 17C77.5888 17 76.5488 17.4 75.1888 18.2C73.8288 18.92 72.5888 19.96 71.4688 21.32C70.4288 22.6 69.9088 24.04 69.9088 25.64C69.9088 28.28 70.9888 30.48 73.1488 32.24C75.3888 33.92 77.9488 35.64 80.8288 37.4C82.1888 38.2 83.7088 39.48 85.3888 41.24C87.0688 42.92 88.5088 45.24 89.7088 48.2C90.9888 51.08 91.6288 54.8 91.6288 59.36C91.6288 65.28 90.1488 70.48 87.1888 74.96C84.3088 79.44 80.3888 82.96 75.4288 85.52C70.4688 88 64.9888 89.24 58.9888 89.24Z" fill="white"/>
</svg>
