<svg width="12" height="12" viewBox="0 0 12 12" fill="none" xmlns="http://www.w3.org/2000/svg">
<g clip-path="url(#clip0_1033_31)">
<path d="M6 3C5.60218 3 5.22064 3.15804 4.93934 3.43934C4.65804 3.72064 4.5 4.10218 4.5 4.5V10.5C4.5 10.8978 4.65804 11.2794 4.93934 11.5607C5.22064 11.842 5.60218 12 6 12C6.39782 12 6.77936 11.842 7.06066 11.5607C7.34196 11.2794 7.5 10.8978 7.5 10.5V4.5C7.5 4.10218 7.34196 3.72064 7.06066 3.43934C6.77936 3.15804 6.39782 3 6 3Z" fill="#D75858" fill-opacity="0.2"/>
<path d="M10.5 0C10.1022 0 9.72064 0.158035 9.43934 0.43934C9.15804 0.720644 9 1.10218 9 1.5V10.5C9 10.8978 9.15804 11.2794 9.43934 11.5607C9.72064 11.842 10.1022 12 10.5 12C10.8978 12 11.2794 11.842 11.5607 11.5607C11.842 11.2794 12 10.8978 12 10.5V1.5C12 1.10218 11.842 0.720644 11.5607 0.43934C11.2794 0.158035 10.8978 0 10.5 0Z" fill="#D75858" fill-opacity="0.2"/>
<path d="M1.5 6C1.10218 6 0.720644 6.15804 0.43934 6.43934C0.158035 6.72064 0 7.10218 0 7.5L0 10.5C0 10.8978 0.158035 11.2794 0.43934 11.5607C0.720644 11.842 1.10218 12 1.5 12C1.89782 12 2.27936 11.842 2.56066 11.5607C2.84196 11.2794 3 10.8978 3 10.5V7.5C3 7.10218 2.84196 6.72064 2.56066 6.43934C2.27936 6.15804 1.89782 6 1.5 6Z" fill="#D75858"/>
</g>
<defs>
<clipPath id="clip0_1033_31">
<rect width="12" height="12" fill="white"/>
</clipPath>
</defs>
</svg>
