<svg width="19" height="20" viewBox="0 0 19 20" fill="none" xmlns="http://www.w3.org/2000/svg">
<path d="M12.9029 18.2454L17.8337 13.5697C18.2204 13.2028 18.4376 12.7052 18.4375 12.1864C18.4374 11.6677 18.2199 11.1702 17.833 10.8035C17.4461 10.4368 16.9214 10.2308 16.3743 10.2309C15.8273 10.231 15.3027 10.4372 14.916 10.8041L11.5623 13.9843L11.5623 2.5193C11.5623 2.00058 11.345 1.50311 10.9582 1.13632C10.5714 0.769535 10.0468 0.563476 9.49982 0.563476C8.95282 0.563476 8.42821 0.769535 8.04142 1.13632C7.65462 1.50311 7.43732 2.00058 7.43732 2.5193L7.43732 13.9843L4.0837 10.8041C3.69696 10.4372 3.17236 10.231 2.62531 10.2309C2.07825 10.2308 1.55356 10.4368 1.16664 10.8035C0.77972 11.1702 0.562277 11.6677 0.562148 12.1864C0.562019 12.7052 0.779212 13.2028 1.16595 13.5697L6.0967 18.2454C7.00012 19.0997 8.22394 19.5795 9.49982 19.5795C10.7757 19.5795 11.9995 19.0997 12.9029 18.2454Z" fill="#F15757"/>
</svg>
