<svg width="19" height="20" viewBox="0 0 19 20" fill="none" xmlns="http://www.w3.org/2000/svg">
<path d="M6.09705 2.04758L1.1663 6.72329C0.779564 7.0902 0.562371 7.58776 0.5625 8.10652C0.562629 8.62528 0.780069 9.12274 1.16699 9.48947C1.5539 9.85621 2.0786 10.0622 2.62566 10.062C3.17272 10.0619 3.69731 9.85573 4.08405 9.48882L7.43767 6.30866L7.43767 17.7737C7.43767 18.2924 7.65497 18.7899 8.04177 19.1566C8.42856 19.5234 8.95317 19.7295 9.50018 19.7295C10.0472 19.7295 10.5718 19.5234 10.9586 19.1566C11.3454 18.7899 11.5627 18.2924 11.5627 17.7737L11.5627 6.30866L14.9163 9.48882C15.303 9.85573 15.8276 10.0619 16.3747 10.062C16.9217 10.0622 17.4464 9.85621 17.8334 9.48947C18.2203 9.12274 18.4377 8.62528 18.4379 8.10652C18.438 7.58776 18.2208 7.0902 17.8341 6.72329L12.9033 2.04758C11.9999 1.19324 10.7761 0.71347 9.50017 0.71347C8.22429 0.71347 7.00047 1.19324 6.09705 2.04758Z" fill="#58D774"/>
</svg>
