<svg width="9" height="18" viewBox="0 0 9 18" fill="none" xmlns="http://www.w3.org/2000/svg">
<path d="M0 1.12679C0.000266075 1.4254 0.120549 1.71168 0.334407 1.92269L6.16526 7.68324C6.34174 7.85755 6.48175 8.0645 6.57726 8.29228C6.67278 8.52006 6.72194 8.76419 6.72194 9.01074C6.72194 9.25729 6.67278 9.50143 6.57726 9.7292C6.48175 9.95698 6.34174 10.1639 6.16526 10.3382L0.342007 16.0913C0.134341 16.3037 0.019434 16.5882 0.0220308 16.8835C0.0246286 17.1788 0.144524 17.4613 0.355894 17.6701C0.567264 17.8789 0.853197 17.9974 1.15211 18C1.45102 18.0025 1.73899 17.889 1.954 17.6838L7.77725 11.9353C8.56025 11.1602 9 10.1099 9 9.01487C9 7.91982 8.56025 6.86951 7.77725 6.09443L1.9464 0.330135C1.78697 0.172519 1.58379 0.0651696 1.36257 0.0216696C1.14136 -0.0218304 0.912062 0.000474532 0.703686 0.085762C0.49531 0.171049 0.317225 0.315486 0.191964 0.500796C0.0667038 0.686105 -0.000102043 0.903959 0 1.12679Z" fill="white"/>
</svg>
