<svg width="16" height="23" viewBox="0 0 16 23" fill="none" xmlns="http://www.w3.org/2000/svg">
<path d="M13.1081 21.0663L13.1081 1.4041C13.1081 0.627908 13.7373 -0.000345421 14.5126 -0.000345353C15.2878 -0.000345285 15.917 0.627909 15.917 1.4041L15.917 21.0663C15.917 21.8425 15.2878 22.4707 14.5126 22.4707C13.7373 22.4707 13.1081 21.8424 13.1081 21.0663ZM1.40444 22.4707C2.17969 22.4707 2.80888 21.8424 2.80888 21.0663L2.80888 1.4041C2.80888 0.627908 2.17969 -0.000346431 1.40444 -0.000346499C0.629191 -0.000346567 1.90956e-06 0.627907 1.8417e-06 1.4041L1.2278e-07 21.0663C5.49236e-08 21.8424 0.629189 22.4707 1.40444 22.4707ZM7.9585 22.4707C8.73375 22.4707 9.36294 21.8424 9.36294 21.0663L9.36294 1.4041C9.36294 0.627908 8.73375 -0.000345858 7.9585 -0.000345926C7.18325 -0.000345994 6.55406 0.627908 6.55406 1.4041L6.55406 21.0663C6.55406 21.8424 7.18324 22.4707 7.9585 22.4707Z" fill="#2D2D31"/>
</svg>
