<svg width="18" height="9" viewBox="0 0 18 9" fill="none" xmlns="http://www.w3.org/2000/svg">
<path d="M16.8732 -1.34368e-08C16.5746 0.000266058 16.2883 0.120549 16.0773 0.334407L10.3168 6.16526C10.1425 6.34174 9.9355 6.48174 9.70772 6.57726C9.47994 6.67278 9.23581 6.72194 8.98926 6.72194C8.74271 6.72194 8.49857 6.67278 8.2708 6.57726C8.04302 6.48174 7.83607 6.34174 7.66175 6.16526L1.90872 0.342006C1.6963 0.134342 1.4118 0.0194328 1.11649 0.0220306C0.821186 0.0246284 0.5387 0.144524 0.32988 0.355894C0.12106 0.567263 0.00260744 0.853197 4.20553e-05 1.15211C-0.00252333 1.45102 0.111 1.73899 0.31616 1.954L6.06469 7.77725C6.83976 8.56025 7.89008 9 8.98513 9C10.0802 9 11.1305 8.56025 11.9056 7.77725L17.6699 1.9464C17.8275 1.78697 17.9348 1.58379 17.9783 1.36257C18.0218 1.14136 17.9995 0.912062 17.9142 0.703686C17.829 0.49531 17.6845 0.317224 17.4992 0.191964C17.3139 0.0667038 17.096 -0.000102054 16.8732 -1.34368e-08Z" fill="white" fill-opacity="0.8"/>
</svg>
