<svg width="12" height="12" viewBox="0 0 12 12" fill="none" xmlns="http://www.w3.org/2000/svg">
<path d="M11.2703 6.0705L9.50037 7.36315L10.1725 9.44481C10.2812 9.76767 10.2825 10.117 10.1765 10.4407C10.0704 10.7644 9.86254 11.0452 9.58389 11.2411C9.31002 11.4433 8.97814 11.5517 8.6377 11.55C8.29725 11.5483 7.96647 11.4366 7.69463 11.2317L5.96397 9.9579L4.23281 11.2302C3.95944 11.4312 3.62935 11.5405 3.28999 11.5421C2.95063 11.5438 2.61949 11.4378 2.34417 11.2394C2.06885 11.041 1.86354 10.7604 1.75774 10.4379C1.65195 10.1155 1.65113 9.76776 1.7554 9.44481L2.42758 7.36315L0.65764 6.0705C0.384623 5.87088 0.181667 5.5901 0.0777645 5.26825C-0.0261383 4.9464 -0.0256739 4.59995 0.0790901 4.27838C0.183854 3.95681 0.38756 3.67657 0.661111 3.47769C0.934661 3.27881 1.26406 3.17146 1.60227 3.17098H3.77641L4.43616 1.11467C4.53991 0.790989 4.74378 0.508622 5.01836 0.308286C5.29295 0.107951 5.62407 0 5.96397 0C6.30387 0 6.63499 0.107951 6.90958 0.308286C7.18417 0.508622 7.38804 0.790989 7.49179 1.11467L8.15154 3.17098H10.3237C10.6619 3.17146 10.9913 3.27881 11.2648 3.47769C11.5384 3.67657 11.7421 3.95681 11.8469 4.27838C11.9516 4.59995 11.9521 4.9464 11.8482 5.26825C11.7443 5.5901 11.5413 5.87088 11.2683 6.0705H11.2703Z" fill="white"/>
</svg>
