<svg width="13" height="16" viewBox="0 0 13 16" fill="none" xmlns="http://www.w3.org/2000/svg">
<path d="M1.29415 0.244616C2.10444 -0.133972 3.02594 -0.0646532 3.75824 0.431243L11.0898 6.2407C11.2675 6.36134 11.4235 6.50065 11.5556 6.65461V0.666528C11.5556 0.298604 11.8785 0 12.2778 0C12.6772 0 13 0.298604 13 0.666528V15.3301C13 15.6981 12.6772 15.9967 12.2778 15.9967C11.8785 15.9967 11.5556 15.6981 11.5556 15.3301V9.34205C11.4242 9.49602 11.2682 9.63599 11.0898 9.75597L3.75824 15.5714C3.33865 15.856 2.85695 16 2.36948 16C2.00622 16 1.64008 15.92 1.29415 15.758C0.483862 15.3788 0 14.6523 0 13.8138V2.18888C0 1.35039 0.483862 0.62387 1.29415 0.244616Z" fill="white"/>
</svg>
