<svg width="10" height="14" viewBox="0 0 10 14" fill="none" xmlns="http://www.w3.org/2000/svg">
<path d="M1.94445 0C1.42875 0 0.93417 0.204861 0.569516 0.569516C0.204861 0.93417 0 1.42875 0 1.94445V11.3889C1.08676e-08 11.9046 0.204861 12.3992 0.569516 12.7638C0.93417 13.1285 1.42875 13.3334 1.94445 13.3334C2.46015 13.3334 2.95473 13.1285 3.31938 12.7638C3.68403 12.3992 3.8889 11.9046 3.8889 11.3889V1.94445C3.8889 1.42875 3.68403 0.93417 3.31938 0.569516C2.95473 0.204861 2.46015 0 1.94445 0Z" fill="white"/>
<path d="M8.05578 0C7.54008 0 7.0455 0.204861 6.68084 0.569516C6.31619 0.93417 6.11133 1.42875 6.11133 1.94445V11.3889C6.11133 11.9046 6.31619 12.3992 6.68084 12.7638C7.0455 13.1285 7.54008 13.3334 8.05578 13.3334C8.57148 13.3334 9.06605 13.1285 9.43071 12.7638C9.79536 12.3992 10.0002 11.9046 10.0002 11.3889V1.94445C10.0002 1.42875 9.79536 0.93417 9.43071 0.569516C9.06605 0.204861 8.57148 0 8.05578 0Z" fill="white"/>
</svg>
