<svg width="16" height="16" viewBox="0 0 16 16" fill="none" xmlns="http://www.w3.org/2000/svg">
<g clip-path="url(#clip0_2679_29)">
<path d="M13.4789 5.39928L7.32515 0.886863C6.84451 0.534906 6.27579 0.322916 5.68204 0.274392C5.08829 0.225868 4.4927 0.342706 3.96129 0.611953C3.42987 0.8812 2.9834 1.29234 2.67134 1.7998C2.35929 2.30726 2.19385 2.89122 2.19336 3.48695V12.5163C2.19244 13.1126 2.35701 13.6975 2.66877 14.2058C2.98052 14.7141 3.42723 15.126 3.95916 15.3955C4.49109 15.665 5.08739 15.7816 5.68166 15.7323C6.27593 15.6831 6.84487 15.4698 7.32515 15.1164L13.4789 10.604C13.8872 10.3043 14.2193 9.91273 14.4481 9.4609C14.677 9.00908 14.7962 8.50972 14.7962 8.00324C14.7962 7.49676 14.677 6.99739 14.4481 6.54557C14.2193 6.09375 13.8872 5.70216 13.4789 5.4025V5.39928Z" fill="white"/>
</g>
<defs>
<clipPath id="clip0_2679_29">
<rect width="15.4844" height="15.4844" fill="white" transform="translate(0.257812 0.257812)"/>
</clipPath>
</defs>
</svg>
