<svg width="13" height="16" viewBox="0 0 13 16" fill="none" xmlns="http://www.w3.org/2000/svg">
<path d="M11.7058 0.244616C10.8956 -0.133972 9.97406 -0.0646532 9.24176 0.431243L1.91017 6.2407C1.73252 6.36134 1.57652 6.50065 1.44436 6.65461V0.666528C1.44436 0.298604 1.12155 0 0.722182 0C0.322816 0 9.53674e-07 0.298604 9.53674e-07 0.666528V15.3301C9.53674e-07 15.6981 0.322816 15.9967 0.722182 15.9967C1.12155 15.9967 1.44436 15.6981 1.44436 15.3301V9.34205C1.5758 9.49602 1.73179 9.63599 1.91017 9.75597L9.24176 15.5714C9.66135 15.856 10.143 16 10.6305 16C10.9938 16 11.3599 15.92 11.7058 15.758C12.5161 15.3788 13 14.6523 13 13.8138V2.18888C13 1.35039 12.5161 0.62387 11.7058 0.244616Z" fill="white"/>
</svg>
