<svg width="15" height="10" viewBox="0 0 15 10" fill="none" xmlns="http://www.w3.org/2000/svg">
<path d="M14.142 3.86961H12.9692V2.69676C12.9692 2.37289 12.7067 2.11035 12.3828 2.11035C12.0589 2.11035 11.7964 2.37289 11.7964 2.69676V3.86961H10.6235C10.2997 3.86961 10.0371 4.13215 10.0371 4.45602C10.0371 4.77989 10.2997 5.04244 10.6235 5.04244H11.7964V6.21529C11.7964 6.53915 12.0589 6.8017 12.3828 6.8017C12.7067 6.8017 12.9692 6.53915 12.9692 6.21529V5.04244H14.142C14.4659 5.04244 14.7285 4.77989 14.7285 4.45602C14.7285 4.13215 14.4659 3.86961 14.142 3.86961Z" fill="white"/>
<path d="M6.69343 4.92593C8.05369 4.92593 9.15639 3.82322 9.15639 2.46296C9.15639 1.10271 8.05369 0 6.69343 0C5.33317 0 4.23047 1.10271 4.23047 2.46296C4.23047 3.82322 5.33317 4.92593 6.69343 4.92593Z" fill="white"/>
<path d="M6.69444 5.74707C4.655 5.74934 3.00227 7.40207 3 9.44151C3 9.66822 3.18378 9.852 3.41049 9.852H9.97838C10.2051 9.852 10.3889 9.66822 10.3889 9.44151C10.3866 7.40207 8.73389 5.74932 6.69444 5.74707Z" fill="white"/>
<circle cx="1.5" cy="4.5" r="1.5" fill="#F15757"/>
</svg>
