<svg width="10" height="10" viewBox="0 0 10 10" fill="none" xmlns="http://www.w3.org/2000/svg">
<g clip-path="url(#clip0_1049_96)">
<path d="M3.125 5.41667C2.75416 5.41667 2.39165 5.3067 2.08331 5.10067C1.77496 4.89465 1.53464 4.60181 1.39273 4.2592C1.25081 3.91659 1.21368 3.53959 1.28603 3.17587C1.35837 2.81216 1.53695 2.47807 1.79917 2.21584C2.0614 1.95362 2.39549 1.77504 2.75921 1.7027C3.12292 1.63035 3.49992 1.66748 3.84253 1.80939C4.18514 1.95131 4.47798 2.19163 4.68401 2.49997C4.89003 2.80832 5 3.17083 5 3.54167C4.99945 4.03878 4.80173 4.51537 4.45022 4.86688C4.0987 5.2184 3.62211 5.41612 3.125 5.41667ZM6.25 8.33334C6.24934 7.781 6.02963 7.25148 5.63907 6.86093C5.24852 6.47037 4.719 6.25066 4.16667 6.25H2.08333C1.531 6.25066 1.00148 6.47037 0.610925 6.86093C0.220367 7.25148 0.000661607 7.781 0 8.33334L0 10H6.25V8.33334ZM7.29167 3.75C6.92083 3.75 6.55831 3.64003 6.24997 3.43401C5.94163 3.22798 5.70131 2.93514 5.55939 2.59253C5.41748 2.24992 5.38035 1.87292 5.45269 1.50921C5.52504 1.14549 5.70362 0.811399 5.96584 0.549176C6.22806 0.286952 6.56216 0.108376 6.92587 0.0360284C7.28959 -0.0363188 7.66659 0.000812411 8.0092 0.142727C8.35181 0.284641 8.64464 0.524965 8.85067 0.833307C9.0567 1.14165 9.16667 1.50416 9.16667 1.875C9.16612 2.37211 8.96839 2.84871 8.61688 3.20022C8.26537 3.55173 7.78878 3.74945 7.29167 3.75ZM7.91667 4.58333H5.83333C5.76021 4.58669 5.68732 4.59406 5.615 4.60542C5.4635 4.95597 5.23974 5.2706 4.95833 5.52875C5.5693 5.70162 6.10727 6.06893 6.49072 6.57501C6.87418 7.0811 7.08222 7.69839 7.08333 8.33334H10V6.66667C9.99934 6.11434 9.77963 5.58482 9.38908 5.19426C8.99852 4.8037 8.469 4.584 7.91667 4.58333Z" fill="#58D774"/>
</g>
<defs>
<clipPath id="clip0_1049_96">
<rect width="10" height="10" fill="white"/>
</clipPath>
</defs>
</svg>
