<svg width="13" height="10" viewBox="0 0 13 10" fill="none" xmlns="http://www.w3.org/2000/svg">
<path d="M11.6616 3.98192H10.4887V2.80907C10.4887 2.4852 10.2262 2.22266 9.90231 2.22266C9.57844 2.22266 9.3159 2.4852 9.3159 2.80907V3.98192H8.14305C7.81918 3.98192 7.55664 4.24446 7.55664 4.56833C7.55664 4.8922 7.81918 5.15474 8.14305 5.15474H9.3159V6.32759C9.3159 6.65146 9.57844 6.914 9.90231 6.914C10.2262 6.914 10.4887 6.65146 10.4887 6.32759V5.15474H11.6616C11.9854 5.15474 12.248 4.8922 12.248 4.56833C12.248 4.24446 11.9854 3.98192 11.6616 3.98192Z" fill="white"/>
<path d="M4.21296 5.03823C5.57322 5.03823 6.67593 3.93552 6.67593 2.57527C6.67593 1.21501 5.57322 0.112305 4.21296 0.112305C2.85271 0.112305 1.75 1.21501 1.75 2.57527C1.75 3.93552 2.85271 5.03823 4.21296 5.03823Z" fill="white"/>
<path d="M4.21398 5.85938C2.17453 5.86165 0.521802 7.51437 0.519531 9.55382C0.519531 9.78053 0.703311 9.96431 0.930019 9.96431H7.49791C7.72462 9.96431 7.9084 9.78053 7.9084 9.55382C7.90615 7.51437 6.25342 5.86163 4.21398 5.85938Z" fill="white"/>
</svg>
