<svg width="15" height="10" viewBox="0 0 15 10" fill="none" xmlns="http://www.w3.org/2000/svg">
<g clip-path="url(#clip0_1049_95)">
<path d="M3.80671 5.03725C5.16697 5.03725 6.26968 3.93455 6.26968 2.57429C6.26968 1.21403 5.16697 0.111328 3.80671 0.111328C2.44646 0.111328 1.34375 1.21403 1.34375 2.57429C1.34375 3.93455 2.44646 5.03725 3.80671 5.03725Z" fill="#F1A157"/>
<path d="M3.80577 5.8584C1.76632 5.86067 0.113599 7.51339 0.111328 9.55284C0.111328 9.77955 0.295107 9.96333 0.521816 9.96333H7.08971C7.31642 9.96333 7.5002 9.77955 7.5002 9.55284C7.49795 7.51339 5.84522 5.86065 3.80577 5.8584Z" fill="#F1A157"/>
</g>
<g clip-path="url(#clip1_1049_95)">
<path d="M11.0188 8.55617C8.88462 8.55617 7.14844 6.81999 7.14844 4.6858C7.14844 2.55161 8.88462 0.81543 11.0188 0.81543C13.153 0.81543 14.8892 2.55161 14.8892 4.6858C14.8892 6.81999 13.153 8.55617 11.0188 8.55617ZM11.0188 1.46049C9.24037 1.46049 7.7935 2.90736 7.7935 4.6858C7.7935 6.46424 9.24037 7.91111 11.0188 7.91111C12.7972 7.91111 14.2441 6.46424 14.2441 4.6858C14.2441 2.90736 12.7972 1.46049 11.0188 1.46049ZM12.6315 4.6858C12.6315 4.50744 12.4873 4.36327 12.3089 4.36327H11.3413V2.75061C11.3413 2.57226 11.1968 2.42808 11.0188 2.42808C10.8408 2.42808 10.6963 2.57226 10.6963 2.75061V4.6858C10.6963 4.86416 10.8408 5.00833 11.0188 5.00833H12.3089C12.4873 5.00833 12.6315 4.86416 12.6315 4.6858Z" fill="#F1A157"/>
</g>
<defs>
<clipPath id="clip0_1049_95">
<rect width="9.85185" height="9.85185" fill="white" transform="translate(0.111328 0.111328)"/>
</clipPath>
<clipPath id="clip1_1049_95">
<rect width="7.74074" height="7.74074" fill="white" transform="translate(7.14844 0.81543)"/>
</clipPath>
</defs>
</svg>
