<svg width="19" height="17" viewBox="0 0 19 17" fill="none" xmlns="http://www.w3.org/2000/svg">
<path d="M15.2984 10.0889H18.4712C18.7674 10.0889 19 9.8563 19 9.56002V1.09943C19 0.803151 18.7674 0.570581 18.4712 0.570581H15.2984C15.0021 0.570581 14.7699 0.803151 14.7699 1.09943V9.56002C14.7695 9.8563 15.0021 10.0889 15.2984 10.0889Z" fill="white" fill-opacity="1"/>
<path d="M0.000705936 9.08637C0.000705936 9.94807 0.59234 10.8201 1.72227 10.8201H6.8452C6.11336 12.1293 5.89816 13.9706 6.40689 15.3179C6.78058 16.3088 7.49475 16.8871 8.41894 16.9459L8.43387 16.9471C9.03526 16.984 9.55587 16.5335 9.60586 15.933C9.73754 14.5967 10.3231 12.2332 11.1622 11.3941C11.8688 10.6875 12.4735 10.3916 13.476 9.90143C13.6211 9.83041 13.7796 9.75299 13.9473 9.66947C13.9442 9.6332 13.9424 9.59693 13.9424 9.55974V1.1854C13.8214 1.14395 13.7019 1.1028 13.5845 1.06257C11.93 0.492268 10.5002 6.76969e-07 8.31469 6.76969e-07H4.17294C3.0427 6.76969e-07 2.45137 0.872366 2.45137 1.73376C2.45137 1.98949 2.50319 2.24584 2.60591 2.48054C2.22947 2.54821 1.89997 2.72927 1.65582 3.00634C1.37875 3.32121 1.22604 3.73971 1.22604 4.18473C1.22604 4.43955 1.27786 4.6959 1.38027 4.92999C0.472856 5.08666 0.000401294 5.86545 0.000401294 6.6354C0.000401294 7.08195 0.159512 7.53154 0.469808 7.86073C0.160122 8.19023 0.000705936 8.63983 0.000705936 9.08637Z" fill="white" fill-opacity="1"/>
</svg>
