<svg width="20" height="20" viewBox="0 0 20 20" fill="none" xmlns="http://www.w3.org/2000/svg">
<path d="M17.4359 0H2.5641C1.14799 0 0 1.14799 0 2.5641V17.4359C0 18.852 1.14799 20 2.5641 20H17.4359C18.852 20 20 18.852 20 17.4359V2.5641C20 1.14799 18.852 0 17.4359 0Z" fill="#F15757"/>
<path d="M11.7907 10.2386L14.5579 7.47119C14.7376 7.26719 14.8327 7.00247 14.824 6.73088C14.8153 6.45929 14.7035 6.20124 14.5111 6.00909C14.3188 5.81693 14.0605 5.70519 13.7887 5.69652C13.5168 5.68786 13.2519 5.78288 13.0477 5.96242L10.2777 8.72698L7.50273 5.95386C7.40335 5.85452 7.28535 5.77575 7.1555 5.72201C7.0256 5.66827 6.88642 5.64062 6.74586 5.64062C6.6053 5.64062 6.46612 5.66827 6.33622 5.72201C6.20637 5.77575 6.08837 5.85452 5.98899 5.95386C5.8896 6.05314 5.81073 6.17104 5.75694 6.30078C5.70314 6.43052 5.67545 6.5696 5.67545 6.71001C5.67545 6.85047 5.70314 6.9895 5.75694 7.11924C5.81073 7.24898 5.8896 7.36688 5.98899 7.46621L8.76468 10.2386L5.99755 13.0053C5.88904 13.1022 5.80145 13.2203 5.74012 13.3522C5.67883 13.4841 5.64514 13.6271 5.64104 13.7724C5.63699 13.9178 5.66263 14.0625 5.71648 14.1976C5.77027 14.3327 5.85109 14.4554 5.95401 14.5583C6.05699 14.6611 6.17981 14.7419 6.31504 14.7957C6.45032 14.8494 6.59509 14.875 6.74063 14.871C6.88612 14.8669 7.02924 14.8332 7.1613 14.772C7.2933 14.7107 7.41145 14.6232 7.50842 14.5148L10.2777 11.7503L13.0441 14.5148C13.2449 14.7153 13.5171 14.828 13.801 14.828C14.0849 14.828 14.3571 14.7153 14.5579 14.5148C14.7586 14.3143 14.8714 14.0423 14.8714 13.7586C14.8714 13.475 14.7586 13.203 14.5579 13.0025L11.7907 10.2386Z" fill="#301111"/>
</svg>
