<svg width="20" height="17" viewBox="0 0 20 17" fill="none" xmlns="http://www.w3.org/2000/svg">
<path d="M3.71419 6.88379H0.530642C0.23336 6.88379 0 7.11715 0 7.41443V15.9038C0 16.2011 0.23336 16.4344 0.530642 16.4344H3.71419C4.01147 16.4344 4.24453 16.2011 4.24453 15.9038V7.41443C4.24483 7.11715 4.01147 6.88379 3.71419 6.88379Z" fill="white" fill-opacity="1"/>
<path d="M19.0643 7.88957C19.0643 7.02495 18.4706 6.14992 17.3369 6.14992H12.1965C12.9309 4.83632 13.1468 2.9887 12.6363 1.63686C12.2614 0.64256 11.5448 0.0623707 10.6174 0.00334247L10.6024 0.00211903C9.99902 -0.0348883 9.47663 0.417152 9.42647 1.01967C9.29435 2.3605 8.70682 4.73202 7.86482 5.57402C7.15587 6.28297 6.54908 6.57994 5.54315 7.07174C5.39757 7.143 5.23853 7.22069 5.07031 7.30449C5.07337 7.34089 5.07521 7.37728 5.07521 7.4146V15.8174C5.19663 15.859 5.31652 15.9003 5.43427 15.9407C7.0944 16.5129 8.52912 17.0068 10.722 17.0068H14.8779C16.0119 17.0068 16.6053 16.1315 16.6053 15.2672C16.6053 15.0106 16.5533 14.7534 16.4502 14.5179C16.8279 14.45 17.1586 14.2683 17.4035 13.9903C17.6816 13.6743 17.8348 13.2544 17.8348 12.8079C17.8348 12.5522 17.7828 12.295 17.68 12.0601C18.5905 11.9029 19.0646 11.1214 19.0646 10.3489C19.0646 9.90082 18.9049 9.44969 18.5936 9.11938C18.9043 8.78876 19.0643 8.33764 19.0643 7.88957Z" fill="white" fill-opacity="1"/>
</svg>
