<svg width="20" height="20" viewBox="0 0 20 20" fill="none" xmlns="http://www.w3.org/2000/svg">
<path fill-rule="evenodd" clip-rule="evenodd" d="M10.0001 0C15.5231 0 20 4.47709 20 9.99992C20 15.5228 15.5231 19.9998 10.0001 19.9998C4.47709 20 0 15.5229 0 9.99992C0 4.47692 4.47709 0 10.0001 0ZM11.955 6.37229C12.4026 5.91769 13.1303 5.91574 13.5804 6.36789C14.0302 6.81972 14.032 7.55475 13.5847 8.00902L11.6212 10.0009L13.5867 11.9946C14.0309 12.4454 14.0244 13.1757 13.5737 13.6258C13.1223 14.0758 12.3969 14.0747 11.9534 13.6236L10.0011 11.644L8.04499 13.6277C7.59739 14.0823 6.86985 14.0843 6.41965 13.6321C5.96994 13.1803 5.96782 12.4451 6.41525 11.9908L8.37897 9.9991L6.4133 8.00544C5.96929 7.55475 5.97563 6.82444 6.42665 6.37424C6.87782 5.9242 7.60325 5.92534 8.04662 6.37635L9.99927 8.35635L11.955 6.37229Z" fill="#F15757"/>
</svg>
