<svg width="15" height="12" viewBox="0 0 15 12" fill="none" xmlns="http://www.w3.org/2000/svg">
<path d="M10.8708 3.79297C10.5242 3.79295 10.2432 4.0739 10.2432 4.42049C10.2431 4.76711 10.5241 5.0481 10.8708 5.04809C11.2174 5.04806 11.4983 4.76708 11.4983 4.42049C11.4983 4.07393 11.2173 3.793 10.8708 3.79297Z" fill="#FFB938"/>
<path d="M11.3296 4.2503C11.3296 4.40294 11.2226 4.50098 10.9874 4.50098C10.8036 4.50098 10.6982 4.32265 10.6982 4.22461C10.6982 4.12496 10.7956 3.94824 10.9874 3.94824C11.1583 3.94824 11.3296 4.09767 11.3296 4.2503Z" fill="#FFB938"/>
<path d="M6.61938 0C5.91368 0.891534 5.48018 1.14869 4.98607 1.46549C4.38645 1.81062 3.78286 2.17826 3.09552 3.02047C2.52263 3.36261 2.67355 3.68356 1.5406 3.99368C2.26246 3.85298 2.62184 4.1009 3.35284 4.19507C3.45791 4.13359 3.61102 4.02724 3.79466 3.89878C3.50319 3.61923 3.15486 3.48456 2.7891 3.39158C3.11997 3.42406 3.5859 3.45039 4.12634 3.66817C4.27119 3.568 4.42502 3.46296 4.59495 3.35178C4.21976 3.06438 3.79598 2.91651 3.43086 2.77951C3.88491 2.85609 4.2192 2.84182 4.94878 3.12741C5.13951 3.0098 5.33853 2.89164 5.54936 2.77738C5.06838 2.42001 4.63883 2.32954 4.14179 2.12512C4.67702 2.10495 5.28769 2.21263 6.03372 2.53185C6.23431 2.43675 6.44026 2.34718 6.65119 2.2676C6.15318 1.87876 5.52103 1.59151 5.15435 1.47211C5.53692 1.50469 6.24722 1.56773 7.25032 2.07314C7.46896 2.01391 7.69038 1.96659 7.91331 1.9363C7.35706 1.44472 7.0545 1.29089 6.04879 0.77974C6.75091 0.911376 7.58195 1.10438 8.80319 1.90798C9.04636 1.92837 9.28857 1.97325 9.5279 2.04719C8.90778 1.27463 8.15327 0.536748 6.61938 0ZM9.34775 2.39828C9.37674 2.40322 9.39907 2.40604 9.42972 2.41137C7.01058 2.2584 6.43518 4.30174 7.82807 4.22247C8.17645 3.59311 8.83302 3.02908 9.87777 2.69876C8.77773 3.11384 8.37411 3.70544 7.98067 4.58612C7.82693 4.93026 7.66182 6.57596 8.35817 7.19035C8.03025 6.94328 7.78438 6.59049 7.64548 6.18715C7.30918 6.18188 7.06456 6.11513 6.90707 5.9844C6.74427 6.07205 6.67438 6.21272 6.63666 6.40452C6.97166 6.81699 7.28305 7.32312 7.94551 8.08395C6.99947 7.40687 6.57564 6.48538 5.44296 5.74283C4.26705 4.97195 3.52708 5.16848 3.30748 5.01621C3.30135 5.02207 3.29557 5.02793 3.28944 5.03379C3.57916 5.51644 4.70978 5.8041 5.52051 6.38116C6.33546 6.96122 7.19215 7.76642 8.06957 8.26273C7.40919 8.83077 6.19473 9.09833 5.62471 8.88447C4.96322 8.6363 4.36822 7.74042 4.1679 7.21204C3.91645 7.54433 4.27072 8.15494 4.50765 8.31175C4.35241 8.19443 3.87126 7.9086 3.77883 7.46541C3.45373 7.39154 3.11393 7.25824 2.91666 7.06675C2.7286 7.44612 2.48928 7.96826 3.02063 8.34912C2.63556 8.21473 2.46858 7.95757 2.4476 7.63856C2.24928 7.63355 1.9783 7.55888 1.66847 7.44699C1.43296 7.70657 1.35232 7.98653 1.50415 8.26996C1.35637 8.16331 1.2649 8.00975 1.17026 7.85882C0.981559 7.78919 0.816182 7.65781 0.663597 7.49258C0.561463 7.56252 0.459114 7.62789 0.356039 7.68567C1.15455 8.31229 3.31115 9.9089 7.10937 9.9089C10.5515 9.8681 13.6878 7.71343 14.1751 5.41457C14.2808 4.91622 12.7572 4.97185 11.8934 6.04711C12.2357 5.18648 13.5479 4.49599 13.954 5.01332C14.0768 4.91275 13.957 4.75209 13.8574 4.6346C12.8503 3.44739 11.6042 2.44175 9.34775 2.39828ZM8.13106 2.43078C4.58285 3.1606 5.11993 4.14769 5.89071 4.34919C5.9985 4.11695 6.35156 3.71688 6.79633 3.56625C6.98266 3.07767 7.60314 2.67332 8.13106 2.43078ZM5.25367 3.47256C4.89289 3.6927 4.55472 3.93599 4.23541 4.19302C4.03786 4.39173 3.99424 4.45377 4.07748 4.55256C4.14926 4.63773 4.24201 4.6963 4.35772 4.75295C4.49185 4.3462 4.70258 4.04668 5.05685 3.75995C5.08658 3.65628 5.15531 3.56189 5.25367 3.47256ZM10.8708 3.79283C11.2174 3.79286 11.4983 4.07379 11.4984 4.42035C11.4984 4.76694 11.2174 5.04792 10.8708 5.04795C10.5242 5.04797 10.2432 4.76697 10.2432 4.42035C10.2433 4.07376 10.5243 3.79282 10.8708 3.79283ZM6.78111 3.90182C6.68412 3.92863 6.57028 3.98558 6.46579 4.07345C6.28348 4.22676 6.14046 4.45466 6.12292 4.66284C6.10321 4.89664 6.15411 5.06614 6.28229 5.19157C6.37609 5.28335 6.52336 5.35735 6.74077 5.39463C6.84985 4.99712 7.26619 4.64696 7.64275 4.57904C7.18053 4.57163 6.84398 4.28125 6.78111 3.90182ZM7.64275 4.57904C7.64274 4.57904 7.64275 4.57904 7.64275 4.57904ZM8.64183 4.05488C7.62353 7.00199 10.3658 7.57013 11.1714 7.37789C9.48643 8.08157 7.57165 6.17631 8.64183 4.05488ZM5.0752 4.06865C4.8152 4.25667 4.68614 4.59717 4.62821 4.87442C4.78433 4.94284 4.96669 5.02669 5.18266 5.15572C5.35415 4.95667 5.54868 4.76341 5.75143 4.7222C5.75183 4.7159 5.75189 4.70978 5.75242 4.70341C5.75573 4.66413 5.76235 4.62439 5.77167 4.5846C5.42761 4.53656 5.17224 4.33557 5.0752 4.06865ZM3.82221 4.54495C3.7688 4.59184 3.71541 4.63868 3.66299 4.68605L3.90022 4.75463L3.82221 4.54495ZM7.56519 4.93325C7.55305 4.93848 7.54104 4.94328 7.52866 4.94931C7.36236 5.03039 7.19665 5.1851 7.10754 5.3377C7.01844 5.4903 7.00827 5.61072 7.06812 5.69382C7.11884 5.76425 7.26195 5.84625 7.56017 5.86521C7.50285 5.56623 7.50115 5.24941 7.56519 4.93325ZM5.81156 5.07938C5.67406 5.12021 5.56574 5.22139 5.47218 5.34455C5.7174 5.5173 5.99654 5.74803 6.31296 6.06424C6.42074 5.95052 6.52387 5.83163 6.61009 5.69397C6.37946 5.64378 6.19522 5.55238 6.05929 5.41937C5.95125 5.31364 5.86538 5.20338 5.81156 5.07938ZM0.446381 5.28062C0.0882468 5.82455 0.0870553 6.8315 0 7.28199L0.4202 7.24812C0.456788 7.06214 0.572927 6.93896 0.845194 6.93904C0.900649 6.75999 1.01308 6.69215 1.19286 6.75554C0.935767 6.258 0.634244 5.72871 0.446381 5.28062ZM2.99422 5.32225C2.39137 5.91833 1.84371 6.50426 1.30733 6.97983L1.57683 7.05488C1.67676 6.9299 1.77699 6.77181 1.91651 6.69024C1.70116 7.18391 1.88998 7.38018 2.46206 7.36183C2.49121 7.17426 2.55729 6.97366 2.64845 6.76939C2.44012 6.61481 2.27816 6.44555 2.32773 6.2093L2.50324 6.02413C2.5562 6.28772 2.67865 6.38381 2.81528 6.43855C2.92622 6.24079 3.05496 6.04441 3.19187 5.85783C3.11908 5.7 3.05309 5.52229 2.99422 5.32225ZM3.87176 5.82602C3.99194 6.46802 5.31133 7.03155 6.63293 7.65546C5.77315 6.88925 5.1668 6.22584 3.87176 5.82602ZM3.353 6.15938C3.25255 6.30678 3.13632 6.44667 3.0841 6.62357C3.23098 7.08411 3.59863 7.09544 3.80615 7.06295C3.83489 6.97674 3.8793 6.8865 3.94223 6.79215C3.72215 6.63708 3.5239 6.43585 3.353 6.15938ZM4.66063 6.94992C4.77673 7.8975 5.58415 7.92753 6.79953 8.08053C6.05472 7.70474 5.28059 7.33001 4.66063 6.94992ZM1.15199 7.11493C1.03157 7.21681 0.911156 7.31427 0.790776 7.40232C0.820878 7.49957 0.904216 7.62973 1.21729 7.69374C1.29807 7.52109 1.40103 7.32456 1.51336 7.14956C1.36689 7.12295 1.25797 7.11808 1.15199 7.11493ZM0.0475685 7.98128C0.0656846 8.18315 0.0867538 8.35168 0.113784 8.50126L0.560697 8.33458C0.382653 8.21944 0.212711 8.09557 0.0475685 7.98128ZM5.3084 8.09583C5.62824 8.75526 6.36921 8.60582 6.83355 8.475C6.33057 8.34234 5.83675 8.19889 5.3084 8.09583ZM0.835224 8.49882C0.634492 8.53971 0.300829 8.56004 0.122612 8.54936C0.194252 8.91615 0.307837 9.167 0.52074 9.50841C0.797433 9.26607 1.03576 8.86817 1.23274 8.67456C1.2177 8.66956 1.2029 8.66399 1.18799 8.65865C1.08221 8.67672 0.955931 8.71059 0.807672 8.76148C0.849115 8.69146 0.86769 8.61877 0.938276 8.55225C0.903551 8.53516 0.869253 8.51724 0.835224 8.49882ZM11.1458 9.26555L10.8353 9.48611C10.7218 10.2878 10.327 10.5347 10.2456 10.8004C10.5145 10.6495 11.4602 10.2029 11.1458 9.26555ZM10.3356 9.8417C9.82852 10.2758 9.27136 10.66 8.68818 11.003C9.63235 11.0747 10.1064 10.6208 10.3356 9.8417ZM3.13685 9.84977C2.33117 10.412 2.34123 10.2132 1.92602 10.4482C2.122 10.4711 2.18775 10.5832 2.78895 10.6256C3.31707 10.3621 3.4939 10.1044 3.76665 9.99239C3.59549 9.98379 3.40014 9.94203 3.13685 9.84977ZM9.47142 10.0263L9.01682 10.1658C8.79658 10.5392 8.55616 10.8042 8.37766 11.0345C8.53832 10.9847 9.00458 10.8369 9.47142 10.0263ZM4.18068 10.0724C3.54177 10.4629 3.21655 10.3425 2.95943 10.657C3.15094 10.7693 3.46881 10.8666 3.76315 10.8483C3.94992 10.6898 4.38614 10.3739 4.66086 10.222C4.50146 10.1847 4.34841 10.1459 4.18068 10.0724ZM5.11706 10.3006C4.69752 10.5379 4.43926 10.5502 3.79131 10.8999C5.28153 11.547 5.55799 10.7794 6.24911 10.4095C5.83604 10.2678 5.47541 10.3341 5.11706 10.3006Z" fill="#FFB938"/>
<path d="M13.2658 5.54492L10.5789 6.93194L8.64241 5.84647L8.49202 5.83619C8.86715 7.23717 10.5657 7.52232 11.1711 7.37786C9.98818 7.87186 8.6935 7.07943 8.39635 5.82972L8.39467 5.82958L7.87728 6.0764C7.93343 6.51378 8.07261 6.93868 8.35783 7.19034C8.02991 6.94327 7.78404 6.59047 7.64515 6.18714L6.63632 6.40451L7.94517 8.08393L7.45548 7.86832C7.65877 8.01186 7.86338 8.14628 8.06923 8.26271C7.40885 8.83076 6.19439 9.09831 5.62437 8.88445C5.42109 8.80819 5.22607 8.66688 5.04487 8.49774L5.03688 8.49599L4.48577 8.29346C4.49282 8.29876 4.50044 8.30718 4.50731 8.31173C4.50044 8.30653 4.48595 8.29642 4.47786 8.29057L2.70954 7.64082C2.67256 7.88821 2.72841 8.13988 3.02029 8.34909C2.68402 8.23173 2.51413 8.0207 2.46249 7.75666L1.43577 7.88719C1.41598 8.01303 1.43478 8.14107 1.50381 8.26994C1.35604 8.16328 1.26457 8.00973 1.16992 7.8588L1.37062 8.39324C2.51058 9.08878 4.38573 9.90888 7.10904 9.90888C10.4372 9.86942 13.4791 7.8537 14.1174 5.64227L13.2658 5.54492Z" fill="#FFB938"/>
<path d="M2.9947 5.32227C2.39186 5.91835 1.8442 6.50427 1.30782 6.97985L1.57732 7.05489C1.67725 6.92992 1.77748 6.77183 1.91699 6.69025C1.70164 7.18392 1.89046 7.38019 2.46255 7.36184C2.4917 7.17428 2.55778 6.97367 2.64894 6.76941C2.44061 6.61483 2.27864 6.44557 2.32821 6.20932L2.50372 6.02415C2.55668 6.28773 2.67914 6.38383 2.81577 6.43856C2.9267 6.24081 3.05544 6.04443 3.19236 5.85785C3.11956 5.70001 3.05357 5.52231 2.9947 5.32227ZM3.35348 6.15939C3.25303 6.3068 3.13681 6.44669 3.08459 6.62358C3.23147 7.08412 3.59911 7.09545 3.80664 7.06296C3.83538 6.97676 3.87979 6.88651 3.94272 6.79217C3.72263 6.63709 3.52439 6.43586 3.35348 6.15939ZM1.15248 7.11494C1.03206 7.21683 0.911642 7.31429 0.791262 7.40233C0.821363 7.49959 0.904702 7.62974 1.21778 7.69376C1.29855 7.52111 1.40151 7.32458 1.51384 7.14957C1.36737 7.12296 1.25846 7.1181 1.15248 7.11494ZM0.0498047 7.99796C0.0675543 8.1919 0.0880448 8.35616 0.114269 8.50128L0.561183 8.3346C0.401769 8.23151 0.249516 8.12216 0.100722 8.01821L0.0498047 7.99796ZM0.83571 8.49884C0.634978 8.53972 0.301315 8.56006 0.123098 8.54938C0.194738 8.91616 0.308322 9.16701 0.521226 9.50843C0.797919 9.26608 1.03625 8.86819 1.23323 8.67458C1.21818 8.66957 1.20338 8.66401 1.18848 8.65867C1.0827 8.67673 0.956416 8.71061 0.808158 8.76149C0.8496 8.69148 0.868176 8.61879 0.938762 8.55227C0.904036 8.53518 0.869739 8.51726 0.83571 8.49884ZM2.31619 8.89933C2.64415 9.05274 3.00829 9.20066 3.41049 9.33452L2.31619 8.89933ZM3.13733 9.84978C2.33166 10.412 2.34172 10.2132 1.92651 10.4482C2.12248 10.4711 2.18824 10.5832 2.78944 10.6256C3.31756 10.3622 3.49438 10.1044 3.76714 9.99241C3.59598 9.9838 3.40062 9.94205 3.13733 9.84978ZM4.18117 10.0724C3.54226 10.4629 3.21703 10.3425 2.95992 10.657C3.15143 10.7694 3.4693 10.8666 3.76364 10.8483C3.95041 10.6898 4.38662 10.3739 4.66135 10.222C4.50194 10.1848 4.3489 10.1459 4.18117 10.0724ZM5.11754 10.3007C4.69801 10.5379 4.43975 10.5502 3.7918 10.8999C5.24117 11.5293 5.54346 10.8214 6.19472 10.4418L5.92598 10.335C5.64233 10.2971 5.37923 10.3251 5.11754 10.3007Z" fill="#FFB938"/>
<path d="M8.64154 4.05469C8.60972 4.14678 8.58156 4.23654 8.55691 4.32404C8.38331 4.94025 8.38348 5.44348 8.49617 5.8514C9.22365 5.89711 10.039 6.27353 10.6247 5.78572C9.21996 5.94356 8.55891 5.36653 8.64154 4.05469Z" fill="#FFB938"/>
<path d="M14.0548 5.83789C11.2667 10.3833 6.07881 10.23 1.80469 8.64396C2.96533 9.27153 4.70844 9.90921 7.10897 9.90921C10.3389 9.87092 13.2994 7.97134 14.0548 5.83789Z" fill="#FFB938" fill-opacity="0.848008"/>
<path d="M13.3957 5.69141C12.3018 5.69115 11.1792 6.76585 10.0712 7.29823C10.5097 7.42268 10.9289 7.43592 11.1716 7.37799C10.7096 7.57094 10.2307 7.56676 9.80036 7.41673C9.78813 7.42152 9.7759 7.42687 9.76367 7.4315L10.3009 8.18422L11.6513 7.85931C12.6656 7.5102 12.9186 6.62074 14.0555 5.83731C14.0555 5.83721 14.0556 5.83712 14.0556 5.837C13.837 5.73553 13.617 5.69146 13.3957 5.69141Z" fill="#FFB938"/>
<path d="M8.39505 5.8291L7.86784 6.00149C7.91724 6.4647 8.05679 6.92391 8.35822 7.18986C8.03029 6.94279 7.78443 6.59 7.64553 6.18666C7.54529 6.18509 7.45583 6.17624 7.37176 6.16368L6.6367 6.40403C6.9717 6.8165 7.28309 7.32262 7.94555 8.08346C7.62029 7.85067 7.35783 7.58805 7.10599 7.31468C8.18157 8.84602 10.0793 8.80849 11.6511 7.85871C10.811 7.84241 10.1192 7.66334 9.57543 7.32206C9.01024 7.04579 8.56111 6.50865 8.39886 5.83816C8.39768 5.83505 8.39622 5.83222 8.39505 5.8291ZM13.4547 5.8291L11.2628 6.60869L9.7826 6.87621L8.49666 5.8514C8.8138 6.99857 10.0218 7.38957 10.772 7.40944C10.911 7.40658 11.0456 7.39574 11.1714 7.37739C12.2964 7.11553 12.8289 6.14125 13.4547 5.8291ZM2.70992 7.64066C2.67303 7.88795 2.72891 8.13949 3.02067 8.34863C2.65634 8.22147 2.48896 7.98366 2.45404 7.6883L1.43615 7.88657C1.4359 7.88811 1.43577 7.88966 1.43555 7.89121C1.56597 8.37575 4.01672 9.33028 5.4806 8.81944L5.47946 8.81769C5.25225 8.69938 5.03821 8.50981 4.84722 8.29489L4.46294 8.27343C4.47789 8.28599 4.49344 8.30182 4.5077 8.31126C4.49523 8.30184 4.47056 8.28448 4.45427 8.2729L4.07121 8.25151L2.70992 7.64066Z" fill="#FFB938"/>
<path d="M0.446381 5.28027C0.0882468 5.8242 0.0870553 6.83115 0 7.28164L0.4202 7.24778C0.456788 7.0618 0.572927 6.93861 0.845194 6.9387C0.900649 6.75964 1.01308 6.6918 1.19286 6.7552C0.935767 6.25765 0.634244 5.72836 0.446381 5.28027Z" fill="#FFB938"/>
<path d="M6.04839 0.779297L4.16141 2.12453C4.69192 2.10771 5.29642 2.21609 6.03332 2.53141C6.23391 2.43631 6.43986 2.34673 6.65079 2.26716C6.15278 1.87831 5.52063 1.59106 5.15395 1.47166C5.53652 1.50424 6.24682 1.56729 7.24992 2.0727C7.46856 2.01346 7.68998 1.96615 7.91291 1.93585C7.35666 1.44428 7.0541 1.29044 6.04839 0.779297ZM4.15433 2.12963L3.41744 2.65494C3.31169 2.767 3.20481 2.88563 3.09512 3.02003C2.52223 3.36216 2.67315 3.68312 1.5402 3.99324C2.26206 3.85253 2.62144 4.10046 3.35244 4.19463C3.45751 4.13315 3.61061 4.0268 3.79426 3.89833C3.50279 3.61879 3.15446 3.48412 2.7887 3.39114C3.11957 3.42361 3.5855 3.44995 4.12594 3.66772C4.27079 3.56756 4.42462 3.46252 4.59455 3.35134C4.21936 3.06394 3.79557 2.91606 3.43045 2.77907C3.88451 2.85564 4.2188 2.84138 4.94838 3.12696C5.13911 3.00935 5.33813 2.89119 5.54896 2.77694C5.07228 2.42276 4.64573 2.33022 4.15433 2.12963ZM6.78071 3.90138C6.74823 4.48808 7.01943 4.65591 7.64234 4.5786C7.18013 4.57119 6.84358 4.28081 6.78071 3.90138ZM5.0748 4.06821C5.04755 4.08792 5.02252 4.11017 4.99808 4.13298C5.08159 4.42107 5.35967 4.66544 5.75301 4.69687C5.75647 4.65957 5.76243 4.62191 5.77127 4.58415C5.42721 4.53612 5.17184 4.33513 5.0748 4.06821ZM5.81115 5.07894C5.79207 5.08461 5.77481 5.09396 5.75681 5.10185C5.79873 5.35071 6.06435 5.69951 6.60703 5.69718C6.60784 5.69588 6.60888 5.69482 6.60969 5.69352C6.37906 5.64334 6.19482 5.55193 6.05889 5.41892C5.95085 5.3132 5.86498 5.20294 5.81115 5.07894ZM3.87136 5.82557C4.43263 6.31108 5.35302 6.92089 6.63253 7.65501C5.77274 6.8888 5.1664 6.2254 3.87136 5.82557ZM0.0953447 6.52837C0.0760488 6.68642 0.0571793 6.84075 0.0419922 6.9749C0.179648 7.06224 0.310801 7.13866 0.432509 7.19942C0.472042 7.06604 0.562414 6.97275 0.73786 6.94666C0.520752 6.88136 0.306558 6.74108 0.0953447 6.52837ZM4.66023 6.94948C4.73698 7.26734 5.16529 7.74258 6.79913 8.08008C6.05432 7.7043 5.28019 7.32957 4.66023 6.94948ZM2.91626 7.06631C2.83165 7.23698 2.74014 7.43673 2.70962 7.63933C3.0833 7.65388 3.46476 7.70713 3.80689 7.56391C3.79554 7.53176 3.78552 7.49898 3.77843 7.46497C3.45333 7.3911 3.11353 7.25779 2.91626 7.06631ZM1.66807 7.44655C1.53964 7.5881 1.45944 7.73583 1.43571 7.88677L2.46234 7.75632C2.45485 7.718 2.44986 7.67854 2.4472 7.63812C2.24888 7.6331 1.9779 7.55843 1.66807 7.44655ZM0.663196 7.49214C0.561063 7.56208 0.458713 7.62745 0.355639 7.68523C0.441664 7.75274 0.551152 7.8358 0.669057 7.92261L1.16986 7.85838C0.981159 7.78875 0.815781 7.65737 0.663196 7.49214ZM0.0471678 7.98084C0.0652839 8.18271 0.0863531 8.35124 0.113383 8.50082L0.560297 8.33414C0.382252 8.219 0.21231 8.09512 0.0471678 7.98084ZM5.308 8.09538C5.6604 8.32341 5.99068 8.59764 6.47117 8.55782C6.60074 8.53578 6.72484 8.50507 6.83315 8.47456C6.33017 8.3419 5.83635 8.19845 5.308 8.09538ZM0.834823 8.49838C0.634091 8.53926 0.300428 8.5596 0.122211 8.54892C0.144081 8.66088 0.171874 8.76062 0.203192 8.85686C0.392006 8.81226 0.570608 8.77527 0.731238 8.75183C0.490163 8.90556 0.400985 9.02593 0.319867 9.14455C0.3299 9.16543 0.339445 9.18643 0.350235 9.20749C0.53114 9.08673 0.712508 8.96583 0.957587 8.82367L0.520339 9.50797C0.797033 9.26562 1.03536 8.86773 1.23234 8.67412C1.2173 8.66911 1.2025 8.66355 1.18759 8.65821C1.08181 8.67627 0.95553 8.71015 0.807272 8.76103C0.848714 8.69102 0.867289 8.61833 0.937875 8.55181C0.90315 8.53472 0.868852 8.5168 0.834823 8.49838ZM10.3352 9.84125C9.82812 10.2754 9.27096 10.6595 8.68778 11.0025C9.63195 11.0743 10.106 10.6204 10.3352 9.84125ZM3.13645 9.84932C3.01103 9.93685 2.91055 10.0011 2.81998 10.0563C2.99644 10.1401 3.16642 10.2145 3.33167 10.2818C3.4943 10.1578 3.61844 10.0526 3.76625 9.99195C3.59509 9.98334 3.39973 9.94159 3.13645 9.84932ZM9.47102 10.0258L9.01642 10.1653C8.79618 10.5387 8.55576 10.8037 8.37726 11.034C8.61661 10.7374 8.95291 10.7038 9.25472 10.3533C9.32619 10.2571 9.39837 10.152 9.47102 10.0258ZM4.18028 10.0719C3.9157 10.2336 3.70703 10.3067 3.53259 10.3603C3.7404 10.4392 3.94079 10.5071 4.13424 10.5647C4.31393 10.4361 4.51015 10.3047 4.66046 10.2216C4.50106 10.1843 4.34801 10.1455 4.18028 10.0719ZM5.11666 10.3002C4.85202 10.4499 4.64294 10.516 4.36835 10.6278C4.7958 10.742 5.19679 10.817 5.5877 10.8771C5.80468 10.7255 6.0002 10.5421 6.24871 10.4091C5.83564 10.2674 5.47501 10.3336 5.11666 10.3002Z" fill="#FFB938" fill-opacity="0.902517"/>
<path d="M6.61967 0C5.91397 0.891534 5.48047 1.14869 4.98637 1.46549C4.38674 1.81062 3.78316 2.17826 3.09581 3.02047C2.52292 3.36261 2.67385 3.68356 1.5409 3.99368C1.70313 3.96206 1.84541 3.95225 1.97936 3.95373C2.30713 3.87599 2.5641 3.6849 2.84404 3.40757C2.82566 3.40264 2.80787 3.39628 2.78939 3.39158C2.80901 3.39351 2.83346 3.3959 2.85401 3.39782C3.02894 3.22357 3.21265 3.01875 3.43115 2.77951C3.61786 2.56115 3.85484 2.34302 4.14209 2.12512C4.42933 1.90722 4.76685 1.68955 5.15464 1.47211L6.60514 0.336098C7.9935 0.891513 8.57579 1.42212 9.13851 1.95213L9.13895 1.95289C9.26934 1.97658 9.39923 2.00733 9.52825 2.04719C8.90813 1.27463 8.15357 0.536748 6.61967 0ZM9.34804 2.39828C9.37703 2.40322 9.39936 2.40604 9.43001 2.41137C8.73327 2.36732 8.19037 2.50591 7.80249 2.72304C8.61943 2.61338 9.28796 2.61326 9.80812 2.72266C9.80319 2.72464 9.79917 2.72691 9.79426 2.7289C9.82293 2.71928 9.84878 2.70801 9.87806 2.69876C9.82298 2.71954 9.77089 2.74108 9.71922 2.76277C9.64134 2.79585 9.56525 2.82953 9.49363 2.8646C9.13679 3.04066 8.86911 3.24476 8.65171 3.48261C9.59645 2.97437 10.4934 2.43976 13.2216 4.53094C11.9346 4.97988 12.0851 5.3196 10.9481 5.69701C9.64035 6.13109 9.15894 5.42743 8.49675 5.85143C8.64758 6.39756 9.00071 6.77168 9.41014 7.01682C11.3374 7.83408 12.9402 5.43322 14.0556 5.8369C14.1051 5.69696 14.1454 5.55605 14.1754 5.41457C14.2811 4.91622 12.7575 4.97184 11.8937 6.04711C12.236 5.18648 13.5482 4.49599 13.9543 5.01332C14.0771 4.91274 13.9573 4.75208 13.8577 4.6346C12.8506 3.44738 11.6045 2.44175 9.34804 2.39828ZM3.8225 4.54494C3.7691 4.59184 3.7157 4.63868 3.66328 4.68605L3.90051 4.75463L3.8225 4.54494ZM3.33122 5.02854C3.31742 5.03071 3.30351 5.03136 3.28974 5.0338C3.48052 5.34988 4.32913 5.39323 5.20678 5.92709C6.16875 6.51224 6.9931 7.48405 7.9458 8.08395C6.99976 7.40687 6.57593 6.48538 5.44325 5.74283C4.30381 4.99585 3.5752 5.15635 3.33122 5.02854ZM0.446673 5.28062C0.38003 5.38183 0.328956 5.50226 0.28418 5.62897L1.10083 6.73522C1.12959 6.73808 1.15984 6.74379 1.19315 6.75554C0.936059 6.258 0.634536 5.72871 0.446673 5.28062ZM2.99451 5.32225C2.39166 5.91833 1.844 6.50426 1.30762 6.97983L1.57712 7.05488C1.67099 6.93748 1.76633 6.79309 1.89305 6.70812C2.08416 6.49109 2.26848 6.27384 2.32802 6.2093L2.50353 6.02413C2.50379 6.02543 2.50418 6.02642 2.50444 6.02771C2.6519 5.87643 2.84478 5.68432 3.05342 5.50818L2.99451 5.32225ZM8.3953 5.82959L7.86809 6.00198C7.91749 6.46519 8.05704 6.92441 8.35847 7.19035C8.03054 6.94328 7.78467 6.59049 7.64578 6.18716C7.54554 6.18558 7.45608 6.17673 7.37201 6.16417L6.63695 6.40452C6.72705 6.50729 6.80382 6.61455 6.88042 6.7219C6.917 6.77135 6.95912 6.82828 6.99763 6.88089C7.32638 7.31774 7.76702 7.71664 9.26158 7.75775C8.37446 6.94708 8.47477 6.41355 8.3953 5.82959ZM4.16819 7.21204C3.91674 7.54433 4.27101 8.15494 4.50794 8.31175C4.3527 8.19443 3.87155 7.9086 3.77912 7.46541C3.77661 7.46484 3.7741 7.46393 3.77159 7.46336C3.57625 7.55352 3.28805 7.62204 2.71039 7.6394C2.71002 7.64181 2.7096 7.64422 2.70924 7.64663C2.91557 8.44796 4.09934 8.45101 5.0375 8.49601L5.02677 8.48018C4.62705 8.09999 4.30483 7.57244 4.16819 7.21204ZM2.46304 7.75676C2.14296 7.80026 1.84847 7.84379 1.4364 7.88729C1.43628 7.88807 1.43621 7.88886 1.43609 7.88964C1.54065 8.04068 2.02502 8.373 3.02091 8.34912C2.91111 8.31079 2.82088 8.26154 2.74487 8.20466C2.73128 8.19468 2.71922 8.18477 2.7078 8.1749C2.57423 8.06191 2.49523 7.92011 2.46326 7.75706C2.46317 7.75696 2.46312 7.75686 2.46304 7.75676ZM1.17055 7.85882L0.669749 7.92306C0.953336 8.13186 1.32437 8.38303 1.79936 8.64031C1.64785 8.49207 1.50556 8.31872 1.38967 8.166C1.3043 8.07388 1.23779 7.96605 1.17055 7.85882ZM11.1461 9.26555C10.9371 9.74117 11.273 10.1344 10.2459 10.8004C10.5148 10.6495 11.4605 10.2029 11.1461 9.26555Z" fill="#FFB938"/>
<path d="M9.34743 2.39844C9.37642 2.40338 9.39876 2.4062 9.4294 2.41153C7.01027 2.25856 6.43486 4.3019 7.82776 4.22263C8.04549 3.82928 8.38359 3.46142 8.86163 3.16022L9.66435 2.41328C9.56032 2.40681 9.45606 2.40053 9.34743 2.39844ZM8.13075 2.43094C4.58253 3.16075 5.11962 4.14784 5.8904 4.34935C5.99818 4.11711 6.35125 3.71704 6.79602 3.56641C6.98235 3.07783 7.60283 2.67347 8.13075 2.43094ZM5.25336 3.47272C4.89257 3.69285 4.5544 3.93615 4.23509 4.19317C4.03755 4.39188 3.99392 4.45393 4.07717 4.55271C4.14894 4.63789 4.2417 4.69646 4.3574 4.75311C4.49154 4.34636 4.70226 4.04684 5.05654 3.76011C5.08626 3.65643 5.155 3.56205 5.25336 3.47272ZM6.7808 3.90198C6.68381 3.92879 6.56997 3.98573 6.46548 4.0736C6.28316 4.22692 6.14015 4.45482 6.1226 4.66299C6.1029 4.8968 6.15379 5.06629 6.28198 5.19173C6.37577 5.28351 6.52304 5.35751 6.74046 5.39479C6.84953 4.99727 7.26588 4.64711 7.64243 4.5792C7.18022 4.57179 6.84366 4.28141 6.7808 3.90198ZM5.07488 4.06881C4.81489 4.25683 4.68582 4.59733 4.62789 4.87458C4.78401 4.943 4.96638 5.02685 5.18235 5.15588C5.35384 4.95683 5.54837 4.76357 5.75111 4.72236C5.75151 4.71606 5.75157 4.70994 5.7521 4.70356C5.75541 4.66429 5.76203 4.62455 5.77136 4.58475C5.4273 4.53672 5.17192 4.33573 5.07488 4.06881ZM7.56488 4.93341C7.55274 4.93863 7.54073 4.94343 7.52834 4.94947C7.36204 5.03055 7.19634 5.18526 7.10723 5.33786C7.01812 5.49045 7.00796 5.61087 7.06781 5.69397C7.11853 5.7644 7.26164 5.84641 7.55985 5.86537C7.50253 5.56639 7.50083 5.24956 7.56488 4.93341ZM5.81124 5.07954C5.67375 5.12037 5.56542 5.22155 5.47187 5.34471C5.71709 5.51745 5.99623 5.74818 6.31265 6.0644C6.42043 5.95068 6.52355 5.83178 6.60978 5.69412C6.37914 5.64394 6.19491 5.55253 6.05898 5.41952C5.95093 5.3138 5.86507 5.20354 5.81124 5.07954ZM6.90676 5.98456C6.74395 6.07221 6.67406 6.21287 6.63634 6.40468L7.62843 6.19142L7.63506 6.18663C7.30432 6.1801 7.06255 6.11388 6.90676 5.98456Z" fill="#FFB938"/>
<path d="M10.8708 3.79297C10.1964 3.79297 9.88364 4.52968 10.4815 4.91277C10.4818 4.91187 10.4821 4.91093 10.4825 4.91003C10.3378 4.79505 10.2432 4.61966 10.2432 4.42049C10.2432 4.0739 10.5242 3.79295 10.8708 3.79297Z" fill="#FFB938"/>
<path d="M8.35433 3.87793C8.21763 4.09151 8.09745 4.32484 7.98055 4.58651C7.89485 4.77834 7.80608 5.37463 7.86449 5.97124L7.86883 5.9771L8.3949 5.82998L8.39446 5.82131C8.27101 5.29289 8.32454 4.6839 8.64166 4.05526L8.35433 3.87793Z" fill="#FFB938"/>
</svg>
