<svg width="10" height="10" viewBox="0 0 10 10" fill="none" xmlns="http://www.w3.org/2000/svg">
<g clip-path="url(#clip0_3158_4)">
<path d="M8.33333 4.375C8.05245 4.38463 7.77325 4.4226 7.5 4.48833V3.75C7.5 3.41848 7.3683 3.10054 7.13388 2.86612C6.89946 2.6317 6.58152 2.5 6.25 2.5H5.30333C5.36932 2.22679 5.40729 1.94757 5.41667 1.66667C5.41667 1.22464 5.24107 0.800716 4.92851 0.488155C4.61595 0.175595 4.19203 0 3.75 0C3.30797 0 2.88405 0.175595 2.57149 0.488155C2.25893 0.800716 2.08333 1.22464 2.08333 1.66667C2.09271 1.94757 2.13068 2.22679 2.19667 2.5H1.25C0.918479 2.5 0.600537 2.6317 0.366117 2.86612C0.131696 3.10054 0 3.41848 0 3.75L0 10H2.72333L2.625 9.58333C2.55471 9.31061 2.51282 9.03135 2.5 8.75C2.5 8.41848 2.6317 8.10054 2.86612 7.86612C3.10054 7.6317 3.41848 7.5 3.75 7.5C4.08152 7.5 4.39946 7.6317 4.63388 7.86612C4.8683 8.10054 5 8.41848 5 8.75C4.98718 9.03135 4.94529 9.31061 4.875 9.58333L4.77625 10H7.5V7.595C7.77325 7.66073 8.05245 7.6987 8.33333 7.70833C8.77536 7.70833 9.19928 7.53274 9.51184 7.22018C9.8244 6.90762 10 6.48369 10 6.04167C10 5.59964 9.8244 5.17572 9.51184 4.86316C9.19928 4.55059 8.77536 4.375 8.33333 4.375Z" fill="#FFB938"/>
</g>
<defs>
<clipPath id="clip0_3158_4">
<rect width="10" height="10" fill="white"/>
</clipPath>
</defs>
</svg>
