<svg width="15" height="14" viewBox="0 0 15 14" fill="none" xmlns="http://www.w3.org/2000/svg">
<path d="M1.79549 6.19043H0.897461V6.95168H1.79549V6.19043Z" fill="#FFB938"/>
<path d="M0.898031 3.1416H0V6.1866H0.898031V3.1416Z" fill="#FFB938"/>
<path d="M13.8045 6.19043H12.793V6.95168H13.8045V6.19043Z" fill="#FFB938"/>
<path d="M14.8172 3.1416H13.8057V6.1866H14.8172V3.1416Z" fill="#FFB938"/>
<path d="M11.0006 6.18917V6.95333H12.795V7.81083H10.1034V8.47583H9.20273V9.33333H8.19551V12.4775H10.1034V14H4.48977V12.4775H6.51108V9.33333H5.50042V8.47583H4.48977V7.81083H1.79468V6.95333H3.70255V6.18917H2.80534V3.14417H0.897461V2.28667H2.80534V0.76125H1.79468V0H12.795V0.76125H12.0113V2.28667H13.8057V3.14417H12.0113V6.18917H11.0006Z" fill="#FFB938"/>
</svg>
