<svg width="107" height="19" viewBox="0 0 107 19" fill="none" xmlns="http://www.w3.org/2000/svg">
<path d="M44.1332 7.02004C44.2952 6.51556 44.6188 6.07547 45.0561 5.76487C45.4935 5.45426 46.0213 5.28962 46.5617 5.2953H50.0211L51.0719 2.09066C51.2371 1.58623 51.5618 1.14617 51.9991 0.833962C52.4364 0.521751 52.9638 0.353516 53.5051 0.353516C54.0464 0.353516 54.5738 0.521751 55.0111 0.833962C55.4484 1.14617 55.7731 1.58623 55.9383 2.09066L56.989 5.2953H60.4485C60.9871 5.29605 61.5117 5.46335 61.9474 5.77329C62.383 6.08323 62.7075 6.51997 62.8743 7.02112C63.0412 7.52227 63.0419 8.06219 62.8764 8.56378C62.711 9.06536 62.3877 9.50295 61.9529 9.81403L59.1372 11.8285L60.2078 15.0727C60.3808 15.5759 60.383 16.1203 60.214 16.6247C60.0451 17.1292 59.714 17.5667 59.2703 17.8721C58.8341 18.1873 58.3055 18.3561 57.7633 18.3535C57.2211 18.3508 56.6943 18.1768 56.2614 17.8574L53.5051 15.8723L50.748 17.8551C50.3126 18.1684 49.7869 18.3387 49.2464 18.3412C48.706 18.3438 48.1786 18.1786 47.7401 17.8694C47.3016 17.5602 46.9746 17.1229 46.8061 16.6204C46.6377 16.1179 46.6364 15.576 46.8024 15.0727L47.8729 11.8285L45.0541 9.81403C44.6143 9.50685 44.2873 9.06927 44.1214 8.56607C43.9556 8.06286 43.9597 7.52077 44.1332 7.02004ZM45.9884 8.5627L49.2697 10.9096C49.4045 11.0058 49.5047 11.1412 49.5562 11.2965C49.6077 11.4518 49.6077 11.619 49.5563 11.7743L48.3092 15.5477C48.2461 15.739 48.2467 15.9451 48.3108 16.1362C48.3749 16.3272 48.4992 16.4935 48.666 16.611C48.8327 16.7285 49.0333 16.7913 49.2388 16.7903C49.4443 16.7893 49.6442 16.7245 49.8097 16.6053L53.0363 14.2808C53.1722 14.1832 53.3365 14.1305 53.5051 14.1305C53.6737 14.1305 53.8379 14.1832 53.9738 14.2808L57.2005 16.6053C57.3659 16.7261 57.5663 16.7922 57.7727 16.794C57.9791 16.7959 58.1808 16.7333 58.3484 16.6155C58.516 16.4976 58.641 16.3306 58.7051 16.1386C58.7692 15.9466 58.7691 15.7396 58.7049 15.5477L57.4538 11.7743C57.4024 11.619 57.4025 11.4518 57.454 11.2965C57.5054 11.1412 57.6057 11.0058 57.7405 10.9096L61.0217 8.5627C61.187 8.4443 61.3098 8.27784 61.3726 8.08707C61.4353 7.89631 61.4349 7.69101 61.3713 7.5005C61.3078 7.30999 61.1843 7.14402 61.0185 7.02628C60.8528 6.90855 60.6533 6.84507 60.4485 6.84493H56.4102C56.2426 6.84493 56.0793 6.79286 55.9438 6.69623C55.8084 6.59959 55.7077 6.46338 55.6564 6.30721L54.4291 2.56408C54.3661 2.37253 54.2426 2.20548 54.0765 2.08698C53.9103 1.96848 53.7099 1.90463 53.5043 1.90463C53.2987 1.90463 53.0983 1.96848 52.9321 2.08698C52.7659 2.20548 52.6425 2.37253 52.5795 2.56408L51.3522 6.30721C51.3009 6.46338 51.2002 6.59959 51.0648 6.69623C50.9293 6.79286 50.766 6.84493 50.5984 6.84493H46.5601C46.3553 6.84507 46.1558 6.90855 45.99 7.02628C45.8243 7.14402 45.7008 7.30999 45.6373 7.5005C45.5737 7.69101 45.5732 7.89631 45.636 8.08707C45.6988 8.27784 45.8216 8.4443 45.9868 8.5627H45.9884Z" fill="#FFFFFF"/>
<path d="M66.1332 7.02004C66.2952 6.51556 66.6188 6.07547 67.0561 5.76487C67.4935 5.45426 68.0213 5.28962 68.5617 5.2953H72.0211L73.0719 2.09066C73.2371 1.58623 73.5618 1.14617 73.9991 0.833962C74.4364 0.521751 74.9638 0.353516 75.5051 0.353516C76.0464 0.353516 76.5738 0.521751 77.0111 0.833962C77.4484 1.14617 77.7731 1.58623 77.9383 2.09066L78.989 5.2953H82.4485C82.9871 5.29605 83.5117 5.46335 83.9474 5.77329C84.383 6.08323 84.7075 6.51997 84.8743 7.02112C85.0412 7.52227 85.0419 8.06219 84.8764 8.56378C84.711 9.06536 84.3877 9.50295 83.9529 9.81403L81.1372 11.8285L82.2078 15.0727C82.3808 15.5759 82.383 16.1203 82.214 16.6247C82.0451 17.1292 81.714 17.5667 81.2703 17.8721C80.8341 18.1873 80.3055 18.3561 79.7633 18.3535C79.2211 18.3508 78.6943 18.1768 78.2614 17.8574L75.5051 15.8723L72.748 17.8551C72.3126 18.1684 71.7869 18.3387 71.2464 18.3412C70.706 18.3438 70.1786 18.1786 69.7401 17.8694C69.3016 17.5602 68.9746 17.1229 68.8061 16.6204C68.6377 16.1179 68.6364 15.576 68.8024 15.0727L69.8729 11.8285L67.0541 9.81403C66.6143 9.50685 66.2873 9.06927 66.1214 8.56607C65.9556 8.06286 65.9597 7.52077 66.1332 7.02004ZM67.9884 8.5627L71.2697 10.9096C71.4045 11.0058 71.5047 11.1412 71.5562 11.2965C71.6077 11.4518 71.6077 11.619 71.5563 11.7743L70.3092 15.5477C70.2461 15.739 70.2467 15.9451 70.3108 16.1362C70.3749 16.3272 70.4992 16.4935 70.666 16.611C70.8327 16.7285 71.0333 16.7913 71.2388 16.7903C71.4443 16.7893 71.6442 16.7245 71.8097 16.6053L75.0363 14.2808C75.1722 14.1832 75.3365 14.1305 75.5051 14.1305C75.6737 14.1305 75.8379 14.1832 75.9738 14.2808L79.2005 16.6053C79.3659 16.7261 79.5663 16.7922 79.7727 16.794C79.9791 16.7959 80.1808 16.7333 80.3484 16.6155C80.516 16.4976 80.641 16.3306 80.7051 16.1386C80.7692 15.9466 80.7691 15.7396 80.7049 15.5477L79.4538 11.7743C79.4024 11.619 79.4025 11.4518 79.454 11.2965C79.5054 11.1412 79.6057 11.0058 79.7405 10.9096L83.0217 8.5627C83.187 8.4443 83.3098 8.27784 83.3726 8.08707C83.4353 7.89631 83.4349 7.69101 83.3713 7.5005C83.3078 7.30999 83.1843 7.14402 83.0185 7.02628C82.8528 6.90855 82.6533 6.84507 82.4485 6.84493H78.4102C78.2426 6.84493 78.0793 6.79286 77.9438 6.69623C77.8084 6.59959 77.7077 6.46338 77.6564 6.30721L76.4291 2.56408C76.3661 2.37253 76.2426 2.20548 76.0765 2.08698C75.9103 1.96848 75.7099 1.90463 75.5043 1.90463C75.2987 1.90463 75.0983 1.96848 74.9321 2.08698C74.7659 2.20548 74.6425 2.37253 74.5795 2.56408L73.3522 6.30721C73.3009 6.46338 73.2002 6.59959 73.0648 6.69623C72.9293 6.79286 72.766 6.84493 72.5984 6.84493H68.5601C68.3553 6.84507 68.1558 6.90855 67.99 7.02628C67.8243 7.14402 67.7008 7.30999 67.6373 7.5005C67.5737 7.69101 67.5732 7.89631 67.636 8.08707C67.6988 8.27784 67.8216 8.4443 67.9868 8.5627H67.9884Z" fill="#FFFFFF"/>
<path d="M88.1332 7.02004C88.2952 6.51556 88.6188 6.07547 89.0561 5.76487C89.4935 5.45426 90.0213 5.28962 90.5617 5.2953H94.0211L95.0719 2.09066C95.2371 1.58623 95.5618 1.14617 95.9991 0.833962C96.4364 0.521751 96.9638 0.353516 97.5051 0.353516C98.0464 0.353516 98.5738 0.521751 99.0111 0.833962C99.4484 1.14617 99.7731 1.58623 99.9383 2.09066L100.989 5.2953H104.448C104.987 5.29605 105.512 5.46335 105.947 5.77329C106.383 6.08323 106.707 6.51997 106.874 7.02112C107.041 7.52227 107.042 8.06219 106.876 8.56378C106.711 9.06536 106.388 9.50295 105.953 9.81403L103.137 11.8285L104.208 15.0727C104.381 15.5759 104.383 16.1203 104.214 16.6247C104.045 17.1292 103.714 17.5667 103.27 17.8721C102.834 18.1873 102.306 18.3561 101.763 18.3535C101.221 18.3508 100.694 18.1768 100.261 17.8574L97.5051 15.8723L94.748 17.8551C94.3126 18.1684 93.7869 18.3387 93.2464 18.3412C92.706 18.3438 92.1786 18.1786 91.7401 17.8694C91.3016 17.5602 90.9746 17.1229 90.8061 16.6204C90.6377 16.1179 90.6364 15.576 90.8024 15.0727L91.8729 11.8285L89.0541 9.81403C88.6143 9.50685 88.2873 9.06927 88.1214 8.56607C87.9556 8.06286 87.9597 7.52077 88.1332 7.02004ZM89.9884 8.5627L93.2697 10.9096C93.4045 11.0058 93.5047 11.1412 93.5562 11.2965C93.6077 11.4518 93.6077 11.619 93.5563 11.7743L92.3092 15.5477C92.2461 15.739 92.2467 15.9451 92.3108 16.1362C92.3749 16.3272 92.4992 16.4935 92.666 16.611C92.8327 16.7285 93.0333 16.7913 93.2388 16.7903C93.4443 16.7893 93.6442 16.7245 93.8097 16.6053L97.0363 14.2808C97.1722 14.1832 97.3365 14.1305 97.5051 14.1305C97.6737 14.1305 97.8379 14.1832 97.9738 14.2808L101.2 16.6053C101.366 16.7261 101.566 16.7922 101.773 16.794C101.979 16.7959 102.181 16.7333 102.348 16.6155C102.516 16.4976 102.641 16.3306 102.705 16.1386C102.769 15.9466 102.769 15.7396 102.705 15.5477L101.454 11.7743C101.402 11.619 101.402 11.4518 101.454 11.2965C101.505 11.1412 101.606 11.0058 101.74 10.9096L105.022 8.5627C105.187 8.4443 105.31 8.27784 105.373 8.08707C105.435 7.89631 105.435 7.69101 105.371 7.5005C105.308 7.30999 105.184 7.14402 105.019 7.02628C104.853 6.90855 104.653 6.84507 104.448 6.84493H100.41C100.243 6.84493 100.079 6.79286 99.9438 6.69623C99.8084 6.59959 99.7077 6.46338 99.6564 6.30721L98.4291 2.56408C98.3661 2.37253 98.2426 2.20548 98.0765 2.08698C97.9103 1.96848 97.7099 1.90463 97.5043 1.90463C97.2987 1.90463 97.0983 1.96848 96.9321 2.08698C96.7659 2.20548 96.6425 2.37253 96.5795 2.56408L95.3522 6.30721C95.3009 6.46338 95.2002 6.59959 95.0648 6.69623C94.9293 6.79286 94.766 6.84493 94.5984 6.84493H90.5601C90.3553 6.84507 90.1558 6.90855 89.99 7.02628C89.8243 7.14402 89.7008 7.30999 89.6373 7.5005C89.5737 7.69101 89.5732 7.89631 89.636 8.08707C89.6988 8.27784 89.8216 8.4443 89.9868 8.5627H89.9884Z" fill="#FFFFFF"/>
<path d="M18.3415 9.87901L15.4611 11.9826L16.555 15.3703C16.7318 15.8957 16.734 16.4642 16.5614 16.991C16.3888 17.5178 16.0505 17.9747 15.5971 18.2935C15.1514 18.6227 14.6113 18.799 14.0572 18.7962C13.5032 18.7934 12.9649 18.6117 12.5225 18.2782L9.70607 16.2053L6.88882 18.2757C6.44393 18.603 5.90675 18.7807 5.35448 18.7834C4.80222 18.7861 4.26332 18.6136 3.81527 18.2907C3.36722 17.9678 3.0331 17.5112 2.86093 16.9864C2.68877 16.4617 2.68743 15.8959 2.85712 15.3703L3.95101 11.9826L1.07065 9.87901C0.626342 9.55416 0.296057 9.09722 0.126967 8.57345C-0.0421221 8.04968 -0.0413661 7.48587 0.129125 6.96255C0.299616 6.43923 0.631122 5.98317 1.07629 5.65952C1.52146 5.33587 2.05753 5.16117 2.60792 5.16039H6.14607L7.21973 1.81399C7.38857 1.28724 7.72035 0.827721 8.1672 0.501699C8.61406 0.175678 9.15292 0 9.70607 0C10.2592 0 10.7981 0.175678 11.2449 0.501699C11.6918 0.827721 12.0236 1.28724 12.1924 1.81399L13.2661 5.16039H16.801C17.3514 5.16117 17.8874 5.33587 18.3326 5.65952C18.7778 5.98317 19.1093 6.43923 19.2798 6.96255C19.4503 7.48587 19.451 8.04968 19.2819 8.57345C19.1128 9.09722 18.7826 9.55416 18.3383 9.87901H18.3415Z" fill="#FFFFFF"/>
<path d="M40.3415 9.87901L37.4611 11.9826L38.555 15.3703C38.7318 15.8957 38.734 16.4642 38.5614 16.991C38.3888 17.5178 38.0505 17.9747 37.5971 18.2935C37.1514 18.6227 36.6113 18.799 36.0572 18.7962C35.5032 18.7934 34.9649 18.6117 34.5225 18.2782L31.7061 16.2053L28.8888 18.2757C28.4439 18.603 27.9067 18.7807 27.3545 18.7834C26.8022 18.7861 26.2633 18.6136 25.8153 18.2907C25.3672 17.9678 25.0331 17.5112 24.8609 16.9864C24.6888 16.4617 24.6874 15.8959 24.8571 15.3703L25.951 11.9826L23.0706 9.87901C22.6263 9.55416 22.2961 9.09722 22.127 8.57345C21.9579 8.04968 21.9586 7.48587 22.1291 6.96255C22.2996 6.43923 22.6311 5.98317 23.0763 5.65952C23.5215 5.33587 24.0575 5.16117 24.6079 5.16039H28.1461L29.2197 1.81399C29.3886 1.28724 29.7203 0.827721 30.1672 0.501699C30.6141 0.175678 31.1529 0 31.7061 0C32.2592 0 32.7981 0.175678 33.2449 0.501699C33.6918 0.827721 34.0236 1.28724 34.1924 1.81399L35.2661 5.16039H38.801C39.3514 5.16117 39.8874 5.33587 40.3326 5.65952C40.7778 5.98317 41.1093 6.43923 41.2798 6.96255C41.4503 7.48587 41.451 8.04968 41.2819 8.57345C41.1128 9.09722 40.7826 9.55416 40.3383 9.87901H40.3415Z" fill="#FFFFFF"/>
</svg>
