<svg width="107" height="19" viewBox="0 0 107 19" fill="none" xmlns="http://www.w3.org/2000/svg">
<path d="M88.1332 7.02004C88.2952 6.51556 88.6188 6.07547 89.0561 5.76487C89.4935 5.45426 90.0213 5.28962 90.5617 5.2953H94.0211L95.0719 2.09066C95.2371 1.58623 95.5618 1.14617 95.9991 0.833962C96.4364 0.521751 96.9638 0.353516 97.5051 0.353516C98.0464 0.353516 98.5738 0.521751 99.0111 0.833962C99.4484 1.14617 99.7731 1.58623 99.9383 2.09066L100.989 5.2953H104.448C104.987 5.29605 105.512 5.46335 105.947 5.77329C106.383 6.08323 106.707 6.51997 106.874 7.02112C107.041 7.52227 107.042 8.06219 106.876 8.56378C106.711 9.06536 106.388 9.50295 105.953 9.81403L103.137 11.8285L104.208 15.0727C104.381 15.5759 104.383 16.1203 104.214 16.6247C104.045 17.1292 103.714 17.5667 103.27 17.8721C102.834 18.1873 102.306 18.3561 101.763 18.3535C101.221 18.3508 100.694 18.1768 100.261 17.8574L97.5051 15.8723L94.748 17.8551C94.3126 18.1684 93.7869 18.3387 93.2464 18.3412C92.706 18.3438 92.1786 18.1786 91.7401 17.8694C91.3016 17.5602 90.9746 17.1229 90.8061 16.6204C90.6377 16.1179 90.6364 15.576 90.8024 15.0727L91.8729 11.8285L89.0541 9.81403C88.6143 9.50685 88.2873 9.06927 88.1214 8.56607C87.9556 8.06286 87.9597 7.52077 88.1332 7.02004ZM89.9884 8.5627L93.2697 10.9096C93.4045 11.0058 93.5047 11.1412 93.5562 11.2965C93.6077 11.4518 93.6077 11.619 93.5563 11.7743L92.3092 15.5477C92.2461 15.739 92.2467 15.9451 92.3108 16.1362C92.3749 16.3272 92.4992 16.4935 92.666 16.611C92.8327 16.7285 93.0333 16.7913 93.2388 16.7903C93.4443 16.7893 93.6442 16.7245 93.8097 16.6053L97.0363 14.2808C97.1722 14.1832 97.3365 14.1305 97.5051 14.1305C97.6737 14.1305 97.8379 14.1832 97.9738 14.2808L101.2 16.6053C101.366 16.7261 101.566 16.7922 101.773 16.794C101.979 16.7959 102.181 16.7333 102.348 16.6155C102.516 16.4976 102.641 16.3306 102.705 16.1386C102.769 15.9466 102.769 15.7396 102.705 15.5477L101.454 11.7743C101.402 11.619 101.402 11.4518 101.454 11.2965C101.505 11.1412 101.606 11.0058 101.74 10.9096L105.022 8.5627C105.187 8.4443 105.31 8.27784 105.373 8.08707C105.435 7.89631 105.435 7.69101 105.371 7.5005C105.308 7.30999 105.184 7.14402 105.019 7.02628C104.853 6.90855 104.653 6.84507 104.448 6.84493H100.41C100.243 6.84493 100.079 6.79286 99.9438 6.69623C99.8084 6.59959 99.7077 6.46338 99.6564 6.30721L98.4291 2.56408C98.3661 2.37253 98.2426 2.20548 98.0765 2.08698C97.9103 1.96848 97.7099 1.90463 97.5043 1.90463C97.2987 1.90463 97.0983 1.96848 96.9321 2.08698C96.7659 2.20548 96.6425 2.37253 96.5795 2.56408L95.3522 6.30721C95.3009 6.46338 95.2002 6.59959 95.0648 6.69623C94.9293 6.79286 94.766 6.84493 94.5984 6.84493H90.5601C90.3553 6.84507 90.1558 6.90855 89.99 7.02628C89.8243 7.14402 89.7008 7.30999 89.6373 7.5005C89.5737 7.69101 89.5732 7.89631 89.636 8.08707C89.6988 8.27784 89.8216 8.4443 89.9868 8.5627H89.9884Z" fill="#FFFFFF"/>
<path d="M18.3415 9.87901L15.4611 11.9826L16.555 15.3703C16.7318 15.8957 16.734 16.4642 16.5614 16.991C16.3888 17.5178 16.0505 17.9747 15.5971 18.2935C15.1514 18.6227 14.6113 18.799 14.0572 18.7962C13.5032 18.7934 12.9649 18.6117 12.5225 18.2782L9.70607 16.2053L6.88882 18.2757C6.44393 18.603 5.90675 18.7807 5.35448 18.7834C4.80222 18.7861 4.26332 18.6136 3.81527 18.2907C3.36722 17.9678 3.0331 17.5112 2.86093 16.9864C2.68877 16.4617 2.68743 15.8959 2.85712 15.3703L3.95101 11.9826L1.07065 9.87901C0.626342 9.55416 0.296057 9.09722 0.126967 8.57345C-0.0421221 8.04968 -0.0413661 7.48587 0.129125 6.96255C0.299616 6.43923 0.631122 5.98317 1.07629 5.65952C1.52146 5.33587 2.05753 5.16117 2.60792 5.16039H6.14607L7.21973 1.81399C7.38857 1.28724 7.72035 0.827721 8.1672 0.501699C8.61406 0.175678 9.15292 0 9.70607 0C10.2592 0 10.7981 0.175678 11.2449 0.501699C11.6918 0.827721 12.0236 1.28724 12.1924 1.81399L13.2661 5.16039H16.801C17.3514 5.16117 17.8874 5.33587 18.3326 5.65952C18.7778 5.98317 19.1093 6.43923 19.2798 6.96255C19.4503 7.48587 19.451 8.04968 19.2819 8.57345C19.1128 9.09722 18.7826 9.55416 18.3383 9.87901H18.3415Z" fill="#FFFFFF"/>
<path d="M40.3415 9.87901L37.4611 11.9826L38.555 15.3703C38.7318 15.8957 38.734 16.4642 38.5614 16.991C38.3888 17.5178 38.0505 17.9747 37.5971 18.2935C37.1514 18.6227 36.6113 18.799 36.0572 18.7962C35.5032 18.7934 34.9649 18.6117 34.5225 18.2782L31.7061 16.2053L28.8888 18.2757C28.4439 18.603 27.9067 18.7807 27.3545 18.7834C26.8022 18.7861 26.2633 18.6136 25.8153 18.2907C25.3672 17.9678 25.0331 17.5112 24.8609 16.9864C24.6888 16.4617 24.6874 15.8959 24.8571 15.3703L25.951 11.9826L23.0706 9.87901C22.6263 9.55416 22.2961 9.09722 22.127 8.57345C21.9579 8.04968 21.9586 7.48587 22.1291 6.96255C22.2996 6.43923 22.6311 5.98317 23.0763 5.65952C23.5215 5.33587 24.0575 5.16117 24.6079 5.16039H28.1461L29.2197 1.81399C29.3886 1.28724 29.7203 0.827721 30.1672 0.501699C30.6141 0.175678 31.1529 0 31.7061 0C32.2592 0 32.7981 0.175678 33.2449 0.501699C33.6918 0.827721 34.0236 1.28724 34.1924 1.81399L35.2661 5.16039H38.801C39.3514 5.16117 39.8874 5.33587 40.3326 5.65952C40.7778 5.98317 41.1093 6.43923 41.2798 6.96255C41.4503 7.48587 41.451 8.04968 41.2819 8.57345C41.1128 9.09722 40.7826 9.55416 40.3383 9.87901H40.3415Z" fill="#FFFFFF"/>
<path d="M62.3415 9.87901L59.4611 11.9826L60.555 15.3703C60.7318 15.8957 60.734 16.4642 60.5614 16.991C60.3888 17.5178 60.0505 17.9747 59.5971 18.2935C59.1514 18.6227 58.6113 18.799 58.0572 18.7962C57.5032 18.7934 56.9649 18.6117 56.5225 18.2782L53.7061 16.2053L50.8888 18.2757C50.4439 18.603 49.9067 18.7807 49.3545 18.7834C48.8022 18.7861 48.2633 18.6136 47.8153 18.2907C47.3672 17.9678 47.0331 17.5112 46.8609 16.9864C46.6888 16.4617 46.6874 15.8959 46.8571 15.3703L47.951 11.9826L45.0706 9.87901C44.6263 9.55416 44.2961 9.09722 44.127 8.57345C43.9579 8.04968 43.9586 7.48587 44.1291 6.96255C44.2996 6.43923 44.6311 5.98317 45.0763 5.65952C45.5215 5.33587 46.0575 5.16117 46.6079 5.16039H50.1461L51.2197 1.81399C51.3886 1.28724 51.7203 0.827721 52.1672 0.501699C52.6141 0.175678 53.1529 0 53.7061 0C54.2592 0 54.7981 0.175678 55.2449 0.501699C55.6918 0.827721 56.0236 1.28724 56.1924 1.81399L57.2661 5.16039H60.801C61.3514 5.16117 61.8874 5.33587 62.3326 5.65952C62.7778 5.98317 63.1093 6.43923 63.2798 6.96255C63.4503 7.48587 63.451 8.04968 63.2819 8.57345C63.1128 9.09722 62.7826 9.55416 62.3383 9.87901H62.3415Z" fill="#FFFFFF"/>
<path d="M84.3415 9.87901L81.4611 11.9826L82.555 15.3703C82.7318 15.8957 82.734 16.4642 82.5614 16.991C82.3888 17.5178 82.0505 17.9747 81.5971 18.2935C81.1514 18.6227 80.6113 18.799 80.0572 18.7962C79.5032 18.7934 78.9649 18.6117 78.5225 18.2782L75.7061 16.2053L72.8888 18.2757C72.4439 18.603 71.9067 18.7807 71.3545 18.7834C70.8022 18.7861 70.2633 18.6136 69.8153 18.2907C69.3672 17.9678 69.0331 17.5112 68.8609 16.9864C68.6888 16.4617 68.6874 15.8959 68.8571 15.3703L69.951 11.9826L67.0706 9.87901C66.6263 9.55416 66.2961 9.09722 66.127 8.57345C65.9579 8.04968 65.9586 7.48587 66.1291 6.96255C66.2996 6.43923 66.6311 5.98317 67.0763 5.65952C67.5215 5.33587 68.0575 5.16117 68.6079 5.16039H72.1461L73.2197 1.81399C73.3886 1.28724 73.7203 0.827721 74.1672 0.501699C74.6141 0.175678 75.1529 0 75.7061 0C76.2592 0 76.7981 0.175678 77.2449 0.501699C77.6918 0.827721 78.0236 1.28724 78.1924 1.81399L79.2661 5.16039H82.801C83.3514 5.16117 83.8874 5.33587 84.3326 5.65952C84.7778 5.98317 85.1093 6.43923 85.2798 6.96255C85.4503 7.48587 85.451 8.04968 85.2819 8.57345C85.1128 9.09722 84.7826 9.55416 84.3383 9.87901H84.3415Z" fill="#FFFFFF"/>
</svg>
