<svg width="108" height="19" viewBox="0 0 108 19" fill="none" xmlns="http://www.w3.org/2000/svg">
<path d="M18.3415 9.87901L15.4611 11.9826L16.555 15.3703C16.7318 15.8957 16.734 16.4642 16.5614 16.991C16.3888 17.5178 16.0505 17.9747 15.5971 18.2935C15.1514 18.6227 14.6113 18.799 14.0572 18.7962C13.5032 18.7934 12.9649 18.6117 12.5225 18.2782L9.70607 16.2053L6.88882 18.2757C6.44393 18.603 5.90675 18.7807 5.35448 18.7834C4.80222 18.7861 4.26332 18.6136 3.81527 18.2907C3.36722 17.9678 3.0331 17.5112 2.86093 16.9864C2.68877 16.4617 2.68743 15.8959 2.85712 15.3703L3.95101 11.9826L1.07065 9.87901C0.626342 9.55416 0.296057 9.09722 0.126967 8.57345C-0.0421221 8.04968 -0.0413661 7.48587 0.129125 6.96255C0.299616 6.43923 0.631122 5.98317 1.07629 5.65952C1.52146 5.33587 2.05753 5.16117 2.60792 5.16039H6.14607L7.21973 1.81399C7.38857 1.28724 7.72035 0.827721 8.1672 0.501699C8.61406 0.175678 9.15292 0 9.70607 0C10.2592 0 10.7981 0.175678 11.2449 0.501699C11.6918 0.827721 12.0236 1.28724 12.1924 1.81399L13.2661 5.16039H16.801C17.3514 5.16117 17.8874 5.33587 18.3326 5.65952C18.7778 5.98317 19.1093 6.43923 19.2798 6.96255C19.4503 7.48587 19.451 8.04968 19.2819 8.57345C19.1128 9.09722 18.7826 9.55416 18.3383 9.87901H18.3415Z" fill="#FFFFFF"/>
<path d="M40.3415 9.87901L37.4611 11.9826L38.555 15.3703C38.7318 15.8957 38.734 16.4642 38.5614 16.991C38.3888 17.5178 38.0505 17.9747 37.5971 18.2935C37.1514 18.6227 36.6113 18.799 36.0572 18.7962C35.5032 18.7934 34.9649 18.6117 34.5225 18.2782L31.7061 16.2053L28.8888 18.2757C28.4439 18.603 27.9067 18.7807 27.3545 18.7834C26.8022 18.7861 26.2633 18.6136 25.8153 18.2907C25.3672 17.9678 25.0331 17.5112 24.8609 16.9864C24.6888 16.4617 24.6874 15.8959 24.8571 15.3703L25.951 11.9826L23.0706 9.87901C22.6263 9.55416 22.2961 9.09722 22.127 8.57345C21.9579 8.04968 21.9586 7.48587 22.1291 6.96255C22.2996 6.43923 22.6311 5.98317 23.0763 5.65952C23.5215 5.33587 24.0575 5.16117 24.6079 5.16039H28.1461L29.2197 1.81399C29.3886 1.28724 29.7203 0.827721 30.1672 0.501699C30.6141 0.175678 31.1529 0 31.7061 0C32.2592 0 32.7981 0.175678 33.2449 0.501699C33.6918 0.827721 34.0236 1.28724 34.1924 1.81399L35.2661 5.16039H38.801C39.3514 5.16117 39.8874 5.33587 40.3326 5.65952C40.7778 5.98317 41.1093 6.43923 41.2798 6.96255C41.4503 7.48587 41.451 8.04968 41.2819 8.57345C41.1128 9.09722 40.7826 9.55416 40.3383 9.87901H40.3415Z" fill="#FFFFFF"/>
<path d="M62.3415 9.87901L59.4611 11.9826L60.555 15.3703C60.7318 15.8957 60.734 16.4642 60.5614 16.991C60.3888 17.5178 60.0505 17.9747 59.5971 18.2935C59.1514 18.6227 58.6113 18.799 58.0572 18.7962C57.5032 18.7934 56.9649 18.6117 56.5225 18.2782L53.7061 16.2053L50.8888 18.2757C50.4439 18.603 49.9067 18.7807 49.3545 18.7834C48.8022 18.7861 48.2633 18.6136 47.8153 18.2907C47.3672 17.9678 47.0331 17.5112 46.8609 16.9864C46.6888 16.4617 46.6874 15.8959 46.8571 15.3703L47.951 11.9826L45.0706 9.87901C44.6263 9.55416 44.2961 9.09722 44.127 8.57345C43.9579 8.04968 43.9586 7.48587 44.1291 6.96255C44.2996 6.43923 44.6311 5.98317 45.0763 5.65952C45.5215 5.33587 46.0575 5.16117 46.6079 5.16039H50.1461L51.2197 1.81399C51.3886 1.28724 51.7203 0.827721 52.1672 0.501699C52.6141 0.175678 53.1529 0 53.7061 0C54.2592 0 54.7981 0.175678 55.2449 0.501699C55.6918 0.827721 56.0236 1.28724 56.1924 1.81399L57.2661 5.16039H60.801C61.3514 5.16117 61.8874 5.33587 62.3326 5.65952C62.7778 5.98317 63.1093 6.43923 63.2798 6.96255C63.4503 7.48587 63.451 8.04968 63.2819 8.57345C63.1128 9.09722 62.7826 9.55416 62.3383 9.87901H62.3415Z" fill="#FFFFFF"/>
<path d="M84.3415 9.87901L81.4611 11.9826L82.555 15.3703C82.7318 15.8957 82.734 16.4642 82.5614 16.991C82.3888 17.5178 82.0505 17.9747 81.5971 18.2935C81.1514 18.6227 80.6113 18.799 80.0572 18.7962C79.5032 18.7934 78.9649 18.6117 78.5225 18.2782L75.7061 16.2053L72.8888 18.2757C72.4439 18.603 71.9067 18.7807 71.3545 18.7834C70.8022 18.7861 70.2633 18.6136 69.8153 18.2907C69.3672 17.9678 69.0331 17.5112 68.8609 16.9864C68.6888 16.4617 68.6874 15.8959 68.8571 15.3703L69.951 11.9826L67.0706 9.87901C66.6263 9.55416 66.2961 9.09722 66.127 8.57345C65.9579 8.04968 65.9586 7.48587 66.1291 6.96255C66.2996 6.43923 66.6311 5.98317 67.0763 5.65952C67.5215 5.33587 68.0575 5.16117 68.6079 5.16039H72.1461L73.2197 1.81399C73.3886 1.28724 73.7203 0.827721 74.1672 0.501699C74.6141 0.175678 75.1529 0 75.7061 0C76.2592 0 76.7981 0.175678 77.2449 0.501699C77.6918 0.827721 78.0236 1.28724 78.1924 1.81399L79.2661 5.16039H82.801C83.3514 5.16117 83.8874 5.33587 84.3326 5.65952C84.7778 5.98317 85.1093 6.43923 85.2798 6.96255C85.4503 7.48587 85.451 8.04968 85.2819 8.57345C85.1128 9.09722 84.7826 9.55416 84.3383 9.87901H84.3415Z" fill="#FFFFFF"/>
<path d="M106.341 9.87901L103.461 11.9826L104.555 15.3703C104.732 15.8957 104.734 16.4642 104.561 16.991C104.389 17.5178 104.051 17.9747 103.597 18.2935C103.151 18.6227 102.611 18.799 102.057 18.7962C101.503 18.7934 100.965 18.6117 100.523 18.2782L97.7061 16.2053L94.8888 18.2757C94.4439 18.603 93.9067 18.7807 93.3545 18.7834C92.8022 18.7861 92.2633 18.6136 91.8153 18.2907C91.3672 17.9678 91.0331 17.5112 90.8609 16.9864C90.6888 16.4617 90.6874 15.8959 90.8571 15.3703L91.951 11.9826L89.0706 9.87901C88.6263 9.55416 88.2961 9.09722 88.127 8.57345C87.9579 8.04968 87.9586 7.48587 88.1291 6.96255C88.2996 6.43923 88.6311 5.98317 89.0763 5.65952C89.5215 5.33587 90.0575 5.16117 90.6079 5.16039H94.1461L95.2197 1.81399C95.3886 1.28724 95.7203 0.827721 96.1672 0.501699C96.6141 0.175678 97.1529 0 97.7061 0C98.2592 0 98.7981 0.175678 99.2449 0.501699C99.6918 0.827721 100.024 1.28724 100.192 1.81399L101.266 5.16039H104.801C105.351 5.16117 105.887 5.33587 106.333 5.65952C106.778 5.98317 107.109 6.43923 107.28 6.96255C107.45 7.48587 107.451 8.04968 107.282 8.57345C107.113 9.09722 106.783 9.55416 106.338 9.87901H106.341Z" fill="#FFFFFF"/>
</svg>
