<svg width="130" height="19" viewBox="0 0 130 19" fill="none" xmlns="http://www.w3.org/2000/svg">
<path d="M18.3418 9.87901L15.4614 11.9826L16.5553 15.3703C16.7321 15.8957 16.7343 16.4642 16.5617 16.991C16.3891 17.5178 16.0508 17.9747 15.5974 18.2935C15.1517 18.6227 14.6116 18.799 14.0575 18.7962C13.5035 18.7934 12.9652 18.6117 12.5228 18.2782L9.70635 16.2053L6.8891 18.2757C6.44421 18.603 5.90703 18.7807 5.35476 18.7834C4.8025 18.7861 4.2636 18.6136 3.81555 18.2907C3.3675 17.9678 3.03338 17.5112 2.86121 16.9864C2.68905 16.4617 2.68771 15.8959 2.8574 15.3703L3.95129 11.9826L1.07093 9.87901C0.626617 9.55416 0.296332 9.09722 0.127242 8.57345C-0.0418466 8.04968 -0.0410906 7.48587 0.1294 6.96255C0.299891 6.43923 0.631398 5.98317 1.07657 5.65952C1.52174 5.33587 2.05781 5.16117 2.6082 5.16039H6.14635L7.22001 1.81399C7.38885 1.28724 7.72063 0.827721 8.16748 0.501699C8.61434 0.175678 9.1532 0 9.70635 0C10.2595 0 10.7984 0.175678 11.2452 0.501699C11.6921 0.827721 12.0239 1.28724 12.1927 1.81399L13.2664 5.16039H16.8013C17.3517 5.16117 17.8877 5.33587 18.3329 5.65952C18.7781 5.98317 19.1096 6.43923 19.2801 6.96255C19.4506 7.48587 19.4513 8.04968 19.2822 8.57345C19.1131 9.09722 18.7829 9.55416 18.3386 9.87901H18.3418Z" fill="#FFB938"/>
<path d="M40.3418 9.87901L37.4614 11.9826L38.5553 15.3703C38.7321 15.8957 38.7343 16.4642 38.5617 16.991C38.3891 17.5178 38.0508 17.9747 37.5974 18.2935C37.1517 18.6227 36.6116 18.799 36.0575 18.7962C35.5035 18.7934 34.9652 18.6117 34.5228 18.2782L31.7064 16.2053L28.8891 18.2757C28.4442 18.603 27.907 18.7807 27.3548 18.7834C26.8025 18.7861 26.2636 18.6136 25.8156 18.2907C25.3675 17.9678 25.0334 17.5112 24.8612 16.9864C24.6891 16.4617 24.6877 15.8959 24.8574 15.3703L25.9513 11.9826L23.0709 9.87901C22.6266 9.55416 22.2964 9.09722 22.1273 8.57345C21.9582 8.04968 21.9589 7.48587 22.1294 6.96255C22.2999 6.43923 22.6314 5.98317 23.0766 5.65952C23.5218 5.33587 24.0578 5.16117 24.6082 5.16039H28.1464L29.22 1.81399C29.3889 1.28724 29.7206 0.827721 30.1675 0.501699C30.6144 0.175678 31.1532 0 31.7064 0C32.2595 0 32.7984 0.175678 33.2452 0.501699C33.6921 0.827721 34.0239 1.28724 34.1927 1.81399L35.2664 5.16039H38.8013C39.3517 5.16117 39.8877 5.33587 40.3329 5.65952C40.7781 5.98317 41.1096 6.43923 41.2801 6.96255C41.4506 7.48587 41.4513 8.04968 41.2822 8.57345C41.1131 9.09722 40.7829 9.55416 40.3386 9.87901H40.3418Z" fill="#FFB938"/>
<path d="M62.3418 9.87901L59.4614 11.9826L60.5553 15.3703C60.7321 15.8957 60.7343 16.4642 60.5617 16.991C60.3891 17.5178 60.0508 17.9747 59.5974 18.2935C59.1517 18.6227 58.6116 18.799 58.0575 18.7962C57.5035 18.7934 56.9652 18.6117 56.5228 18.2782L53.7064 16.2053L50.8891 18.2757C50.4442 18.603 49.907 18.7807 49.3548 18.7834C48.8025 18.7861 48.2636 18.6136 47.8156 18.2907C47.3675 17.9678 47.0334 17.5112 46.8612 16.9864C46.6891 16.4617 46.6877 15.8959 46.8574 15.3703L47.9513 11.9826L45.0709 9.87901C44.6266 9.55416 44.2964 9.09722 44.1273 8.57345C43.9582 8.04968 43.9589 7.48587 44.1294 6.96255C44.2999 6.43923 44.6314 5.98317 45.0766 5.65952C45.5218 5.33587 46.0578 5.16117 46.6082 5.16039H50.1464L51.22 1.81399C51.3889 1.28724 51.7206 0.827721 52.1675 0.501699C52.6144 0.175678 53.1532 0 53.7064 0C54.2595 0 54.7984 0.175678 55.2452 0.501699C55.6921 0.827721 56.0239 1.28724 56.1927 1.81399L57.2664 5.16039H60.8013C61.3517 5.16117 61.8877 5.33587 62.3329 5.65952C62.7781 5.98317 63.1096 6.43923 63.2801 6.96255C63.4506 7.48587 63.4513 8.04968 63.2822 8.57345C63.1131 9.09722 62.7829 9.55416 62.3386 9.87901H62.3418Z" fill="#FFB938"/>
<path d="M84.3418 9.87901L81.4614 11.9826L82.5553 15.3703C82.7321 15.8957 82.7343 16.4642 82.5617 16.991C82.3891 17.5178 82.0508 17.9747 81.5974 18.2935C81.1517 18.6227 80.6116 18.799 80.0575 18.7962C79.5035 18.7934 78.9652 18.6117 78.5228 18.2782L75.7064 16.2053L72.8891 18.2757C72.4442 18.603 71.907 18.7807 71.3548 18.7834C70.8025 18.7861 70.2636 18.6136 69.8156 18.2907C69.3675 17.9678 69.0334 17.5112 68.8612 16.9864C68.6891 16.4617 68.6877 15.8959 68.8574 15.3703L69.9513 11.9826L67.0709 9.87901C66.6266 9.55416 66.2964 9.09722 66.1273 8.57345C65.9582 8.04968 65.9589 7.48587 66.1294 6.96255C66.2999 6.43923 66.6314 5.98317 67.0766 5.65952C67.5218 5.33587 68.0578 5.16117 68.6082 5.16039H72.1464L73.22 1.81399C73.3889 1.28724 73.7206 0.827721 74.1675 0.501699C74.6144 0.175678 75.1532 0 75.7064 0C76.2595 0 76.7984 0.175678 77.2452 0.501699C77.6921 0.827721 78.0239 1.28724 78.1927 1.81399L79.2664 5.16039H82.8013C83.3517 5.16117 83.8877 5.33587 84.3329 5.65952C84.7781 5.98317 85.1096 6.43923 85.2801 6.96255C85.4506 7.48587 85.4513 8.04968 85.2822 8.57345C85.1131 9.09722 84.7829 9.55416 84.3386 9.87901H84.3418Z" fill="#FFB938"/>
<path d="M106.341 9.87901L103.461 11.9826L104.555 15.3703C104.732 15.8957 104.734 16.4642 104.561 16.991C104.389 17.5178 104.051 17.9747 103.597 18.2935C103.151 18.6227 102.611 18.799 102.057 18.7962C101.503 18.7934 100.965 18.6117 100.523 18.2782L97.7064 16.2053L94.8891 18.2757C94.4442 18.603 93.907 18.7807 93.3548 18.7834C92.8025 18.7861 92.2636 18.6136 91.8156 18.2907C91.3675 17.9678 91.0334 17.5112 90.8612 16.9864C90.6891 16.4617 90.6877 15.8959 90.8574 15.3703L91.9513 11.9826L89.0709 9.87901C88.6266 9.55416 88.2964 9.09722 88.1273 8.57345C87.9582 8.04968 87.9589 7.48587 88.1294 6.96255C88.2999 6.43923 88.6314 5.98317 89.0766 5.65952C89.5218 5.33587 90.0578 5.16117 90.6082 5.16039H94.1464L95.22 1.81399C95.3889 1.28724 95.7206 0.827721 96.1675 0.501699C96.6144 0.175678 97.1532 0 97.7064 0C98.2595 0 98.7984 0.175678 99.2452 0.501699C99.6921 0.827721 100.024 1.28724 100.192 1.81399L101.266 5.16039H104.801C105.351 5.16117 105.887 5.33587 106.333 5.65952C106.778 5.98317 107.109 6.43923 107.28 6.96255C107.45 7.48587 107.451 8.04968 107.282 8.57345C107.113 9.09722 106.783 9.55416 106.338 9.87901H106.341Z" fill="#FFB938"/>
<path d="M128.34 9.87901L125.46 11.9826L126.554 15.3703C126.731 15.8957 126.733 16.4642 126.56 16.991C126.388 17.5178 126.05 17.9747 125.596 18.2935C125.15 18.6227 124.61 18.799 124.056 18.7962C123.502 18.7934 122.964 18.6117 122.522 18.2782L119.705 16.2053L116.888 18.2757C116.443 18.603 115.906 18.7807 115.354 18.7834C114.802 18.7861 114.263 18.6136 113.815 18.2907C113.367 17.9678 113.032 17.5112 112.86 16.9864C112.688 16.4617 112.687 15.8959 112.856 15.3703L113.95 11.9826L111.07 9.87901C110.626 9.55416 110.295 9.09722 110.126 8.57345C109.957 8.04968 109.958 7.48587 110.128 6.96255C110.299 6.43923 110.63 5.98317 111.076 5.65952C111.521 5.33587 112.057 5.16117 112.607 5.16039H116.145L117.219 1.81399C117.388 1.28724 117.72 0.827721 118.167 0.501699C118.613 0.175678 119.152 0 119.705 0C120.259 0 120.797 0.175678 121.244 0.501699C121.691 0.827721 122.023 1.28724 122.191 1.81399L123.265 5.16039H126.8C127.35 5.16117 127.886 5.33587 128.332 5.65952C128.777 5.98317 129.108 6.43923 129.279 6.96255C129.449 7.48587 129.45 8.04968 129.281 8.57345C129.112 9.09722 128.782 9.55416 128.337 9.87901H128.34Z" fill="#FFB938"/>
</svg>
